<?xml version="1.0" standalone="no"?>
<!DOCTYPE svg PUBLIC "-//W3C//DTD SVG 1.1//EN" "http://www.w3.org/Graphics/SVG/1.1/DTD/svg11.dtd" >
<svg xmlns="http://www.w3.org/2000/svg" xmlns:xlink="http://www.w3.org/1999/xlink" version="1.1">
<metadata>
Created by FontForge 20190801 at Wed Apr 11 10:11:45 2018
 By Jimmy Wärting
Copyright (c) 2018 by Creativetacos. All rights reserved.
</metadata>
<defs>
<font id="Banny-BoldRound" horiz-adv-x="550" >
  <font-face 
    font-family="Banny Round"
    font-weight="700"
    font-stretch="normal"
    units-per-em="1024"
    panose-1="0 0 0 0 0 0 0 0 0 0"
    ascent="819"
    descent="-205"
    x-height="520"
    cap-height="750"
    bbox="-15 -251 1170 999"
    underline-thickness="50"
    underline-position="-150"
    unicode-range="U+000D-F078"
  />
<missing-glyph horiz-adv-x="100" 
 />
    <glyph glyph-name=".notdef" horiz-adv-x="100" 
 />
    <glyph glyph-name=".null" horiz-adv-x="0" 
 />
    <glyph glyph-name=".null" horiz-adv-x="0" 
 />
    <glyph glyph-name="nonmarkingreturn" unicode="&#xd;" horiz-adv-x="256" 
 />
    <glyph glyph-name="space" unicode=" " horiz-adv-x="250" 
 />
    <glyph glyph-name="exclam" unicode="!" horiz-adv-x="225" 
d="M112 0q-25 0 -43 18t-18 43v3q0 25 18 43t43 18h3q25 0 43 -18t18 -43v-3q0 -25 -18 -43t-43 -18h-3zM45 689q0 25 18 43t43 18h13q25 0 43 -18t18 -43v-242q0 -1 -0.5 -7l-0.5 -6l-45 -207q-2 -7 -8 -12t-13 -5q-8 0 -14 5t-8 12l-45 207l-0.5 6t-0.5 7v242z" />
    <glyph glyph-name="quotedbl" unicode="&#x22;" horiz-adv-x="465" 
d="M268 693q0 23 17 40t41 17q23 0 40 -17t17 -40v-55q0 -1 -1 -8t-1 -8l-21 -75q-3 -11 -13 -19t-21 -8q-12 0 -22 8t-13 19l-21 75q0 1 -1 8t-1 8v55zM80 693q0 23 17 40t41 17q23 0 40 -17t17 -40v-55q0 -1 -1 -8t-1 -8l-21 -75q-3 -11 -13 -19t-21 -8q-12 0 -22 8
t-13 19l-21 75q0 1 -1 8t-1 8v55z" />
    <glyph glyph-name="numbersign" unicode="#" horiz-adv-x="670" 
d="M478 742q1 8 9 8t7 -8l-14 -106q-4 -28 14 -48.5t47 -20.5h61q20 0 32 -14t9 -33t-19 -33t-36 -14h-76q-22 0 -40 -15.5t-21 -37.5l-10 -73q-4 -29 14 -49.5t47 -20.5h52q20 0 32 -14t9 -33t-19 -33t-36 -14h-67q-22 0 -40 -15.5t-21 -37.5l-16 -122q-1 -8 -9 -8t-7 8
l14 106q4 28 -14 48.5t-47 20.5h-63q-22 0 -40 -15.5t-21 -37.5l-16 -122q-1 -8 -9 -8t-7 8l14 106q4 28 -14 48.5t-47 20.5h-68q-20 0 -32 14t-9 33t19 33t36 14h83q22 0 40 15.5t21 37.5l10 73q4 29 -14 49.5t-47 20.5h-59q-20 0 -32 14t-9 33t19 33t36 14h74
q22 0 40 15.5t21 37.5l16 122q1 8 9 8t7 -8l-14 -106q-4 -28 14 -48.5t47 -20.5h63q22 0 40 15.5t21 37.5zM309 473q-22 0 -40 -15.5t-21 -37.5l-10 -73q-4 -29 14 -49.5t47 -20.5h63q22 0 40 15.5t21 37.5l10 73q4 29 -14 49.5t-47 20.5h-63z" />
    <glyph glyph-name="dollar" unicode="$" horiz-adv-x="625" 
d="M328 789q0 15 10.5 26t25.5 12h2q16 1 27 -9.5t11 -26.5v-37q0 -8 8.5 -21.5t16.5 -18.5q60 -36 113 -94l3 -2q2 -3 0 -5l-4 -4l-3 -3q-4 -3 -7 0q-50 54 -104 88q-8 5 -15.5 1.5t-7.5 -12.5v-200q0 -7 4 -16.5t10.5 -18.5t14 -16t14.5 -10q144 -63 144 -208
q0 -78 -38 -132.5t-114 -75.5q-12 -4 -23.5 -17.5t-11.5 -25.5q0 -15 -10 -25t-25 -10h-7q-14 0 -23.5 9.5t-9.5 23.5v24q0 9 -9 10q-17 1 -32 3q-9 2 -9 -6v-29q0 -15 -10.5 -25.5t-25.5 -10.5h-1q-16 0 -27 11t-11 26v28q0 5 -3 13t-8 15.5t-10 14t-10 9.5
q-67 45 -107 124q-2 3 -1 8t4 8q8 6 13 -4q35 -72 94 -116q10 -6 18.5 -2t8.5 15v224q0 15 -12.5 34t-26.5 26q-127 60 -127 186q0 70 34.5 120t95.5 74q11 4 23.5 19.5t12.5 28.5q0 15 10.5 25.5t26.5 10.5h5q14 0 23.5 -9.5t9.5 -23.5v-25q0 -8 9 -9q17 -1 32 -4q9 -2 9 7
v28zM279 474q0 -8 8 -10q15 -3 32 -6q10 -2 10 7v265q0 9 -9 11q-15 3 -32 4q-9 1 -9 -7v-264zM193 511q3 -4 7 -2.5t4 6.5v171q0 4 -3.5 6t-5.5 -3q-12 -23 -18.5 -55t-6.5 -71q0 -30 23 -52zM288 326q-9 2 -9 -7v-291q0 -8 9 -10q16 -4 32 -5q9 -1 9 8v289q0 8 -8 10
t-16 3.5t-17 2.5zM423 280q-7 5 -13 2t-6 -12v-214q0 -9 5.5 -12.5t10.5 3.5q22 25 32.5 66.5t10.5 96.5q0 42 -40 70z" />
    <glyph glyph-name="percent" unicode="%" horiz-adv-x="780" 
d="M594 0q31 0 46.5 38.5t15.5 102.5t-15.5 102.5t-46.5 38.5q-30 0 -45.5 -38.5t-15.5 -102.5t15.5 -102.5t45.5 -38.5zM594 -9q-63 0 -94.5 41t-31.5 109t31.5 109t94.5 41t95 -41t32 -109t-32 -109t-95 -41zM186 468q30 0 45.5 38.5t15.5 102.5t-15.5 102.5t-45.5 38.5
q-31 0 -46.5 -38.5t-15.5 -102.5t15.5 -102.5t46.5 -38.5zM186 459q-63 0 -95 41t-32 109t32 109t95 41t94.5 -41t31.5 -109t-31.5 -109t-94.5 -41zM180 0q-7 0 -10.5 5.5t0.5 11.5l400 716q4 6 13.5 11.5t16.5 5.5t10.5 -5.5t-0.5 -11.5l-400 -716q-4 -6 -13.5 -11.5
t-16.5 -5.5z" />
    <glyph glyph-name="ampersand" unicode="&#x26;" horiz-adv-x="678" 
d="M617 10q1 -9 -3 -11q-41 -16 -80.5 -7.5t-71.5 29.5q-7 4 -22 3.5t-21 -5.5q-57 -40 -129 -40q-57 0 -103.5 14.5t-80 40.5t-51.5 62.5t-18 81.5q0 41 36 84.5t97 78.5q8 5 12 16t-2 18q-24 29 -37.5 69.5t-13.5 82.5q0 38 12.5 68.5t35.5 52.5t55 34t71 12
q74 0 118.5 -39t44.5 -103q0 -27 -41.5 -63.5t-111.5 -72.5q-5 -2 -6.5 -9t1.5 -12q11 -14 28.5 -37.5t39.5 -53.5t46.5 -64.5t49.5 -69.5q7 -9 17 -7.5t14 12.5q26 77 24 173q0 6 8 4t8 -8q1 -52 -6 -97.5t-22 -84.5q-1 -5 -1.5 -13t0 -17t2.5 -17t5 -12q26 -38 39.5 -62.5
t8.5 -31.5l3 -3l-2 4l3 -3q19 2 37 8q6 2 7 -5zM278 432q7 -9 13.5 -10t16.5 6q27 19 43.5 50.5t16.5 67.5q0 60 -17.5 96.5t-46.5 36.5q-30 0 -48 -39.5t-18 -104.5q0 -28 11 -55t29 -48zM214 334q-9 12 -19 3q-18 -17 -28 -55t-10 -90q0 -44 9.5 -80.5t27.5 -62.5t43 -40
t55 -14q68 0 122 41q6 5 6 12.5t-6 13.5q-16 17 -31.5 37t-31.5 43q-50 69 -85.5 118.5t-51.5 73.5z" />
    <glyph glyph-name="quotesingle" unicode="'" horiz-adv-x="245" 
d="M80 693q0 23 17 40t41 17q23 0 40 -17t17 -40v-55q0 -1 -1 -8t-1 -8l-21 -75q-3 -11 -13 -19t-21 -8q-12 0 -22 8t-13 19l-21 75q0 1 -1 8t-1 8v55z" />
    <glyph glyph-name="parenleft" unicode="(" horiz-adv-x="360" 
d="M281 778q9 9 19.5 6.5t19.5 -11.5q8 -9 6.5 -22.5t-10.5 -21.5q-141 -138 -141 -394q0 -247 141 -384q9 -8 10.5 -21.5t-6.5 -22.5q-9 -9 -19.5 -11.5t-19.5 6.5q-181 166 -181 433q0 277 181 443z" />
    <glyph glyph-name="parenright" unicode=")" horiz-adv-x="320" 
d="M79 -98q-9 -9 -19.5 -6.5t-19.5 11.5q-8 9 -6.5 22.5t10.5 21.5q141 138 141 394q0 247 -141 384q-9 8 -10.5 21.5t6.5 22.5q9 9 19.5 11.5t19.5 -6.5q181 -166 181 -433q0 -277 -181 -443z" />
    <glyph glyph-name="asterisk" unicode="*" horiz-adv-x="406" 
d="M339 694h-1v-1zM297 528q15 -12 14.5 -29.5t-15.5 -27.5q-16 -12 -33 -6.5t-24 23.5l-10 28q-4 10 -12 15t-16 5t-16 -5t-11 -15l-11 -29q-7 -18 -23.5 -23t-32.5 6t-16.5 28.5t15.5 29.5l65 52q5 4 4 10.5t-8 6.5q-26 1 -52 2.5t-52 2.5q-10 0 -16.5 8t-3.5 18l7 21
q6 18 22.5 23.5t32.5 -4.5l26 -17q9 -6 18.5 -5.5t16 5.5t10 13.5t0.5 19.5l-8 29q-5 18 5.5 32t29.5 14t29.5 -14t5.5 -32l-8 -30q-3 -10 0.5 -18.5t10 -13.5t15.5 -5.5t18 5.5l24 16q16 10 32.5 4.5t22.5 -23.5t-3.5 -32t-28.5 -15l-30 -1q-11 -1 -18 -6.5t-9.5 -13.5
t-0.5 -17t10 -16z" />
    <glyph glyph-name="plus" unicode="+" horiz-adv-x="590" 
d="M258 164q0 25 -18 43t-43 18h-137q-15 0 -25 10t-10 25t10 25t25 10h137q25 0 43 18t18 43v127q0 15 11 26t27 11q15 0 26 -11t11 -26v-127q0 -25 18 -43t43 -18h136q15 0 25 -10t10 -25t-10 -25t-25 -10h-136q-25 0 -43 -18t-18 -43v-126q0 -16 -11 -27t-26 -11
q-16 0 -27 11t-11 27v126z" />
    <glyph glyph-name="comma" unicode="," horiz-adv-x="225" 
d="M50 64q0 25 18 43t43 18h3q25 0 43 -18t18 -43v-64q0 -57 -21.5 -85t-72.5 -33q-14 -2 -22.5 6t-8.5 22v12q0 6 5.5 12t11.5 8q27 5 32 38q3 20 -20 20h-4q-10 0 -17.5 7.5t-7.5 17.5v39z" />
    <glyph glyph-name="hyphen" unicode="-" horiz-adv-x="365" 
d="M98 216q-20 0 -34 14t-14 34q0 19 14 33t34 14h170q19 0 33 -14t14 -33q0 -20 -14 -34t-33 -14h-170z" />
    <glyph glyph-name="period" unicode="." horiz-adv-x="225" 
d="M111 0q-25 0 -43 18t-18 43v3q0 25 18 43t43 18h3q25 0 43 -18t18 -43v-3q0 -25 -18 -43t-43 -18h-3z" />
    <glyph glyph-name="slash" unicode="/" horiz-adv-x="320" 
d="M25 0q-10 0 -15 7t-2 17l254 702q3 10 13 17t20 7t15 -7t2 -17l-254 -702q-3 -10 -13 -17t-20 -7z" />
    <glyph glyph-name="zero" unicode="0" horiz-adv-x="700" 
d="M185 375q0 -183 41.5 -275.5t122.5 -92.5t122 92.5t41 275.5q0 174 -43 271t-120 97t-120.5 -97t-43.5 -271zM52 375q0 91 20 162t58.5 120.5t93.5 75.5t125 26t125 -26t93 -75.5t58 -120.5t20 -162q0 -191 -74.5 -287.5t-221.5 -96.5q-148 0 -222.5 96.5t-74.5 287.5z
" />
    <glyph glyph-name="one" unicode="1" horiz-adv-x="430" 
d="M330 61q0 -25 -18 -43t-43 -18h-6q-25 0 -43 18t-18 43v518q0 16 -8 27t-19.5 15.5t-25 1.5t-23.5 -15l-68 -78q-2 -2 -5 -1t-3 4t3 11t5 10l154 175q5 7 21 14t25 7h22q21 0 35.5 -14.5t14.5 -35.5v-639z" />
    <glyph glyph-name="two" unicode="2" horiz-adv-x="595" 
d="M135 0q-27 0 -44 18t-14 45q4 51 17 87.5t36 64t56 49t78 41.5q37 17 67.5 38t52 44t33.5 47t12 46q0 43 -11.5 78.5t-33 60.5t-51.5 39t-67 14q-65 0 -104 -37.5t-39 -99.5q0 -31 9.5 -64t26.5 -57q5 -7 -3 -11q-9 -5 -15 3q-17 25 -27 60t-10 69q0 50 16 91.5t45 71
t69.5 45.5t90.5 16t90.5 -16t69 -45t44.5 -70.5t16 -91.5q0 -26 -18.5 -56t-52.5 -61t-82 -61t-106 -57q-62 -29 -102 -59t-62 -76q-9 -19 0.5 -30.5t29.5 -11.5h347q25 0 43 -18t18 -43v-2q0 -25 -18 -43t-43 -18h-364z" />
    <glyph glyph-name="three" unicode="3" horiz-adv-x="599" 
d="M53 180q-7 30 8 47.5t46 17.5h11q22 0 42 -19t22 -42q9 -81 40 -128.5t78 -47.5q26 0 47.5 15t37 42t24 65t8.5 84q0 62 -39 99t-103 37h-30q-12 0 -21 9t-9 21v28q0 17 11.5 28.5t28.5 11.5h40q50 0 80 29.5t30 77.5q0 85 -29.5 136.5t-77.5 51.5q-36 0 -60.5 -38.5
t-33.5 -104.5q-2 -22 -22 -41t-42 -19h-6q-31 0 -46.5 12.5t-8.5 43.5q17 75 75 119t145 44q51 0 92.5 -14t71 -39t45.5 -60.5t16 -79.5t-20 -80t-55 -60q-7 -6 -8.5 -17t6.5 -16q49 -30 78 -78t29 -106q0 -49 -18.5 -89.5t-51.5 -69t-80 -44t-104 -15.5q-97 0 -162.5 51
t-84.5 138z" />
    <glyph glyph-name="four" unicode="4" horiz-adv-x="595" 
d="M25 210q0 1 1.5 6.5t2.5 6.5l323 499q6 10 23 19t28 9h17q21 0 35.5 -14.5t14.5 -35.5v-428q0 -22 15.5 -37.5t37.5 -15.5h44q8 0 8 -8q0 -9 -8 -9h-44q-22 0 -37.5 -15.5t-15.5 -36.5v-89q0 -25 -18 -43t-43 -18h-7q-25 0 -43 18t-18 43v80q0 25 -18 43t-43 18h-247
q-8 0 -8 8zM105 314q-10 -17 -11 -33.5t6.5 -30.5t22 -22.5t34.5 -8.5h123q25 0 43 18t18 43v268q0 1 0.5 5l0.5 4l11 77q1 7 -2.5 12t-9 7t-11.5 0.5t-9 -7.5z" />
    <glyph glyph-name="five" unicode="5" horiz-adv-x="595" 
d="M110 342q-10 2 -9 12l39 342q2 23 20 39t41 16h258q26 0 42.5 -18t15.5 -43l-1 -5q-2 -24 -19.5 -40.5t-41.5 -16.5h-241q-22 0 -40 -15.5t-21 -36.5l-15 -105q-1 -5 3.5 -8t8.5 -1q24 12 60.5 19t78.5 7q60 0 109 -18t84 -51.5t54 -80t19 -103.5q0 -55 -18.5 -100
t-51.5 -77t-80 -49.5t-104 -17.5q-97 0 -162.5 51t-84.5 138q-7 30 8 47.5t46 17.5h11q22 0 42 -19t22 -42q9 -81 40 -128.5t78 -47.5q26 0 47.5 16.5t37 46t24 71.5t8.5 93q0 67 -42 108t-111 41q-45 0 -82.5 -10.5t-57.5 -27.5q-2 -2 -7.5 -3.5t-7.5 -0.5z" />
    <glyph glyph-name="six" unicode="6" horiz-adv-x="585" 
d="M533 627q2 -6 -5 -10q-8 -5 -10 1q-20 57 -74 91.5t-125 34.5q-31 0 -54.5 -23t-39.5 -65t-25 -101t-11 -132q0 -4 6 -7t9 1q22 27 56.5 43t74.5 16q55 0 100 -16.5t77.5 -47t50 -73t17.5 -94.5q0 -57 -18.5 -104t-52 -80t-80.5 -51.5t-105 -18.5q-134 0 -201 95t-67 283
q0 88 16.5 160t49.5 123t82.5 79t114.5 28q77 0 135 -36t79 -96zM331 461q-63 0 -101.5 -24t-40.5 -65q2 -182 36 -273.5t99 -91.5q27 0 48.5 17t37.5 48.5t24.5 75t8.5 97.5q0 48 -8 88t-23 68t-35.5 43.5t-45.5 15.5v1z" />
    <glyph glyph-name="seven" unicode="7" horiz-adv-x="490" 
d="M30 689q0 25 18 43t43 18h328q25 0 43 -18t18 -43v-36q0 -3 -2.5 -10.5t-6.5 -15t-8 -14.5t-6 -9q-49 -52 -85 -108t-59.5 -121t-36.5 -141.5t-16 -168.5q-1 -25 -19.5 -45t-42.5 -20h-20q-28 0 -44.5 17t-13.5 45q6 58 22.5 113.5t46 111.5t72.5 114.5t101 121.5
q14 15 16 33.5t-5.5 34t-23.5 26t-37 10.5h-221q-25 0 -43 18t-18 43v1z" />
    <glyph glyph-name="eight" unicode="8" horiz-adv-x="629" 
d="M205 554q0 -66 26.5 -105.5t84.5 -39.5q50 0 80 35t30 110q0 85 -27.5 137t-82.5 52q-51 0 -81 -47.5t-30 -141.5zM86 565q0 48 16.5 84.5t46.5 60.5t72.5 36.5t94.5 12.5q113 0 171 -53.5t58 -140.5q0 -62 -32.5 -100t-89.5 -55q-5 -1 -6.5 -9t3.5 -9q79 -20 116 -69.5
t37 -120.5q0 -55 -18.5 -94.5t-52.5 -65.5t-81.5 -38.5t-105.5 -12.5q-67 0 -116 15.5t-80.5 43t-47 66.5t-15.5 87q0 75 38 121t105 65q5 2 7 12t-3 12q-61 18 -89 57.5t-28 94.5zM194 212q0 -92 29.5 -148.5t92.5 -56.5q55 0 88 49.5t33 157.5q0 80 -29 128.5t-92 48.5
q-55 0 -88.5 -42.5t-33.5 -136.5z" />
    <glyph glyph-name="nine" unicode="9" horiz-adv-x="585" 
d="M97 123q-2 6 6 11q7 4 9 -2q20 -57 74 -91.5t125 -34.5q31 0 54.5 23t39.5 65t25 101t11 132q0 4 -6 7t-9 -1q-22 -27 -56.5 -43t-74.5 -16q-55 0 -100 16.5t-77.5 47t-50 73t-17.5 94.5q0 57 18.5 104t52 80t80.5 51.5t105 18.5q134 0 201 -95t67 -283q0 -88 -16.5 -160
t-49.5 -123t-82.5 -79t-114.5 -28q-77 0 -135 36t-79 96zM299 290q63 0 101.5 23.5t40.5 64.5q-2 182 -36 273.5t-99 91.5q-27 0 -48.5 -17t-37.5 -48.5t-24.5 -75t-8.5 -97.5q0 -48 8 -88t23 -68t35.5 -43.5t45.5 -15.5z" />
    <glyph glyph-name="colon" unicode=":" horiz-adv-x="225" 
d="M111 395q-25 0 -43 18t-18 43v3q0 25 18 43t43 18h3q25 0 43 -18t18 -43v-3q0 -25 -18 -43t-43 -18h-3zM111 0q-25 0 -43 18t-18 43v3q0 25 18 43t43 18h3q25 0 43 -18t18 -43v-3q0 -25 -18 -43t-43 -18h-3z" />
    <glyph glyph-name="semicolon" unicode=";" horiz-adv-x="225" 
d="M111 395q-25 0 -43 18t-18 43v3q0 25 18 43t43 18h3q25 0 43 -18t18 -43v-3q0 -25 -18 -43t-43 -18h-3zM50 64q0 25 18 43t43 18h3q25 0 43 -18t18 -43v-64q0 -57 -21.5 -85t-72.5 -33q-14 -2 -22.5 6t-8.5 22v12q0 6 5.5 12t11.5 8q27 5 32 38q3 20 -20 20h-4
q-10 0 -17.5 7.5t-7.5 17.5v39z" />
    <glyph glyph-name="less" unicode="&#x3c;" horiz-adv-x="555" 
d="M451 475q17 8 30.5 -1t13.5 -27v-7q0 -16 -12 -33.5t-26 -23.5l-166 -66q-20 -8 -30 -24t-10 -33t10 -33t30 -24l166 -66q14 -6 26 -23.5t12 -33.5v-6q0 -19 -13.5 -28t-30.5 -1l-369 157q-14 6 -25.5 23.5t-11.5 33.5v3q0 16 11.5 33.5t25.5 23.5z" />
    <glyph glyph-name="equal" unicode="=" horiz-adv-x="604" 
d="M39 165q0 15 10 25t25 10h445q15 0 25 -10t10 -25t-10 -25t-25 -10h-445q-15 0 -25 10t-10 25zM39 365q0 15 10 25t25 10h445q15 0 25 -10t10 -25t-10 -25t-25 -10h-445q-15 0 -25 10t-10 25z" />
    <glyph glyph-name="greater" unicode="&#x3e;" horiz-adv-x="555" 
d="M264 203q20 8 30 24t10 33t-10 33t-30 24l-166 66q-14 6 -26 23.5t-12 33.5v7q0 18 13.5 27t30.5 1l369 -156q14 -6 25.5 -23.5t11.5 -33.5v-3q0 -16 -11.5 -33.5t-25.5 -23.5l-369 -157q-17 -8 -30.5 1t-13.5 28v6q0 16 12 33.5t26 23.5z" />
    <glyph glyph-name="question" unicode="?" horiz-adv-x="565" 
d="M265 0q-25 0 -43 18t-18 43v3q0 25 18 43t43 18h3q25 0 43 -18t18 -43v-3q0 -25 -18 -43t-43 -18h-3zM70 550q-29 5 -41.5 19t-2.5 42q23 68 89 108t159 40q54 0 98.5 -14.5t76 -41.5t49 -64.5t17.5 -83.5q0 -53 -28.5 -95.5t-95.5 -89.5q-18 -12 -30 -23.5t-20 -24
t-12.5 -28t-5.5 -36.5q-2 -17 -16.5 -32.5t-31.5 -15.5h-9q-24 0 -39.5 16t-14.5 40q2 36 7.5 61.5t17 45.5t29.5 37t44 35q46 32 65.5 57.5t19.5 52.5q0 51 -33 82.5t-88 31.5q-51 0 -88 -24.5t-52 -66.5q-4 -12 -19 -22.5t-27 -8.5z" />
    <glyph glyph-name="at" unicode="@" horiz-adv-x="1225" 
d="M1035 -133q2 1 5.5 2t5.5 -1q1 -2 -1 -5t-3 -4q-37 -24 -84 -44t-99 -34.5t-107.5 -22t-109.5 -7.5q-131 0 -238.5 37.5t-184 105.5t-118.5 163.5t-42 212.5t41.5 212.5t117.5 163.5t182 105.5t236 37.5q120 0 218.5 -31t168.5 -87.5t108.5 -136t38.5 -176.5
q0 -81 -18.5 -147t-53 -113t-82 -73t-106.5 -26q-66 0 -109.5 32.5t-58.5 88.5q-1 5 -11 4t-12 -6q-25 -48 -66.5 -75t-93.5 -27q-58 0 -104 18t-76 51.5t-43 80t-6 103.5q6 54 30 98.5t61.5 76t86.5 49t107 17.5q48 0 80.5 -26.5t46.5 -85.5q0 -3 4.5 -3.5t4.5 2.5
q5 42 10.5 72t11.5 30h95l2 -1l1 -3l2 -1q-3 -7 -6 -23t-6 -37.5t-5.5 -46.5t-4.5 -50q-4 -59 -8 -129q-11 -91 8.5 -146t63.5 -55q38 0 69.5 25t54 71t34.5 110.5t12 143.5q0 95 -32.5 172t-91.5 132.5t-141.5 85.5t-183.5 30q-111 0 -201.5 -36.5t-155 -103t-100 -160.5
t-35.5 -208t36 -208t101 -160.5t157 -103t204 -36.5q53 0 107.5 7.5t106 21.5t97.5 33.5t82 43.5zM744 304l0.5 2l0.5 2q-2 101 -37.5 144.5t-94.5 43.5q-31 0 -59 -16t-50.5 -46t-37.5 -71.5t-21 -92.5q-6 -54 -1 -97.5t20 -75t39.5 -48.5t56.5 -17q35 0 65.5 13t54 36
t38.5 55.5t20 72.5q1 13 1 28q1 14 2 30.5t3 36.5z" />
    <glyph glyph-name="A" unicode="A" horiz-adv-x="754" 
d="M513 252q2 -7 -5 -7l-313 1q-17 0 -34.5 -12t-23.5 -28l-58 -155q-4 -10 -8 -20.5t-8 -20.5q-3 -9 -12 -9h-7h-5q1 3 2 7q1 3 3 7.5t4 10.5q5 12 18 47.5t32 85.5t41.5 110t45.5 121t44.5 118t38.5 101.5t27.5 71.5t10.5 28l8 21q3 8 12.5 14.5t17.5 6.5h75
q16 0 33.5 -12t23.5 -28l251 -663l9 -22q4 -11 6.5 -17.5t2.5 -7.5q1 -2 -1 -1t-4 1h-112q-8 0 -16 5.5t-11 12.5l-7 19l-5 12q-18 51 -37.5 101.5t-38.5 101.5v-0.5v-0.5zM188 344q-12 -32 5.5 -57.5t52.5 -25.5h175q35 0 52.5 25.5t5.5 57.5l-88 234q-7 21 -23 31.5
t-34 10.5t-34 -10.5t-24 -30.5z" />
    <glyph glyph-name="B" unicode="B" horiz-adv-x="693" 
d="M488 427q-4 -1 -3 -9.5t4 -8.5q79 -18 124 -68t45 -123q0 -58 -15 -99.5t-48 -67.5t-85.5 -38t-126.5 -12h-235q-25 0 -43 18t-18 43v628q0 25 18 43t43 18h197q74 0 126.5 -11t85.5 -34.5t48 -61t15 -91.5q0 -45 -35 -77.5t-97 -48.5zM215 481q0 -25 18 -43t43 -18h83
q58 0 93 33.5t35 89.5q0 104 -32 148t-109 44h-70q-25 0 -43 -18t-18 -43v-193zM215 76q0 -25 18 -43t43 -18h102q77 0 109.5 49.5t32.5 166.5q0 79 -33 127t-87 48h-124q-25 0 -43 -18t-18 -43v-269z" />
    <glyph glyph-name="C" unicode="C" horiz-adv-x="695" 
d="M656 174q4 8 12 2q7 -6 3 -14q-18 -38 -45 -70t-59 -54t-68.5 -34.5t-73.5 -12.5q-84 0 -153 31t-117.5 83.5t-75.5 122t-27 147.5t27 147.5t75.5 122t117.5 83.5t153 31q32 0 65.5 -12.5t66 -34.5t61.5 -54t52 -70q1 -2 2 -6t0 -5l-4 -3l-4 -3q-2 -1 -5 1t-4 4
q-23 38 -50.5 68.5t-58 52.5t-61.5 34t-60 12q-53 0 -96.5 -29.5t-74.5 -80t-48 -117t-17 -141.5t17 -141.5t48 -117t74.5 -80t96.5 -29.5q34 0 68 12t64 34t55.5 52.5t43.5 68.5z" />
    <glyph glyph-name="D" unicode="D" horiz-adv-x="765" 
d="M350 0h-202q-25 0 -43 18t-18 43v628q0 25 18 43t43 18h172q194 0 292 -94t98 -281q0 -192 -88 -283.5t-272 -91.5zM215 76q0 -25 18 -43t43 -18h73q115 0 169.5 88t54.5 272q0 180 -63.5 270t-188.5 90h-53q-22 0 -37.5 -15.5t-15.5 -37.5v-606z" />
    <glyph glyph-name="E" unicode="E" horiz-adv-x="640" 
d="M582 16q8 0 8 -8t-8 -8h-434q-25 0 -43 18t-18 43v628q0 25 18 43t43 18h419q8 0 8 -8t-8 -8h-291q-25 0 -43 -18t-18 -43v-218q0 -25 18 -43t43 -18h272q7 0 7 -7t-7 -7h-272q-25 0 -43 -18t-18 -43v-242q0 -25 18 -43t43 -18h306z" />
    <glyph glyph-name="F" unicode="F" horiz-adv-x="605" 
d="M538 394q7 0 7 -7t-7 -7h-262q-25 0 -43 -18t-18 -43v-258q0 -25 -18 -43t-43 -18h-6q-25 0 -43 18t-18 43v628q0 25 18 43t43 18h419q8 0 8 -8t-8 -8h-291q-25 0 -43 -18t-18 -43v-218q0 -25 18 -43t43 -18h262z" />
    <glyph glyph-name="G" unicode="G" horiz-adv-x="746" 
d="M460 395q-8 0 -8 8t8 8h180q25 0 43 -18t18 -43v-217q0 -10 -8.5 -26.5t-16.5 -22.5q-56 -43 -115.5 -68t-113.5 -25q-89 0 -162 27.5t-124.5 78t-80 121.5t-28.5 157t28.5 157t80 121.5t124.5 78t162 27.5q27 0 56.5 -12.5t58 -34.5t56 -54t50.5 -70q1 -2 2 -6t0 -5
l-4 -3l-4 -3q-2 -1 -5 1t-4 4q-22 38 -48 68.5t-53 52.5t-54 34t-51 12q-58 0 -105.5 -26.5t-81.5 -74.5t-52.5 -116t-18.5 -151t18.5 -151t52.5 -116t81.5 -74.5t105.5 -26.5q49 0 104 23.5t108 63.5q8 7 15.5 22.5t7.5 25.5v192q0 25 -18 43t-43 18h-161z" />
    <glyph glyph-name="H" unicode="H" horiz-adv-x="778" 
d="M693 61q0 -25 -18 -43t-43 -18h-6q-25 0 -43 18t-18 43v265q0 25 -18 43t-43 18h-228q-25 0 -43 -18t-18 -43v-265q0 -25 -18 -43t-43 -18h-6q-25 0 -43 18t-18 43v628q0 25 18 43t43 18h6q25 0 43 -18t18 -43v-225q0 -25 18 -43t43 -18h228q25 0 43 18t18 43v225
q0 25 18 43t43 18h6q25 0 43 -18t18 -43v-628z" />
    <glyph glyph-name="I" unicode="I" horiz-adv-x="301" 
d="M216 61q0 -25 -18 -43t-43 -18h-6q-25 0 -43 18t-18 43v628q0 25 18 43t43 18h6q25 0 43 -18t18 -43v-628z" />
    <glyph glyph-name="J" unicode="J" horiz-adv-x="565" 
d="M49 248q0 12 9 23t22 14l72 13q10 1 17.5 -5t7.5 -16v-25q0 -127 21 -185t67 -58q43 0 65 58t22 153v469q0 25 18 43t43 18h6q25 0 43 -18t18 -43v-469q0 -51 -13.5 -93.5t-40.5 -72.5t-67.5 -46.5t-93.5 -16.5q-112 0 -164 54t-52 171v32z" />
    <glyph glyph-name="K" unicode="K" horiz-adv-x="683" 
d="M668 8q5 -8 -5 -8h-118q-9 0 -21 7t-17 15l-13 21l-4 7l-178 292q-10 16 -8 37.5t14 35.5l16 18q18 20 43 17.5t39 -25.5l227 -375q6 -10 12.5 -20.5t12.5 -21.5zM612 750q5 0 2 -4q-7 -8 -20.5 -22.5t-18.5 -19.5l-345 -386q-5 -4 -10.5 -19t-5.5 -21v-216
q0 -25 -18 -43t-43 -18h-6q-25 0 -43 18t-18 43v628q0 25 18 43t43 18h6q25 0 43 -18t18 -43v-204q0 -23 11 -38t27.5 -21.5t35.5 -2.5t33 21l262 294l5 6l6 3t6 2h12z" />
    <glyph glyph-name="L" unicode="L" horiz-adv-x="571" 
d="M533 16q8 0 8 -8t-8 -8h-384q-25 0 -43 18t-18 43v628q0 25 18 43t43 18h6q25 0 43 -18t18 -43v-612q0 -25 18 -43t43 -18h256z" />
    <glyph glyph-name="M" unicode="M" horiz-adv-x="825" 
d="M133 10q0 -10 -9 -10q-10 0 -10 10v679q0 25 18 43t43 18h22q19 0 37 -14t23 -33l108 -431q5 -23 22.5 -35t37 -12t36.5 11.5t23 35.5l108 432q5 18 23 32t37 14h27q25 0 43 -18t18 -43v-628q0 -25 -18 -43t-43 -18h-2q-25 0 -43 18t-18 43v302q0 18 -12 29t-28 13
t-30.5 -5.5t-18.5 -25.5l-83 -328q-5 -18 -23 -32t-37 -14h-18q-20 0 -37.5 14t-22.5 32l-83 327q-5 18 -19.5 25.5t-30 5.5t-28 -13t-12.5 -29v-352z" />
    <glyph glyph-name="N" unicode="N" horiz-adv-x="668" 
d="M133 10q0 -10 -9 -10q-10 0 -10 10v679q0 25 18 43t43 18h41q16 0 33.5 -11.5t23.5 -26.5l173 -411q9 -22 29 -30.5t39.5 -4.5t34.5 19.5t15 39.5v416q0 9 10 9q9 0 9 -9v-680q0 -25 -18 -43t-43 -18h-51q-16 0 -33.5 11.5t-23.5 26.5l-163 387q-9 22 -29 30.5t-39.5 4.5
t-34.5 -19.5t-15 -39.5v-391z" />
    <glyph glyph-name="O" unicode="O" horiz-adv-x="814" 
d="M194 375q0 -83 15.5 -151t43.5 -116t67.5 -74.5t87.5 -26.5t87.5 26.5t67.5 74.5t43.5 116t15.5 151q0 79 -16.5 146t-45 116.5t-67.5 77.5t-85 28t-85 -28t-67.5 -77.5t-45 -116.5t-16.5 -146zM57 375q0 82 26.5 152.5t74 122t111.5 80.5t139 29t139 -29t111.5 -80.5
t74 -122t26.5 -152.5q0 -86 -25 -157t-71 -121.5t-111 -78t-144 -27.5t-144 27.5t-111 78t-71 121.5t-25 157z" />
    <glyph glyph-name="P" unicode="P" horiz-adv-x="624" 
d="M215 61q0 -25 -18 -43t-43 -18h-6q-25 0 -43 18t-18 43v628q0 25 18 43t43 18h178q263 0 263 -225q0 -203 -263 -203h-55q-24 0 -40 -16t-16 -39v-206zM215 393q0 -23 16.5 -39.5t39.5 -16.5h56q134 0 134 188q0 210 -136 210h-55q-23 0 -39 -16t-16 -39v-287z" />
    <glyph glyph-name="Q" unicode="Q" horiz-adv-x="814" 
d="M195 375q0 -83 15.5 -151t43.5 -116.5t67.5 -75t87.5 -26.5q44 0 82 23q6 4 6 10t-4 11q-25 25 -55 54q-6 6 0 12q5 6 10 1q15 -13 31 -25t33 -22q7 -5 15.5 -3.5t13.5 8.5q38 48 59.5 124.5t21.5 175.5q0 79 -16.5 146t-45 116.5t-67.5 77.5t-85 28t-85 -28t-67.5 -77.5
t-45 -116.5t-16.5 -146h1zM58 374q0 82 26.5 152.5t73.5 122t111 80.5t139 29t139 -29t111.5 -80.5t74 -122t26.5 -152.5q0 -112 -40.5 -196t-114.5 -132q-9 -6 -6.5 -15.5t12.5 -13.5q33 -15 55 -23t24 -9q5 -2 4 -3.5t-5 -4t-9 -5.5t-8 -6l-38 -40l-16 -17q-7 10 -18 23
q-10 12 -23.5 28t-31.5 36q-5 5 -15.5 7.5t-17.5 0.5q-48 -14 -102 -14q-79 0 -144 27.5t-111 78t-71 121.5t-25 157z" />
    <glyph glyph-name="R" unicode="R" horiz-adv-x="624" 
d="M590 50q3 -5 5 -10q3 -4 5.5 -9t5.5 -10l6 -10q2 -4 0 -7.5t-6 -3.5h-99q-13 0 -30 10t-24 21l-138 245q-13 23 -1 43.5t39 20.5h37q13 0 30 -10t24 -21zM215 61q0 -25 -18 -43t-43 -18h-6q-25 0 -43 18t-18 43v628q0 25 18 43t43 18h178q263 0 263 -225
q0 -183 -263 -183h-55q-24 0 -40 -16t-16 -39v-226zM215 413q0 -23 16.5 -39.5t39.5 -16.5h56q134 0 134 168q0 210 -136 210h-55q-23 0 -39 -16t-16 -39v-267z" />
    <glyph glyph-name="S" unicode="S" horiz-adv-x="625" 
d="M543 608l-3 -2.5t-3 -3.5h-1q-2 -1 -5.5 0.5t-4.5 3.5q-63 67 -130 101.5t-126 34.5q-46 0 -74 -50t-28 -133q0 -81 160 -108q130 -22 195.5 -82.5t65.5 -158.5q0 -49 -15.5 -89.5t-46 -69t-76.5 -44.5t-106 -16q-88 0 -163 44.5t-119 132.5q-4 9 4 15t12 -3
q43 -85 113.5 -128.5t152.5 -43.5q58 0 87 54t29 144q0 86 -168 115q-257 44 -257 225q0 48 17 87.5t47.5 67t74 43t95.5 15.5q56 0 105 -22t86 -49q43 -31 79 -71l3 -3q3 -3 0 -6z" />
    <glyph glyph-name="T" unicode="T" horiz-adv-x="595" 
d="M577 750q8 0 8 -8t-8 -8h-154q-25 0 -43 -18t-18 -43v-612q0 -25 -18 -43t-43 -18h-7q-25 0 -43 18t-18 43v612q0 25 -18 43t-43 18h-154q-8 0 -8 8t8 8h559z" />
    <glyph glyph-name="U" unicode="U" horiz-adv-x="704" 
d="M605 741q0 9 10 9q9 0 9 -9v-447q0 -151 -68 -227t-204 -76q-272 0 -272 298v400q0 25 18 43t43 18h6q25 0 43 -18t18 -43v-377q0 -151 36 -227t108 -76q253 0 253 289v443z" />
    <glyph glyph-name="V" unicode="V" horiz-adv-x="637" 
d="M572 747q1 3 4 3h7q11 -1 7 -11l-10 -34l-2 -4l-202 -657q-5 -17 -22.5 -30t-35.5 -13h-30q-18 0 -35.5 13t-22.5 30l-203 657l-2 5l-12 39l-1 3q-1 3 2 3h125q9 0 12 -9l2 -9l143 -502q6 -23 23 -34.5t35.5 -11.5t35.5 11t24 34l144 473q1 5 6.5 21t7.5 23z" />
    <glyph glyph-name="W" unicode="W" horiz-adv-x="837" 
d="M783 741q2 9 12 10h4h5q0 -3 -1 -7q0 -3 -1 -7.5t-2 -10.5q-31 -168 -60 -335.5t-59 -336.5q-4 -20 -22 -37t-39 -17h-22q-21 0 -38.5 15t-21.5 35l-59 318q-4 25 -22 37t-38 12t-38 -12t-22 -37l-59 -318q-4 -20 -21.5 -35t-38.5 -15h-21q-21 0 -38.5 15t-21.5 36
l-117 652l-4 22q-2 11 -3 17.5t-1 7.5q0 2 1.5 1t3.5 -1h127h5q1 -3 1 -7q1 -3 1.5 -7.5t1.5 -10.5l54 -338q4 -23 20.5 -34.5t36.5 -12t37 11t21 34.5l57 314q4 20 21.5 35t38.5 15h22q21 0 38.5 -15t21.5 -35l60 -326q4 -24 21 -35.5t37 -11.5t37 12t21 35l57 326z" />
    <glyph glyph-name="X" unicode="X" horiz-adv-x="690" 
d="M66 26q57 71 112 142t110 143q10 13 12.5 31.5t-5.5 31.5q-46 79 -90.5 157.5t-90.5 157.5q-12 21 -2.5 42t33.5 21h66q1 -2 5.5 -9.5t10.5 -16.5q6 -11 13 -24l104 -181q9 -15 22 -23.5t27 -9.5t28 5.5t25 20.5l147 188q2 3 5 7q3 3 6 7.5t8 10.5l13 16q2 3 8 6t10 3h5
h6q-2 -3 -5 -7q-3 -3 -6 -7.5t-8 -10.5q-54 -68 -106.5 -135.5t-105.5 -136.5q-10 -12 -12 -30t6 -32q49 -85 97 -169.5t97 -169.5q12 -21 0 -37t-35 -16h-67q-1 2 -5.5 9.5l-10.5 17.5t-13 23l-112 195q-9 16 -22 24t-27 9t-28 -5.5t-25 -20.5l-160 -206l-30 -38
q-2 -3 -8.5 -6t-9.5 -3h-6h-6q2 3 5 7q3 3 6 7.5t8 10.5z" />
    <glyph glyph-name="Y" unicode="Y" horiz-adv-x="633" 
d="M144 750q5 0 10.5 -3.5t7.5 -7.5l8 -14t7 -13q4 -7 7 -13l174 -315q4 -7 13 -7q8 1 12 8l179 328q4 7 11.5 21t8.5 16q2 3 4 1.5t6 -1.5q9 0 4 -8l-196 -357q-2 -3 -5 -15t-3 -15v-294q0 -25 -18 -43t-43 -18h-6q-25 0 -43 18t-18 43v253q0 3 -3 15t-5 15l-200 356l-4 8
q-3 4 -5.5 9t-5.5 10l-6 12q-3 4 -1 7.5t7 3.5h103z" />
    <glyph glyph-name="Z" unicode="Z" horiz-adv-x="655" 
d="M602 16q8 0 8 -8t-8 -8h-549q-8 0 -8 8q0 2 1.5 7.5t2.5 7.5l364 618q9 17 9.5 33.5t-7.5 29.5t-22 21.5t-33 8.5h-292q-8 0 -8 8t8 8h534q8 0 8 -8q0 -2 -1.5 -7.5t-2.5 -7.5l-364 -618q-9 -17 -9.5 -33.5t7.5 -29.5t22 -21.5t33 -8.5h307z" />
    <glyph glyph-name="bracketleft" unicode="[" horiz-adv-x="360" 
d="M261 685q-25 0 -43 -18t-18 -43v-613q0 -25 18 -43t43 -18h37q13 0 22.5 -9.5t9.5 -23.5q0 -13 -9.5 -22.5t-22.5 -9.5h-112q-25 0 -43 18t-18 43v743q0 25 18 43t43 18h112q13 0 22.5 -9.5t9.5 -22.5q0 -14 -9.5 -23.5t-22.5 -9.5h-37z" />
    <glyph glyph-name="backslash" unicode="\" horiz-adv-x="340" 
d="M315 0q-10 0 -20.5 7t-13.5 16l-272 704q-3 9 1.5 16t14.5 7t20.5 -7t13.5 -16l272 -704q3 -9 -1.5 -16t-14.5 -7z" />
    <glyph glyph-name="bracketright" unicode="]" horiz-adv-x="360" 
d="M160 624q0 25 -18 43t-43 18h-36q-14 0 -23.5 9.5t-9.5 23.5q0 13 9.5 22.5t23.5 9.5h111q25 0 43 -18t18 -43v-743q0 -25 -18 -43t-43 -18h-111q-14 0 -23.5 9.5t-9.5 22.5q0 14 9.5 23.5t23.5 9.5h36q25 0 43 18t18 43v613z" />
    <glyph glyph-name="asciicircum" unicode="^" horiz-adv-x="340" 
d="M179 657q-7 4 -9 2.5t-7 -6.5l-40 -37q-5 -4 -20 -10t-22 -6h-28q-18 0 -25 14t3 28l63 83q6 9 22.5 17t26.5 8h54q10 0 26.5 -8t22.5 -17l63 -83q10 -14 3 -28t-24 -14h-22h-31q-10 13 -20 24q-9 11 -18.5 20t-17.5 13z" />
    <glyph glyph-name="underscore" unicode="_" horiz-adv-x="680" 
d="M85 -135q-15 0 -25 10t-10 25t10 25t25 10h510q15 0 25 -10t10 -25t-10 -25t-25 -10h-510z" />
    <glyph glyph-name="grave" unicode="`" horiz-adv-x="340" 
d="M151 600q-11 0 -28 9t-23 19l-39 59q-14 22 -3 42.5t37 20.5h32q17 0 34.5 -12.5t22.5 -28.5l22 -59q6 -20 -4.5 -35t-30.5 -15h-20z" />
    <glyph glyph-name="a" unicode="a" 
d="M85 381q-8 2 -6 9q23 63 76.5 101t120.5 38q45 0 81.5 -10.5t62.5 -34t40.5 -60t14.5 -88.5v-226q0 -14 3 -19t19 -6q9 0 16 -6.5t7 -14.5v-21q0 -18 -12 -30.5t-30 -12.5q-42 1 -66 4.5t-35.5 15t-14 33t-2.5 57.5v8h-0.5t-0.5 -1q-15 -72 -53.5 -99t-94.5 -27
q-92 0 -131.5 29t-39.5 76q0 67 46.5 108t124.5 41q33 0 60.5 6.5t47 22.5t30.5 43t11 68q0 71 -23 100.5t-61 29.5q-61 0 -110 -36t-71 -95q-2 -6 -10 -3zM360 282q0 4 -5.5 5.5t-7.5 -1.5q-19 -30 -51 -41t-74 -11q-30 0 -48.5 -36.5t-18.5 -96.5q0 -45 14 -71.5t47 -26.5
q30 0 55 8t44 27.5t30.5 51.5t14.5 81v111z" />
    <glyph glyph-name="b" unicode="b" horiz-adv-x="599" 
d="M185 58q0 -24 -17 -41.5t-40 -17.5q-24 0 -41 16.5t-17 40.5v635q0 23 17 40t41 17q23 0 40 -17t17 -40v-280q0 -4 7 -6t8 2q23 63 64.5 92t98.5 29q42 0 76.5 -19.5t58.5 -54.5t37.5 -85t13.5 -110t-13.5 -110t-37.5 -85t-58.5 -54.5t-76.5 -19.5q-57 0 -98.5 29
t-64.5 92q-1 4 -8 2t-7 -6v-49zM185 258q0 -124 45.5 -181.5t120.5 -57.5q17 0 30 17t23 48.5t15 75.5t5 98q0 57 -5 104t-13.5 80.5t-21 52t-27.5 18.5q-77 0 -124.5 -61.5t-47.5 -193.5z" />
    <glyph glyph-name="c" unicode="c" horiz-adv-x="532" 
d="M484 135q2 6 11 2q8 -4 6 -10q-25 -62 -70.5 -99t-98.5 -37q-63 0 -115 16t-89 49t-57 83.5t-20 120.5t20 120.5t57 83.5t89 49t115 16q49 0 91 -41.5t76 -110.5q1 -2 1.5 -5t-1.5 -4l-3 -2l-5 -2q-2 -1 -4.5 1t-2.5 4q-34 66 -72 106.5t-81 40.5q-70 0 -113 -61.5
t-43 -194.5q0 -132 43 -193.5t113 -61.5q46 0 87.5 35.5t65.5 94.5z" />
    <glyph glyph-name="d" unicode="d" horiz-adv-x="632" 
d="M175 260q0 -57 6 -104t17 -80.5t26 -52t34 -18.5q42 0 77 18.5t60 52t38.5 80.5t13.5 104t-13.5 104t-38.5 80.5t-60 52t-77 18.5q-19 0 -34 -18.5t-26 -52t-17 -80.5t-6 -104zM50 260q0 60 14.5 110t41 85t64 54.5t83.5 19.5q62 0 107.5 -34.5t70.5 -95.5q1 -4 8.5 -3.5
t7.5 5.5v292q0 23 17 40t41 17q23 0 40 -17t17 -40v-636q0 -23 -17 -40t-40 -17q-24 0 -41 17t-17 40v62q0 5 -7.5 5.5t-8.5 -3.5q-25 -61 -70.5 -95.5t-107.5 -34.5q-46 0 -83.5 19.5t-64 54.5t-41 85t-14.5 110z" />
    <glyph glyph-name="e" unicode="e" horiz-adv-x="538" 
d="M490 134q2 6 10 3q7 -4 5 -10q-9 -31 -30 -56t-51 -43t-67 -27.5t-79 -9.5q-51 0 -93.5 16t-72.5 49t-46.5 83.5t-16.5 120.5t17 120.5t48 83.5t75 49t97 16q56 0 97.5 -15.5t70 -44t44.5 -69t22 -90.5q3 -28 -13.5 -44t-44.5 -16h-226q-27 0 -44.5 -16t-14.5 -43
q7 -96 34.5 -141t67.5 -45q78 0 135.5 35t75.5 94zM346 262q28 0 44.5 18.5t14.5 46.5q-8 88 -36 138.5t-83 50.5q-44 0 -73.5 -46t-36.5 -147q-2 -27 15 -44t44 -17h111z" />
    <glyph glyph-name="f" unicode="f" horiz-adv-x="410" 
d="M333 750q7 0 7 -7t-7 -7h-83q-14 0 -19.5 -30t-5.5 -101v-42q0 -18 12.5 -30.5t30.5 -12.5h66q6 0 6 -6q0 -7 -6 -7h-51q-24 0 -41 -17t-17 -40v-392q0 -24 -17 -41t-40 -17q-24 0 -41 17t-17 41v409q0 17 -11.5 28.5t-28.5 11.5h-33q-7 0 -7 7q0 6 7 6h33
q17 0 28.5 11.5t11.5 28.5v45q0 78 31 111.5t104 33.5h88z" />
    <glyph glyph-name="g" unicode="g" horiz-adv-x="622" 
d="M77 -96q-2 8 9 8q2 0 6 -3.5t4 -5.5q9 -28 66.5 -39.5t148.5 -11.5q69 0 97.5 40.5t28.5 107.5v122q0 4 -7.5 5t-8.5 -3q-24 -59 -68.5 -92t-104.5 -33q-45 0 -81.5 14.5t-62.5 45.5t-40 80.5t-14 119.5q0 73 14 124t40 83.5t62.5 47t81.5 14.5q60 0 104.5 -34t68.5 -95
q1 -4 8.5 -3t7.5 6v61q0 23 17 40t41 17q23 0 40 -17t17 -40v-414q0 -48 -13 -86.5t-42 -66.5t-74.5 -43t-110.5 -15q-101 0 -165 15.5t-70 50.5zM175 260q0 -133 21.5 -189.5t56.5 -56.5q41 0 75 17.5t58 50t37.5 78t13.5 100.5q0 57 -13.5 104t-37.5 80.5t-58 52t-75 18.5
q-35 0 -56.5 -58.5t-21.5 -196.5z" />
    <glyph glyph-name="h" unicode="h" horiz-adv-x="555" 
d="M485 58q0 -24 -17 -41t-40 -18q-24 0 -41 17t-17 41v257q0 97 -8 145.5t-21 48.5q-35 0 -64 -13.5t-49.5 -38.5t-31.5 -60t-11 -77v-262q0 -24 -17 -41t-40 -17q-24 0 -41 17t-17 41v635q0 23 17 40t41 17q23 0 40 -17t17 -40v-266q0 -4 6 -5t8 3q20 47 58 74t90 27
q63 0 100.5 -52.5t37.5 -157.5v-257z" />
    <glyph glyph-name="i" unicode="i" horiz-adv-x="255" 
d="M126 600q-25 0 -43 18t-18 43v3q0 25 18 43t43 18h3q25 0 43 -18t18 -43v-3q0 -25 -18 -43t-43 -18h-3zM185 58q0 -24 -17 -41t-40 -17q-24 0 -41 17t-17 41v405q0 23 17 40t41 17q23 0 40 -17t17 -40v-405z" />
    <glyph glyph-name="j" unicode="j" horiz-adv-x="255" 
d="M126 600q-25 0 -43 18t-18 43v3q0 25 18 43t43 18h3q25 0 43 -18t18 -43v-3q0 -25 -18 -43t-43 -18h-3zM-15 -82q0 7 7 7h28q14 0 23.5 11t15.5 25t8.5 26t2.5 13v2v2v459q0 23 17 40t41 17q23 0 40 -17t17 -40v-451v-12q-12 -25 -33 -45q-20 -18 -50 -31t-77 -13h-33
q-7 0 -7 7z" />
    <glyph glyph-name="k" unicode="k" horiz-adv-x="520" 
d="M474 62q13 -22 3 -42t-35 -20h-35q-12 0 -29 10t-24 21l-121 208q-5 9 -14.5 10t-15.5 -6l-1 -1q-5 -5 -11 -20t-6 -22v-143q0 -23 -17 -40t-40 -17q-24 0 -41 17t-17 41v635q0 23 17 40t41 17q23 0 40 -17t17 -40v-293q0 -22 11 -37.5t27 -22t34.5 -2.5t33.5 20l107 113
q1 1 8 8.5t15 16t15 16t8 8.5q2 2 4.5 1t6.5 -1q3 0 4 -2.5t-1 -5.5l-34 -36l-6 -6l-79 -84q-13 -13 -17 -33t5 -35q37 -65 73.5 -128.5t73.5 -127.5z" />
    <glyph glyph-name="l" unicode="l" horiz-adv-x="255" 
d="M185 57q0 -23 -17 -40t-40 -17q-24 0 -41 17t-17 41v635q0 23 17 40t41 17q23 0 40 -17t17 -40v-636z" />
    <glyph glyph-name="m" unicode="m" horiz-adv-x="839" 
d="M774 58q0 -24 -17 -41t-40 -17q-24 0 -41 17t-17 41v257q0 97 -7.5 145.5t-19.5 48.5q-71 0 -112 -53.5t-41 -140.5v-257q0 -24 -17 -41t-40 -17q-24 0 -41 17t-17 41v257q0 97 -7.5 145.5t-19.5 48.5q-34 0 -62 -13.5t-48 -38.5t-31 -60t-11 -77v-262q0 -24 -17 -41
t-40 -17q-24 0 -41 17t-17 41v405q0 23 17 40t41 17q23 0 40 -17t17 -40v-37q0 -4 6 -4.5t7 2.5q20 47 57.5 74t88.5 27q44 0 75.5 -27t46.5 -82q2 -4 11 -5.5t11 3.5q19 52 58 81.5t93 29.5q61 0 98 -52.5t37 -157.5v-257z" />
    <glyph glyph-name="n" unicode="n" 
d="M485 58q0 -24 -17 -41t-40 -18q-24 0 -41 17t-17 41v257q0 97 -8 145.5t-21 48.5q-35 0 -64 -13.5t-49.5 -38.5t-31.5 -60t-11 -77v-262q0 -24 -17 -41t-40 -17q-24 0 -41 17t-17 41v405q0 23 17 40t41 17q23 0 40 -17t17 -40v-36q0 -4 6 -5t8 3q20 47 58 74t90 27
q63 0 100.5 -52.5t37.5 -157.5v-257z" />
    <glyph glyph-name="o" unicode="o" horiz-adv-x="590" 
d="M175 260q0 -58 7 -105t22 -80.5t37.5 -52t53.5 -18.5q54 0 87 61.5t33 194.5q0 58 -7 105t-22 80.5t-37.5 52t-53.5 18.5q-54 0 -87 -61.5t-33 -194.5zM50 260q0 70 17.5 120.5t50 83.5t77.5 49t100 16q63 0 109.5 -19.5t76.5 -54.5t44.5 -85t14.5 -110
q0 -70 -17.5 -120.5t-50 -83.5t-77.5 -49t-100 -16q-63 0 -109.5 19.5t-76.5 54.5t-44.5 85t-14.5 110z" />
    <glyph glyph-name="p" unicode="p" horiz-adv-x="599" 
d="M185 -97q0 -24 -17 -41.5t-40 -17.5q-24 0 -41 16.5t-17 40.5v560q0 23 17 40t41 17q23 0 40 -17t17 -40v-50q0 -4 7 -6t8 2q23 63 64.5 92t98.5 29q42 0 76.5 -19.5t58.5 -54.5t37.5 -85t13.5 -110t-13.5 -110t-37.5 -85t-58.5 -54.5t-76.5 -19.5q-57 0 -98.5 29
t-64.5 92q-1 4 -8 2t-7 -6v-204zM185 258q0 -132 47.5 -193.5t124.5 -61.5q15 0 27.5 18.5t21 52t13.5 80.5t5 104t-5 104t-13.5 80.5t-21 52t-27.5 18.5q-77 0 -124.5 -61.5t-47.5 -193.5z" />
    <glyph glyph-name="q" unicode="q" horiz-adv-x="632" 
d="M175 260q0 -57 6 -104t17 -80.5t26 -52t34 -18.5q42 0 77 18.5t60 52t38.5 80.5t13.5 104t-13.5 104t-38.5 80.5t-60 52t-77 18.5q-19 0 -34 -18.5t-26 -52t-17 -80.5t-6 -104zM50 260q0 60 14.5 110t41 85t64 54.5t83.5 19.5q62 0 107.5 -34.5t70.5 -95.5q1 -4 8.5 -3.5
t7.5 5.5v62q0 23 17 40t41 17q23 0 40 -17t17 -40v-561q0 -23 -17 -40t-40 -17q-24 0 -41 17t-17 40v217q0 5 -7.5 5.5t-8.5 -3.5q-25 -61 -70.5 -95.5t-107.5 -34.5q-46 0 -83.5 19.5t-64 54.5t-41 85t-14.5 110z" />
    <glyph glyph-name="r" unicode="r" horiz-adv-x="370" 
d="M350 507q0 -6 -6 -6h-6q-41 0 -70 -19.5t-47.5 -55t-27 -85.5t-8.5 -111v-172q0 -24 -17 -41t-40 -17q-24 0 -41 17t-17 41v405q0 23 17 40t41 17q23 0 40 -17t17 -40v-74q0 -3 5 -4t6 2q17 63 52 98t92 35h5q5 0 5 -5v-8z" />
    <glyph glyph-name="s" unicode="s" horiz-adv-x="524" 
d="M53 126q-2 3 -3 6q-3 5 -3 6l5 3l3 1l3 1l1 1q2 0 4 -2t2 -3q25 -59 83 -94.5t130 -35.5q45 0 72 33.5t27 89.5q0 28 -30.5 48.5t-91.5 28.5q-99 12 -148.5 57.5t-49.5 111.5q0 33 14.5 60t40.5 46.5t63 30t82 10.5q59 0 112 -36.5t84 -98.5l3 -5q3 -6 -3 -9h-1
q-8 -4 -11 2q-28 61 -78 97.5t-104 36.5q-42 0 -66.5 -34t-24.5 -91q0 -28 29 -48.5t87 -27.5q105 -13 157.5 -58t52.5 -110q0 -33 -15.5 -60t-43.5 -46.5t-67.5 -30t-87.5 -10.5q-76 0 -137 35.5t-89 94.5h-1z" />
    <glyph glyph-name="t" unicode="t" horiz-adv-x="345" 
d="M309 520q6 0 6 -6q0 -7 -6 -7h-49q-23 0 -39 -16t-16 -39v-307q0 -74 0.5 -102.5t4.5 -28.5h98q7 0 7 -7t-7 -7h-105q-40 0 -63 7.5t-34 24.5t-13.5 44.5t-2.5 68.5v322q0 17 -11.5 28.5t-28.5 11.5h-33q-7 0 -7 7q0 6 7 6h33q17 0 28.5 11.5t11.5 28.5v66q0 9 7.5 25.5
t14.5 21.5l36 30q9 8 19 9t18.5 -3t14 -12.5t5.5 -20.5v-101q0 -23 16 -39t39 -16h49z" />
    <glyph glyph-name="u" unicode="u" 
d="M480 58q0 -24 -17 -41t-40 -17h-7q-21 0 -36 15t-15 36v16q0 3 -5 4t-7 -2q-17 -37 -49.5 -57.5t-76.5 -20.5q-47 0 -78.5 13.5t-50 39.5t-26 65t-7.5 91v263q0 23 17 40t41 17q23 0 40 -17t17 -40v-263q0 -96 10.5 -144.5t41.5 -48.5q60 0 96.5 38.5t36.5 102.5v315
q0 23 17 40t41 17q23 0 40 -17t17 -40v-405z" />
    <glyph glyph-name="v" unicode="v" horiz-adv-x="482" 
d="M37 471q-1 0 -2.5 5t-4 13t-5 15.5t-3.5 12.5q-1 4 3 4h108h18q3 -10 5 -18t4 -15t3 -10l69 -256q6 -23 22.5 -34.5t35 -12t35.5 10.5t25 33l79 251q-1 0 2.5 10.5l6.5 19.5l3 10q3 10 13 10h10q-4 -14 -7 -25q-4 -10 -6.5 -17.5t-3.5 -7.5l-140 -428q-6 -16 -23.5 -29
t-35.5 -13h-14q-18 0 -35.5 13t-23.5 29l-139 428z" />
    <glyph glyph-name="w" unicode="w" horiz-adv-x="737" 
d="M32 471q-1 0 -2.5 5t-3 13t-3.5 15.5t-3 12.5q-1 4 3 4h105q13 0 16 -12l2 -13l4 -22l42 -225q3 -19 16.5 -28.5t29.5 -10t30 8.5t18 27l55 227q4 19 22 33t37 14h3q20 0 37.5 -14t22.5 -34l51 -226q4 -20 19 -30t32 -10t32 10t20 30l52 224q-1 0 2 10t5 20l3 11
q2 9 12 9h9q-3 -14 -5 -25q-2 -10 -4 -17.5t-3 -7.5l-104 -424q-4 -19 -21.5 -32.5t-36.5 -13.5t-36.5 13.5t-21.5 32.5l-48 199q-6 23 -23.5 34.5t-36.5 11.5t-36.5 -11.5t-22.5 -34.5l-49 -199q-4 -19 -21.5 -32.5t-36.5 -13.5t-36.5 13.5t-21.5 32.5l-105 424z" />
    <glyph glyph-name="x" unicode="x" horiz-adv-x="525" 
d="M39 0q-3 0 -1 3q3 4 8 10.5t10 13.5t9.5 13.5t6.5 9.5q29 40 57.5 79.5t57.5 78.5q9 13 10 34t-8 34l-138 199q-5 6 -13.5 18.5t-14.5 20.5q-4 6 2 6h131q3 0 5 -2l1 -3l28 -40l4 -5l45 -64q17 -26 44.5 -26t45.5 25l77 106q2 3 7.5 6t9.5 3h7q3 0 1 -3q-3 -4 -8 -10.5
t-10 -13.5t-9.5 -13.5t-6.5 -9.5q-22 -29 -43 -58.5t-43 -59.5q-7 -9 -7.5 -24.5t6.5 -24.5l178 -258q5 -6 13.5 -18.5t14.5 -20.5q4 -6 -2 -6h-131q-3 0 -4 3l-2 2l-28 40l-4 5l-74 107q-19 28 -49.5 28t-50.5 -27l-108 -149q-2 -3 -7.5 -6t-8.5 -3h-8z" />
    <glyph glyph-name="y" unicode="y" horiz-adv-x="462" 
d="M243 -74q-13 -36 -26 -60.5t-30.5 -39t-39.5 -20.5t-53 -6h-42q-8 0 -8 7q0 8 8 8h42q27 0 47 5.5t35.5 19t28 36t24.5 56.5l3 7v8t-1 7l-198 505q-9 24 3.5 42.5t37.5 18.5h52q5 0 10.5 -4t7.5 -8l5 -13l9 -24l75 -196q8 -21 24 -31t34 -10t34 11t23 32l68 198l13 36
q3 9 13 9t7 -9l-146 -418l-59 -169z" />
    <glyph glyph-name="z" unicode="z" horiz-adv-x="460" 
d="M390 163q0 3 4 3h43q3 0 3 -3q0 -4 -3 -4h-43q-4 0 -4 4zM52 507q-7 0 -7 7q0 6 7 6h367q5 0 5 -5t-7 -5q-133 -3 -272 -3h-93zM30 6q0 1 1 5t2 5l237 455q6 11 22 21.5t29 11.5l34 2q24 1 35.5 -17.5t0.5 -40.5l-214 -400q-5 -8 -19.5 -18.5t-23.5 -12.5q-2 0 -0.5 -2
t3.5 -2q73 1 147 1h148q8 0 8 -7t-7 -7h-397q-6 0 -6 6z" />
    <glyph glyph-name="braceleft" unicode="{" horiz-adv-x="342" 
d="M280 750q13 0 22.5 -9.5t9.5 -22.5t-9.5 -22.5t-22.5 -9.5h-38q-19 0 -30.5 -16t-11.5 -42v-211q0 -33 -9.5 -57t-26.5 -36q-3 -1 -3 -6t3 -6q17 -12 26.5 -36t9.5 -57v-211q0 -26 11.5 -42t30.5 -16h38q13 0 22.5 -9.5t9.5 -23.5q0 -13 -9.5 -22.5t-22.5 -9.5h-38
q-53 0 -85 33.5t-32 89.5v226q0 25 -13 38t-36 16q-8 2 -14.5 9t-6.5 14v13q0 7 6.5 14t14.5 9q23 3 36 16t13 38v226q0 56 32 89.5t85 33.5h38z" />
    <glyph glyph-name="bar" unicode="|" horiz-adv-x="165" 
d="M45 763q0 15 11 26t27 11q15 0 26 -11t11 -26v-976q0 -15 -11 -26t-26 -11q-16 0 -27 11t-11 26v976z" />
    <glyph glyph-name="braceright" unicode="}" horiz-adv-x="342" 
d="M30 718q0 13 9.5 22.5t22.5 9.5l38 -1q53 0 85 -33.5t32 -89.5v-226q0 -25 13 -38t36 -16q8 -2 14.5 -9t6.5 -14v-13q0 -7 -6.5 -14t-14.5 -9q-23 -3 -36 -16t-13 -38v-226q0 -56 -32 -89.5t-85 -33.5h-37q-14 0 -23.5 9.5t-9.5 22.5q0 14 9.5 23.5t23.5 9.5h37
q19 0 30.5 16t11.5 42v211q0 33 9.5 57t26.5 36q3 1 3 6t-3 6q-17 12 -26.5 36t-9.5 57v211q0 26 -11.5 42t-30.5 16h-37q-14 0 -23.5 9.5t-9.5 23.5z" />
    <glyph glyph-name="asciitilde" unicode="~" horiz-adv-x="340" 
d="M91 281q-1 -8 -7.5 -14.5t-13.5 -6.5l-22 1q-20 0 -31 10.5t-8 30.5q6 46 25 76.5t49 38.5q21 6 23 -19l1 -12v0q-1 14 -2 23.5t-2 9.5q19 0 41 -11.5t40 -26t31 -26.5t14 -14q4 -4 2.5 -2.5t3.5 4.5q11 8 14 46q1 8 7.5 14.5t14.5 6.5h22q20 0 31 -10.5t8 -30.5
q-5 -43 -22.5 -72t-43.5 -40q-16 -7 -23 -0.5t-9 23.5l-1 16l-4 45q2 -25 3 -45q2 -18 3 -31.5t2 -13.5q-20 0 -37.5 12t-33 27t-29 27t-26.5 12q-8 0 -13.5 -13t-6.5 -35z" />
    <glyph glyph-name="nonbreakingspace" unicode="&#xa0;" horiz-adv-x="220" 
 />
    <glyph glyph-name="exclamdown" unicode="&#xa1;" horiz-adv-x="225" 
d="M51 689q0 25 18 43t43 18h3q25 0 43 -18t18 -43v-3q0 -25 -18 -43t-43 -18h-3q-25 0 -43 18t-18 43v3zM106 0q-25 0 -43 18t-18 43v242q0 1 0.5 7l0.5 6l45 207q2 7 8 12t14 5q7 0 13 -5t8 -12l45 -207l0.5 -6t0.5 -7v-242q0 -25 -18 -43t-43 -18h-13z" />
    <glyph glyph-name="cent" unicode="&#xa2;" horiz-adv-x="532" 
d="M294 562q0 13 10 23t23 10l6 1q15 0 25.5 -10.5t10.5 -25.5v-10q0 -8 8 -21t14 -17q31 -19 57.5 -53.5t50.5 -81.5q1 -2 1 -4.5t-2 -3.5l-3 -2l-5 -2q-4 -2 -7 3q-22 44 -46 76.5t-50 51.5q-8 6 -13.5 1.5t-5.5 -14.5v-446q0 -11 6 -16.5t16 0.5q28 15 52 43.5t39 66.5
q2 4 5.5 6t6.5 0t4.5 -6.5t-0.5 -7.5q-16 -40 -41.5 -69.5t-57.5 -45.5q-8 -5 -18.5 -19t-10.5 -23v-6q0 -14 -10.5 -24.5t-24.5 -10.5h-6q-14 0 -24 10t-10 23t-10 24.5t-22 13.5q-97 16 -154.5 80.5t-57.5 183.5t57.5 183.5t154.5 80.5q12 2 22 13.5t10 24.5zM258 27
q16 -11 26 -4t10 26v427q0 19 -10 26t-26 -4q-39 -25 -61 -83t-22 -153t22 -152.5t61 -82.5z" />
    <glyph glyph-name="guillemotleft" unicode="&#xab;" horiz-adv-x="565" 
d="M377 443q6 9 22.5 18t28.5 9h17q17 0 24.5 -13.5t-2.5 -28.5l-89 -134q-9 -13 -9 -34t9 -34l89 -134q10 -15 2.5 -28.5t-24.5 -13.5h-17q-12 0 -28.5 9t-22.5 18l-99 149q-9 13 -9 34t9 34zM192 443q6 9 22.5 18t28.5 9h17q17 0 24.5 -13.5t-2.5 -28.5l-89 -134
q-9 -13 -9 -34t9 -34l89 -134q10 -15 2.5 -28.5t-24.5 -13.5h-17q-12 0 -28.5 9t-22.5 18l-99 149q-9 13 -9 34t9 34z" />
    <glyph glyph-name="logicalnot" unicode="&#xac;" horiz-adv-x="417" 
d="M367 115q0 -9 -8 -9q-9 0 -9 9v80q0 25 -18 43t-43 18h-232q-7 0 -7 7t7 7h249q25 0 43 -18t18 -43v-94z" />
    <glyph glyph-name="acute" unicode="&#xb4;" horiz-adv-x="340" 
d="M171 600q-21 0 -32 15t-4 35l21 59q5 16 23 28.5t35 12.5h31q26 0 37.5 -20.5t-3.5 -42.5l-38 -59q-6 -10 -23 -19t-28 -9h-19z" />
    <glyph glyph-name="periodcentered" unicode="&#xb7;" horiz-adv-x="225" 
d="M111 198q-25 0 -43 18t-18 43v3q0 25 18 43t43 18h3q25 0 43 -18t18 -43v-3q0 -25 -18 -43t-43 -18h-3z" />
    <glyph glyph-name="guillemotright" unicode="&#xbb;" horiz-adv-x="547" 
d="M265 428q-10 15 -2.5 28.5t24.5 13.5h17q12 0 28.5 -9t22.5 -18l99 -149q9 -13 9 -34t-9 -34l-99 -149q-6 -9 -22.5 -18t-28.5 -9h-17q-17 0 -24.5 13.5t2.5 28.5l89 134q9 13 9 34t-9 34zM80 428q-10 15 -2.5 28.5t24.5 13.5h17q12 0 28.5 -9t22.5 -18l99 -149
q9 -13 9 -34t-9 -34l-99 -149q-6 -9 -22.5 -18t-28.5 -9h-17q-17 0 -24.5 13.5t2.5 28.5l89 134q9 13 9 34t-9 34z" />
    <glyph glyph-name="questiondown" unicode="&#xbf;" 
d="M250 750q25 0 43 -18t18 -43v-3q0 -25 -18 -43t-43 -18h-3q-25 0 -43 18t-18 43v3q0 25 18 43t43 18h3zM445 200q29 -5 41.5 -19t2.5 -42q-23 -68 -89 -108t-159 -40q-54 0 -98.5 14.5t-76 41.5t-49 64.5t-17.5 83.5q0 53 28.5 95.5t95.5 89.5q18 12 30 23.5t20 24
t12.5 28t5.5 36.5q2 17 16.5 32.5t32.5 15.5h8q24 0 39.5 -16t14.5 -40q-2 -36 -7.5 -61.5t-17 -45.5t-29.5 -37t-44 -35q-46 -32 -65.5 -57.5t-19.5 -52.5q0 -51 33 -82.5t88 -31.5q51 0 88 24.5t52 66.5q4 12 19 22.5t27 8.5z" />
    <glyph glyph-name="Agrave" unicode="&#xc0;" horiz-adv-x="754" 
d="M375 830q-11 0 -28 9t-23 19l-39 59q-14 22 -3 42.5t37 20.5h32q17 0 34.5 -12.5t22.5 -28.5l22 -59q6 -20 -4.5 -35t-30.5 -15h-20zM513 252q2 -7 -5 -7l-313 1q-17 0 -34.5 -12t-23.5 -28l-58 -155q-4 -10 -8 -20.5t-8 -20.5q-3 -9 -12 -9h-7h-5q1 3 2 7q1 3 3 7.5
t4 10.5q5 12 18 47.5t32 85.5t41.5 110t45.5 121t44.5 118t38.5 101.5t27.5 71.5t10.5 28l8 21q3 8 12.5 14.5t17.5 6.5h75q16 0 33.5 -12t23.5 -28l251 -663l9 -22q4 -11 6.5 -17.5t2.5 -7.5q1 -2 -1 -1t-4 1h-112q-8 0 -16 5.5t-11 12.5l-7 19l-5 12q-18 51 -37.5 101.5
t-38.5 101.5v-0.5v-0.5zM188 344q-12 -32 5.5 -57.5t52.5 -25.5h175q35 0 52.5 25.5t5.5 57.5l-88 234q-7 21 -23 31.5t-34 10.5t-34 -10.5t-24 -30.5z" />
    <glyph glyph-name="Aacute" unicode="&#xc1;" horiz-adv-x="754" 
d="M395 830q-21 0 -32 15t-4 35l21 59q5 16 23 28.5t35 12.5h31q26 0 37.5 -20.5t-3.5 -42.5l-38 -59q-6 -10 -23 -19t-28 -9h-19zM513 252q2 -7 -5 -7l-313 1q-17 0 -34.5 -12t-23.5 -28l-58 -155q-4 -10 -8 -20.5t-8 -20.5q-3 -9 -12 -9h-7h-5q1 3 2 7q1 3 3 7.5t4 10.5
q5 12 18 47.5t32 85.5t41.5 110t45.5 121t44.5 118t38.5 101.5t27.5 71.5t10.5 28l8 21q3 8 12.5 14.5t17.5 6.5h75q16 0 33.5 -12t23.5 -28l251 -663l9 -22q4 -11 6.5 -17.5t2.5 -7.5q1 -2 -1 -1t-4 1h-112q-8 0 -16 5.5t-11 12.5l-7 19l-5 12q-18 51 -37.5 101.5
t-38.5 101.5v-0.5v-0.5zM188 344q-12 -32 5.5 -57.5t52.5 -25.5h175q35 0 52.5 25.5t5.5 57.5l-88 234q-7 21 -23 31.5t-34 10.5t-34 -10.5t-24 -30.5z" />
    <glyph glyph-name="Acircumflex" unicode="&#xc2;" horiz-adv-x="754" 
d="M403 887q-7 4 -9 2.5t-7 -6.5l-40 -37q-5 -4 -20 -10t-22 -6h-28q-18 0 -25 14t3 28l63 83q6 9 22.5 17t26.5 8h54q10 0 26.5 -8t22.5 -17l63 -83q10 -14 3 -28t-24 -14h-22h-31q-10 13 -20 24q-9 11 -18.5 20t-17.5 13zM513 252q2 -7 -5 -7l-313 1q-17 0 -34.5 -12
t-23.5 -28l-58 -155q-4 -10 -8 -20.5t-8 -20.5q-3 -9 -12 -9h-7h-5q1 3 2 7q1 3 3 7.5t4 10.5q5 12 18 47.5t32 85.5t41.5 110t45.5 121t44.5 118t38.5 101.5t27.5 71.5t10.5 28l8 21q3 8 12.5 14.5t17.5 6.5h75q16 0 33.5 -12t23.5 -28l251 -663l9 -22q4 -11 6.5 -17.5
t2.5 -7.5q1 -2 -1 -1t-4 1h-112q-8 0 -16 5.5t-11 12.5l-7 19l-5 12q-18 51 -37.5 101.5t-38.5 101.5v-0.5v-0.5zM188 344q-12 -32 5.5 -57.5t52.5 -25.5h175q35 0 52.5 25.5t5.5 57.5l-88 234q-7 21 -23 31.5t-34 10.5t-34 -10.5t-24 -30.5z" />
    <glyph glyph-name="Atilde" unicode="&#xc3;" horiz-adv-x="754" 
d="M315 851q-1 -8 -7.5 -14.5t-13.5 -6.5l-22 1q-20 0 -31 10.5t-8 30.5q6 46 25 76.5t49 38.5q21 6 23 -19l1 -12v0q-1 14 -2 23.5t-2 9.5q19 0 41 -11.5t40 -26t31 -26.5t14 -14q4 -4 2.5 -2.5t3.5 4.5q11 8 14 46q1 8 7.5 14.5t14.5 6.5h22q20 0 31 -10.5t8 -30.5
q-5 -43 -22.5 -72t-43.5 -40q-16 -7 -23 -0.5t-9 23.5l-1 16l-4 45q2 -25 3 -45q2 -18 3 -31.5t2 -13.5q-20 0 -37.5 12t-33 27t-29 27t-26.5 12q-8 0 -13.5 -13t-6.5 -35zM514 253q2 -7 -5 -7l-313 1q-17 0 -34.5 -12t-23.5 -28l-58 -155q-4 -10 -8 -20.5t-8 -20.5
q-3 -9 -12 -9h-7h-5q1 3 2 7q1 3 3 7.5t4 10.5q5 12 18 47.5t32 85.5t41.5 110t45.5 121t44.5 118t38.5 101.5t27.5 71.5t10.5 28l8 21q3 8 12.5 14.5t17.5 6.5h75q16 0 33.5 -12t23.5 -28l251 -663l9 -22q4 -11 6.5 -17.5t2.5 -7.5q1 -2 -1 -1t-4 1h-112q-8 0 -16 5.5
t-11 12.5l-7 19l-5 12q-18 51 -37.5 101.5t-38.5 101.5v-0.5v-0.5zM189 345q-12 -32 5.5 -57.5t52.5 -25.5h175q35 0 52.5 25.5t5.5 57.5l-88 234q-7 21 -23 31.5t-34 10.5t-34 -10.5t-24 -30.5z" />
    <glyph glyph-name="Adieresis" unicode="&#xc4;" horiz-adv-x="754" 
d="M473 830q-25 0 -43 18t-18 43v3q0 25 18 43t43 18h3q25 0 43 -18t18 -43v-3q0 -25 -18 -43t-43 -18h-3zM312 830q-25 0 -43 18t-18 43v3q0 25 18 43t43 18h3q25 0 43 -18t18 -43v-3q0 -25 -18 -43t-43 -18h-3zM513 252q2 -7 -5 -7l-313 1q-17 0 -34.5 -12t-23.5 -28
l-58 -155q-4 -10 -8 -20.5t-8 -20.5q-3 -9 -12 -9h-7h-5q1 3 2 7q1 3 3 7.5t4 10.5q5 12 18 47.5t32 85.5t41.5 110t45.5 121t44.5 118t38.5 101.5t27.5 71.5t10.5 28l8 21q3 8 12.5 14.5t17.5 6.5h75q16 0 33.5 -12t23.5 -28l251 -663l9 -22q4 -11 6.5 -17.5t2.5 -7.5
q1 -2 -1 -1t-4 1h-112q-8 0 -16 5.5t-11 12.5l-7 19l-5 12q-18 51 -37.5 101.5t-38.5 101.5v-0.5v-0.5zM188 344q-12 -32 5.5 -57.5t52.5 -25.5h175q35 0 52.5 25.5t5.5 57.5l-88 234q-7 21 -23 31.5t-34 10.5t-34 -10.5t-24 -30.5z" />
    <glyph glyph-name="Aring" unicode="&#xc5;" horiz-adv-x="754" 
d="M366 915q0 -32 28 -32q29 0 29 32q0 31 -29 31q-28 0 -28 -31zM309 915q0 40 22 62t63 22t63.5 -22t22.5 -62q0 -85 -86 -85q-85 0 -85 85zM513 252q2 -7 -5 -7l-313 1q-17 0 -34.5 -12t-23.5 -28l-58 -155q-4 -10 -8 -20.5t-8 -20.5q-3 -9 -12 -9h-7h-5q1 3 2 7
q1 3 3 7.5t4 10.5q5 12 18 47.5t32 85.5t41.5 110t45.5 121t44.5 118t38.5 101.5t27.5 71.5t10.5 28l8 21q3 8 12.5 14.5t17.5 6.5h75q16 0 33.5 -12t23.5 -28l251 -663l9 -22q4 -11 6.5 -17.5t2.5 -7.5q1 -2 -1 -1t-4 1h-112q-8 0 -16 5.5t-11 12.5l-7 19l-5 12
q-18 51 -37.5 101.5t-38.5 101.5v-0.5v-0.5zM188 344q-12 -32 5.5 -57.5t52.5 -25.5h175q35 0 52.5 25.5t5.5 57.5l-88 234q-7 21 -23 31.5t-34 10.5t-34 -10.5t-24 -30.5z" />
    <glyph glyph-name="Ccedilla" unicode="&#xc7;" horiz-adv-x="695" 
d="M353 -91q-25 0 -33 -10q-2 -3 -4 -2q-3 1 -2 3l24 48q8 18 -2 37.5t-28 25.5q-59 19 -106 54.5t-80 83.5t-51 106t-18 121q0 78 27 147.5t75.5 122t117.5 83.5t153 31q32 0 65.5 -12.5t66 -34.5t61.5 -54t52 -70q1 -2 2 -6t0 -5l-4 -3l-4 -3q-2 -1 -5 1t-4 4
q-23 38 -50.5 68.5t-58 52.5t-61.5 34t-60 12q-53 0 -96.5 -29.5t-74.5 -80t-48 -117t-17 -141.5t17 -141.5t48 -117t74.5 -80t96.5 -29.5q34 0 68 12t64 34t55.5 52.5t43.5 68.5q4 8 12 2q7 -6 3 -14q-18 -38 -45 -70t-59 -54t-68.5 -34.5t-73.5 -12.5q-28 0 -50 3
q-9 1 -13 -8l-38 -79v-1t1 0q11 9 28 9q45 0 72 -16.5t27 -42.5q0 -48 -27.5 -77.5t-73.5 -29.5q-23 0 -34.5 20.5t-8.5 54.5q0 3 3 6t3 -1q0 -11 9.5 -18t24.5 -7q17 0 28 14.5t11 37.5t-9.5 37t-26.5 14z" />
    <glyph glyph-name="Egrave" unicode="&#xc8;" horiz-adv-x="640" 
d="M312 830q-11 0 -28 9t-23 19l-39 59q-14 22 -3 42.5t37 20.5h32q17 0 34.5 -12.5t22.5 -28.5l22 -59q6 -20 -4.5 -35t-30.5 -15h-20zM582 16q8 0 8 -8t-8 -8h-434q-25 0 -43 18t-18 43v628q0 25 18 43t43 18h419q8 0 8 -8t-8 -8h-291q-25 0 -43 -18t-18 -43v-218
q0 -25 18 -43t43 -18h272q7 0 7 -7t-7 -7h-272q-25 0 -43 -18t-18 -43v-242q0 -25 18 -43t43 -18h306z" />
    <glyph glyph-name="Eacute" unicode="&#xc9;" horiz-adv-x="640" 
d="M332 830q-21 0 -32 15t-4 35l21 59q5 16 23 28.5t35 12.5h31q26 0 37.5 -20.5t-3.5 -42.5l-38 -59q-6 -10 -23 -19t-28 -9h-19zM582 16q8 0 8 -8t-8 -8h-434q-25 0 -43 18t-18 43v628q0 25 18 43t43 18h419q8 0 8 -8t-8 -8h-291q-25 0 -43 -18t-18 -43v-218q0 -25 18 -43
t43 -18h272q7 0 7 -7t-7 -7h-272q-25 0 -43 -18t-18 -43v-242q0 -25 18 -43t43 -18h306z" />
    <glyph glyph-name="Ecircumflex" unicode="&#xca;" horiz-adv-x="640" 
d="M340 887q-7 4 -9 2.5t-7 -6.5l-40 -37q-5 -4 -20 -10t-22 -6h-28q-18 0 -25 14t3 28l63 83q6 9 22.5 17t26.5 8h54q10 0 26.5 -8t22.5 -17l63 -83q10 -14 3 -28t-24 -14h-22h-31q-10 13 -20 24q-9 11 -18.5 20t-17.5 13zM582 16q8 0 8 -8t-8 -8h-434q-25 0 -43 18t-18 43
v628q0 25 18 43t43 18h419q8 0 8 -8t-8 -8h-291q-25 0 -43 -18t-18 -43v-218q0 -25 18 -43t43 -18h272q7 0 7 -7t-7 -7h-272q-25 0 -43 -18t-18 -43v-242q0 -25 18 -43t43 -18h306z" />
    <glyph glyph-name="Edieresis" unicode="&#xcb;" horiz-adv-x="640" 
d="M410 830q-25 0 -43 18t-18 43v3q0 25 18 43t43 18h3q25 0 43 -18t18 -43v-3q0 -25 -18 -43t-43 -18h-3zM249 830q-25 0 -43 18t-18 43v3q0 25 18 43t43 18h3q25 0 43 -18t18 -43v-3q0 -25 -18 -43t-43 -18h-3zM582 16q8 0 8 -8t-8 -8h-434q-25 0 -43 18t-18 43v628
q0 25 18 43t43 18h419q8 0 8 -8t-8 -8h-291q-25 0 -43 -18t-18 -43v-218q0 -25 18 -43t43 -18h272q7 0 7 -7t-7 -7h-272q-25 0 -43 -18t-18 -43v-242q0 -25 18 -43t43 -18h306z" />
    <glyph glyph-name="Igrave" unicode="&#xcc;" horiz-adv-x="301" 
d="M133 830q-11 0 -28 9t-23 19l-39 59q-14 22 -3 42.5t37 20.5h32q17 0 34.5 -12.5t22.5 -28.5l22 -59q6 -20 -4.5 -35t-30.5 -15h-20zM216 61q0 -25 -18 -43t-43 -18h-6q-25 0 -43 18t-18 43v628q0 25 18 43t43 18h6q25 0 43 -18t18 -43v-628z" />
    <glyph glyph-name="Iacute" unicode="&#xcd;" horiz-adv-x="301" 
d="M153 830q-21 0 -32 15t-4 35l21 59q5 16 23 28.5t35 12.5h31q26 0 37.5 -20.5t-3.5 -42.5l-38 -59q-6 -10 -23 -19t-28 -9h-19zM216 61q0 -25 -18 -43t-43 -18h-6q-25 0 -43 18t-18 43v628q0 25 18 43t43 18h6q25 0 43 -18t18 -43v-628z" />
    <glyph glyph-name="Icircumflex" unicode="&#xce;" horiz-adv-x="301" 
d="M161 887q-7 4 -9 2.5t-7 -6.5l-40 -37q-5 -4 -20 -10t-22 -6h-28q-18 0 -25 14t3 28l63 83q6 9 22.5 17t26.5 8h54q10 0 26.5 -8t22.5 -17l63 -83q10 -14 3 -28t-24 -14h-22h-31q-10 13 -20 24q-9 11 -18.5 20t-17.5 13zM216 61q0 -25 -18 -43t-43 -18h-6q-25 0 -43 18
t-18 43v628q0 25 18 43t43 18h6q25 0 43 -18t18 -43v-628z" />
    <glyph glyph-name="Idieresis" unicode="&#xcf;" horiz-adv-x="301" 
d="M231 830q-25 0 -43 18t-18 43v3q0 25 18 43t43 18h3q25 0 43 -18t18 -43v-3q0 -25 -18 -43t-43 -18h-3zM70 830q-25 0 -43 18t-18 43v3q0 25 18 43t43 18h3q25 0 43 -18t18 -43v-3q0 -25 -18 -43t-43 -18h-3zM216 61q0 -25 -18 -43t-43 -18h-6q-25 0 -43 18t-18 43v628
q0 25 18 43t43 18h6q25 0 43 -18t18 -43v-628z" />
    <glyph glyph-name="Ntilde" unicode="&#xd1;" horiz-adv-x="668" 
d="M270 851q-1 -8 -7.5 -14.5t-13.5 -6.5l-22 1q-20 0 -31 10.5t-8 30.5q6 46 25 76.5t49 38.5q21 6 23 -19l1 -12v0q-1 14 -2 23.5t-2 9.5q19 0 41 -11.5t40 -26t31 -26.5t14 -14q4 -4 2.5 -2.5t3.5 4.5q11 8 14 46q1 8 7.5 14.5t14.5 6.5h22q20 0 31 -10.5t8 -30.5
q-5 -43 -22.5 -72t-43.5 -40q-16 -7 -23 -0.5t-9 23.5l-1 16l-4 45q2 -25 3 -45q2 -18 3 -31.5t2 -13.5q-20 0 -37.5 12t-33 27t-29 27t-26.5 12q-8 0 -13.5 -13t-6.5 -35zM134 11q0 -10 -9 -10q-10 0 -10 10v679q0 25 18 43t43 18h41q16 0 33.5 -11.5t23.5 -26.5l173 -411
q9 -22 29 -30.5t39.5 -4.5t34.5 19.5t15 39.5v416q0 9 10 9q9 0 9 -9v-680q0 -25 -18 -43t-43 -18h-51q-16 0 -33.5 11.5t-23.5 26.5l-163 387q-9 22 -29 30.5t-39.5 4.5t-34.5 -19.5t-15 -39.5v-391z" />
    <glyph glyph-name="Ograve" unicode="&#xd2;" horiz-adv-x="814" 
d="M389 830q-11 0 -28 9t-23 19l-39 59q-14 22 -3 42.5t37 20.5h32q17 0 34.5 -12.5t22.5 -28.5l22 -59q6 -20 -4.5 -35t-30.5 -15h-20zM194 375q0 -83 15.5 -151t43.5 -116t67.5 -74.5t87.5 -26.5t87.5 26.5t67.5 74.5t43.5 116t15.5 151q0 79 -16.5 146t-45 116.5
t-67.5 77.5t-85 28t-85 -28t-67.5 -77.5t-45 -116.5t-16.5 -146zM57 375q0 82 26.5 152.5t74 122t111.5 80.5t139 29t139 -29t111.5 -80.5t74 -122t26.5 -152.5q0 -86 -25 -157t-71 -121.5t-111 -78t-144 -27.5t-144 27.5t-111 78t-71 121.5t-25 157z" />
    <glyph glyph-name="Oacute" unicode="&#xd3;" horiz-adv-x="814" 
d="M409 830q-21 0 -32 15t-4 35l21 59q5 16 23 28.5t35 12.5h31q26 0 37.5 -20.5t-3.5 -42.5l-38 -59q-6 -10 -23 -19t-28 -9h-19zM194 375q0 -83 15.5 -151t43.5 -116t67.5 -74.5t87.5 -26.5t87.5 26.5t67.5 74.5t43.5 116t15.5 151q0 79 -16.5 146t-45 116.5t-67.5 77.5
t-85 28t-85 -28t-67.5 -77.5t-45 -116.5t-16.5 -146zM57 375q0 82 26.5 152.5t74 122t111.5 80.5t139 29t139 -29t111.5 -80.5t74 -122t26.5 -152.5q0 -86 -25 -157t-71 -121.5t-111 -78t-144 -27.5t-144 27.5t-111 78t-71 121.5t-25 157z" />
    <glyph glyph-name="Ocircumflex" unicode="&#xd4;" horiz-adv-x="814" 
d="M417 887q-7 4 -9 2.5t-7 -6.5l-40 -37q-5 -4 -20 -10t-22 -6h-28q-18 0 -25 14t3 28l63 83q6 9 22.5 17t26.5 8h54q10 0 26.5 -8t22.5 -17l63 -83q10 -14 3 -28t-24 -14h-22h-31q-10 13 -20 24q-9 11 -18.5 20t-17.5 13zM194 375q0 -83 15.5 -151t43.5 -116t67.5 -74.5
t87.5 -26.5t87.5 26.5t67.5 74.5t43.5 116t15.5 151q0 79 -16.5 146t-45 116.5t-67.5 77.5t-85 28t-85 -28t-67.5 -77.5t-45 -116.5t-16.5 -146zM57 375q0 82 26.5 152.5t74 122t111.5 80.5t139 29t139 -29t111.5 -80.5t74 -122t26.5 -152.5q0 -86 -25 -157t-71 -121.5
t-111 -78t-144 -27.5t-144 27.5t-111 78t-71 121.5t-25 157z" />
    <glyph glyph-name="Otilde" unicode="&#xd5;" horiz-adv-x="814" 
d="M329 851q-1 -8 -7.5 -14.5t-13.5 -6.5l-22 1q-20 0 -31 10.5t-8 30.5q6 46 25 76.5t49 38.5q21 6 23 -19l1 -12v0q-1 14 -2 23.5t-2 9.5q19 0 41 -11.5t40 -26t31 -26.5t14 -14q4 -4 2.5 -2.5t3.5 4.5q11 8 14 46q1 8 7.5 14.5t14.5 6.5h22q20 0 31 -10.5t8 -30.5
q-5 -43 -22.5 -72t-43.5 -40q-16 -7 -23 -0.5t-9 23.5l-1 16l-4 45q2 -25 3 -45q2 -18 3 -31.5t2 -13.5q-20 0 -37.5 12t-33 27t-29 27t-26.5 12q-8 0 -13.5 -13t-6.5 -35zM195 376q0 -83 15.5 -151t43.5 -116t67.5 -74.5t87.5 -26.5t87.5 26.5t67.5 74.5t43.5 116t15.5 151
q0 79 -16.5 146t-45 116.5t-67.5 77.5t-85 28t-85 -28t-67.5 -77.5t-45 -116.5t-16.5 -146zM58 376q0 82 26.5 152.5t74 122t111.5 80.5t139 29t139 -29t111.5 -80.5t74 -122t26.5 -152.5q0 -86 -25 -157t-71 -121.5t-111 -78t-144 -27.5t-144 27.5t-111 78t-71 121.5
t-25 157z" />
    <glyph glyph-name="Odieresis" unicode="&#xd6;" horiz-adv-x="814" 
d="M487 830q-25 0 -43 18t-18 43v3q0 25 18 43t43 18h3q25 0 43 -18t18 -43v-3q0 -25 -18 -43t-43 -18h-3zM326 830q-25 0 -43 18t-18 43v3q0 25 18 43t43 18h3q25 0 43 -18t18 -43v-3q0 -25 -18 -43t-43 -18h-3zM194 375q0 -83 15.5 -151t43.5 -116t67.5 -74.5t87.5 -26.5
t87.5 26.5t67.5 74.5t43.5 116t15.5 151q0 79 -16.5 146t-45 116.5t-67.5 77.5t-85 28t-85 -28t-67.5 -77.5t-45 -116.5t-16.5 -146zM57 375q0 82 26.5 152.5t74 122t111.5 80.5t139 29t139 -29t111.5 -80.5t74 -122t26.5 -152.5q0 -86 -25 -157t-71 -121.5t-111 -78
t-144 -27.5t-144 27.5t-111 78t-71 121.5t-25 157z" />
    <glyph glyph-name="Oslash" unicode="&#xd8;" horiz-adv-x="814" 
d="M56 375q0 82 26.5 152.5t73.5 122t111 80.5t139 29q52 0 98.5 -13.5t86.5 -39.5q11 -8 29.5 -6.5t27.5 11.5l21 26q5 7 21.5 14.5t25.5 7.5h7q11 0 15.5 -9.5t-2.5 -17.5l-44 -54q-10 -12 -9.5 -36t9.5 -37q32 -48 49.5 -106t17.5 -124q0 -86 -25 -157t-71 -121.5
t-111 -78t-144 -27.5q-107 0 -188 50q-12 7 -29.5 6t-26.5 -12l-18 -22q-5 -7 -21.5 -14.5t-25.5 -7.5h-6q-12 0 -16.5 9.5t3.5 17.5l40 50q5 6 7 15.5t2 20t-2.5 20t-6.5 16.5q-31 47 -47 106t-16 129h-1zM545 586q11 14 13.5 31.5t-7.5 32.5q-28 44 -65 68.5t-80 24.5
q-46 0 -85 -28t-67.5 -77.5t-45 -116.5t-16.5 -146q0 -86 17 -158q3 -10 11 -12.5t15 4.5zM601 530q-2 10 -11 12.5t-15 -5.5l-311 -378q-11 -14 -13.5 -31t6.5 -32q29 -43 66 -66.5t83 -23.5q48 0 87.5 26.5t67.5 74.5t43.5 116t15.5 151q0 42 -5 81t-14 75z" />
    <glyph glyph-name="Ugrave" unicode="&#xd9;" horiz-adv-x="704" 
d="M333 821q-11 0 -28 9t-23 19l-39 59q-14 22 -3 42.5t37 20.5h32q17 0 34.5 -12.5t22.5 -28.5l22 -59q6 -20 -4.5 -35t-30.5 -15h-20zM605 741q0 9 10 9q9 0 9 -9v-447q0 -151 -68 -227t-204 -76q-272 0 -272 298v400q0 25 18 43t43 18h6q25 0 43 -18t18 -43v-377
q0 -151 36 -227t108 -76q253 0 253 289v443z" />
    <glyph glyph-name="Uacute" unicode="&#xda;" horiz-adv-x="704" 
d="M353 821q-21 0 -32 15t-4 35l21 59q5 16 23 28.5t35 12.5h31q26 0 37.5 -20.5t-3.5 -42.5l-38 -59q-6 -10 -23 -19t-28 -9h-19zM605 741q0 9 10 9q9 0 9 -9v-447q0 -151 -68 -227t-204 -76q-272 0 -272 298v400q0 25 18 43t43 18h6q25 0 43 -18t18 -43v-377
q0 -151 36 -227t108 -76q253 0 253 289v443z" />
    <glyph glyph-name="Ucircumflex" unicode="&#xdb;" horiz-adv-x="704" 
d="M361 878q-7 4 -9 2.5t-7 -6.5l-40 -37q-5 -4 -20 -10t-22 -6h-28q-18 0 -25 14t3 28l63 83q6 9 22.5 17t26.5 8h54q10 0 26.5 -8t22.5 -17l63 -83q10 -14 3 -28t-24 -14h-22h-31q-10 13 -20 24q-9 11 -18.5 20t-17.5 13zM605 741q0 9 10 9q9 0 9 -9v-447q0 -151 -68 -227
t-204 -76q-272 0 -272 298v400q0 25 18 43t43 18h6q25 0 43 -18t18 -43v-377q0 -151 36 -227t108 -76q253 0 253 289v443z" />
    <glyph glyph-name="Udieresis" unicode="&#xdc;" horiz-adv-x="704" 
d="M431 821q-25 0 -43 18t-18 43v3q0 25 18 43t43 18h3q25 0 43 -18t18 -43v-3q0 -25 -18 -43t-43 -18h-3zM270 821q-25 0 -43 18t-18 43v3q0 25 18 43t43 18h3q25 0 43 -18t18 -43v-3q0 -25 -18 -43t-43 -18h-3zM605 741q0 9 10 9q9 0 9 -9v-447q0 -151 -68 -227t-204 -76
q-272 0 -272 298v400q0 25 18 43t43 18h6q25 0 43 -18t18 -43v-377q0 -151 36 -227t108 -76q253 0 253 289v443z" />
    <glyph glyph-name="Yacute" unicode="&#xdd;" horiz-adv-x="600" 
d="M304 830q-21 0 -31.5 15t-4.5 35l22 59q5 16 22.5 28.5t34.5 12.5h32q26 0 37 -20.5t-3 -42.5l-39 -59q-6 -10 -23 -19t-28 -9h-19zM133 750q5 0 10.5 -3.5t7.5 -7.5l8 -14t7 -13q4 -7 7 -13l174 -315q4 -7 13 -7q8 1 12 8l179 328q4 7 11.5 21t8.5 16q2 3 4 1.5t6 -1.5
q9 0 4 -8l-196 -357q-2 -3 -5 -15t-3 -15v-294q0 -25 -18 -43t-43 -18h-6q-25 0 -43 18t-18 43v253q0 3 -3 15t-5 15l-200 356l-4 8q-3 4 -5.5 9t-5.5 10l-6 12q-3 4 -1 7.5t7 3.5h103z" />
    <glyph glyph-name="Thorn" unicode="&#xde;" horiz-adv-x="624" 
d="M215 61q0 -25 -18 -43t-43 -18h-6q-25 0 -43 18t-18 43v628q0 25 18 43t43 18h6q25 0 43 -18t18 -43v-33q0 -24 16 -40t40 -16h55q263 0 263 -225q0 -112 -66 -168.5t-197 -56.5h-55q-24 0 -40 -16t-16 -39v-34zM215 221q0 -23 16.5 -39.5t39.5 -16.5h56q134 0 134 210
t-136 210h-55q-23 0 -39 -16t-16 -39v-309z" />
    <glyph glyph-name="agrave" unicode="&#xe0;" 
d="M257 600q-11 0 -28 9t-23 19l-39 59q-14 22 -3 42.5t37 20.5h32q17 0 34.5 -12.5t22.5 -28.5l22 -59q6 -20 -4.5 -35t-30.5 -15h-20zM85 381q-8 2 -6 9q23 63 76.5 101t120.5 38q45 0 81.5 -10.5t62.5 -34t40.5 -60t14.5 -88.5v-226q0 -14 3 -19t19 -6q9 0 16 -6.5
t7 -14.5v-21q0 -18 -12 -30.5t-30 -12.5q-42 1 -66 4.5t-35.5 15t-14 33t-2.5 57.5v8h-0.5t-0.5 -1q-15 -72 -53.5 -99t-94.5 -27q-92 0 -131.5 29t-39.5 76q0 67 46.5 108t124.5 41q33 0 60.5 6.5t47 22.5t30.5 43t11 68q0 71 -23 100.5t-61 29.5q-61 0 -110 -36t-71 -95
q-2 -6 -10 -3zM360 282q0 4 -5.5 5.5t-7.5 -1.5q-19 -30 -51 -41t-74 -11q-30 0 -48.5 -36.5t-18.5 -96.5q0 -45 14 -71.5t47 -26.5q30 0 55 8t44 27.5t30.5 51.5t14.5 81v111z" />
    <glyph glyph-name="aacute" unicode="&#xe1;" 
d="M277 600q-21 0 -32 15t-4 35l21 59q5 16 23 28.5t35 12.5h31q26 0 37.5 -20.5t-3.5 -42.5l-38 -59q-6 -10 -23 -19t-28 -9h-19zM85 381q-8 2 -6 9q23 63 76.5 101t120.5 38q45 0 81.5 -10.5t62.5 -34t40.5 -60t14.5 -88.5v-226q0 -14 3 -19t19 -6q9 0 16 -6.5t7 -14.5
v-21q0 -18 -12 -30.5t-30 -12.5q-42 1 -66 4.5t-35.5 15t-14 33t-2.5 57.5v8h-0.5t-0.5 -1q-15 -72 -53.5 -99t-94.5 -27q-92 0 -131.5 29t-39.5 76q0 67 46.5 108t124.5 41q33 0 60.5 6.5t47 22.5t30.5 43t11 68q0 71 -23 100.5t-61 29.5q-61 0 -110 -36t-71 -95
q-2 -6 -10 -3zM360 282q0 4 -5.5 5.5t-7.5 -1.5q-19 -30 -51 -41t-74 -11q-30 0 -48.5 -36.5t-18.5 -96.5q0 -45 14 -71.5t47 -26.5q30 0 55 8t44 27.5t30.5 51.5t14.5 81v111z" />
    <glyph glyph-name="acircumflex" unicode="&#xe2;" 
d="M285 657q-7 4 -9 2.5t-7 -6.5l-40 -37q-5 -4 -20 -10t-22 -6h-28q-18 0 -25 14t3 28l63 83q6 9 22.5 17t26.5 8h54q10 0 26.5 -8t22.5 -17l63 -83q10 -14 3 -28t-24 -14h-22h-31q-10 13 -20 24q-9 11 -18.5 20t-17.5 13zM85 381q-8 2 -6 9q23 63 76.5 101t120.5 38
q45 0 81.5 -10.5t62.5 -34t40.5 -60t14.5 -88.5v-226q0 -14 3 -19t19 -6q9 0 16 -6.5t7 -14.5v-21q0 -18 -12 -30.5t-30 -12.5q-42 1 -66 4.5t-35.5 15t-14 33t-2.5 57.5v8h-0.5t-0.5 -1q-15 -72 -53.5 -99t-94.5 -27q-92 0 -131.5 29t-39.5 76q0 67 46.5 108t124.5 41
q33 0 60.5 6.5t47 22.5t30.5 43t11 68q0 71 -23 100.5t-61 29.5q-61 0 -110 -36t-71 -95q-2 -6 -10 -3zM360 282q0 4 -5.5 5.5t-7.5 -1.5q-19 -30 -51 -41t-74 -11q-30 0 -48.5 -36.5t-18.5 -96.5q0 -45 14 -71.5t47 -26.5q30 0 55 8t44 27.5t30.5 51.5t14.5 81v111z" />
    <glyph glyph-name="atilde" unicode="&#xe3;" 
d="M197 621q-1 -8 -7.5 -14.5t-13.5 -6.5l-22 1q-20 0 -31 10.5t-8 30.5q6 46 25 76.5t49 38.5q21 6 23 -19l1 -12v0q-1 14 -2 23.5t-2 9.5q19 0 41 -11.5t40 -26t31 -26.5t14 -14q4 -4 2.5 -2.5t3.5 4.5q11 8 14 46q1 8 7.5 14.5t14.5 6.5h22q20 0 31 -10.5t8 -30.5
q-5 -43 -22.5 -72t-43.5 -40q-16 -7 -23 -0.5t-9 23.5l-1 16l-4 45q2 -25 3 -45q2 -18 3 -31.5t2 -13.5q-20 0 -37.5 12t-33 27t-29 27t-26.5 12q-8 0 -13.5 -13t-6.5 -35zM86 382q-8 2 -6 9q23 63 76.5 101t120.5 38q45 0 81.5 -10.5t62.5 -34t40.5 -60t14.5 -88.5v-226
q0 -14 3 -19t19 -6q9 0 16 -6.5t7 -14.5v-21q0 -18 -12 -30.5t-30 -12.5q-42 1 -66 4.5t-35.5 15t-14 33t-2.5 57.5v8h-0.5t-0.5 -1q-15 -72 -53.5 -99t-94.5 -27q-92 0 -131.5 29t-39.5 76q0 67 46.5 108t124.5 41q33 0 60.5 6.5t47 22.5t30.5 43t11 68q0 71 -23 100.5
t-61 29.5q-61 0 -110 -36t-71 -95q-2 -6 -10 -3zM361 283q0 4 -5.5 5.5t-7.5 -1.5q-19 -30 -51 -41t-74 -11q-30 0 -48.5 -36.5t-18.5 -96.5q0 -45 14 -71.5t47 -26.5q30 0 55 8t44 27.5t30.5 51.5t14.5 81v111z" />
    <glyph glyph-name="adieresis" unicode="&#xe4;" 
d="M385 600q-25 0 -43 18t-18 43v3q0 25 18 43t43 18h3q25 0 43 -18t18 -43v-3q0 -25 -18 -43t-43 -18h-3zM165 600q-25 0 -43 18t-18 43v3q0 25 18 43t43 18h3q25 0 43 -18t18 -43v-3q0 -25 -18 -43t-43 -18h-3zM85 381q-8 2 -6 9q23 63 76.5 101t120.5 38q45 0 81.5 -10.5
t62.5 -34t40.5 -60t14.5 -88.5v-226q0 -14 3 -19t19 -6q9 0 16 -6.5t7 -14.5v-21q0 -18 -12 -30.5t-30 -12.5q-42 1 -66 4.5t-35.5 15t-14 33t-2.5 57.5v8h-0.5t-0.5 -1q-15 -72 -53.5 -99t-94.5 -27q-92 0 -131.5 29t-39.5 76q0 67 46.5 108t124.5 41q33 0 60.5 6.5
t47 22.5t30.5 43t11 68q0 71 -23 100.5t-61 29.5q-61 0 -110 -36t-71 -95q-2 -6 -10 -3zM360 282q0 4 -5.5 5.5t-7.5 -1.5q-19 -30 -51 -41t-74 -11q-30 0 -48.5 -36.5t-18.5 -96.5q0 -45 14 -71.5t47 -26.5q30 0 55 8t44 27.5t30.5 51.5t14.5 81v111z" />
    <glyph glyph-name="aring" unicode="&#xe5;" 
d="M248 685q0 -32 28 -32q29 0 29 32q0 31 -29 31q-28 0 -28 -31zM191 685q0 40 22 62t63 22t63.5 -22t22.5 -62q0 -85 -86 -85q-85 0 -85 85zM85 381q-8 2 -6 9q23 63 76.5 101t120.5 38q45 0 81.5 -10.5t62.5 -34t40.5 -60t14.5 -88.5v-226q0 -14 3 -19t19 -6q9 0 16 -6.5
t7 -14.5v-21q0 -18 -12 -30.5t-30 -12.5q-42 1 -66 4.5t-35.5 15t-14 33t-2.5 57.5v8h-0.5t-0.5 -1q-15 -72 -53.5 -99t-94.5 -27q-92 0 -131.5 29t-39.5 76q0 67 46.5 108t124.5 41q33 0 60.5 6.5t47 22.5t30.5 43t11 68q0 71 -23 100.5t-61 29.5q-61 0 -110 -36t-71 -95
q-2 -6 -10 -3zM360 282q0 4 -5.5 5.5t-7.5 -1.5q-19 -30 -51 -41t-74 -11q-30 0 -48.5 -36.5t-18.5 -96.5q0 -45 14 -71.5t47 -26.5q30 0 55 8t44 27.5t30.5 51.5t14.5 81v111z" />
    <glyph glyph-name="ccedilla" unicode="&#xe7;" horiz-adv-x="532" 
d="M228 -105q-3 1 -2 3l24 47q8 18 -4 37.5t-30 25.5q-77 24 -120.5 85.5t-43.5 166.5q0 70 20 120.5t57 83.5t89 49t115 16q49 0 91 -41.5t76 -110.5q1 -2 1.5 -5t-1.5 -4l-3 -2l-5 -2q-2 -1 -4.5 1t-2.5 4q-34 66 -72 106.5t-81 40.5q-70 0 -113 -61.5t-43 -194.5
q0 -132 43 -193.5t113 -61.5q46 0 87.5 35.5t65.5 94.5q2 6 10 2t6 -10q-25 -62 -70.5 -99t-98.5 -37q-24 0 -45 2q-9 1 -13 -7l-37 -78v-1.5t1 -0.5q10 10 27 10q45 0 72 -16.5t27 -42.5q0 -48 -27.5 -77.5t-72.5 -29.5q-23 0 -34.5 20.5t-8.5 54.5q0 3 3 6t3 -1
q0 -11 9.5 -18t24.5 -7q17 0 27.5 14.5t10.5 37.5t-9.5 37t-25.5 14q-24 0 -32 -11q-2 -3 -4 -2z" />
    <glyph glyph-name="egrave" unicode="&#xe8;" horiz-adv-x="538" 
d="M268 600q-11 0 -28 9t-23 19l-39 59q-14 22 -3 42.5t37 20.5h32q17 0 34.5 -12.5t22.5 -28.5l22 -59q6 -20 -4.5 -35t-30.5 -15h-20zM490 134q2 6 10 3q7 -4 5 -10q-9 -31 -30 -56t-51 -43t-67 -27.5t-79 -9.5q-51 0 -93.5 16t-72.5 49t-46.5 83.5t-16.5 120.5t17 120.5
t48 83.5t75 49t97 16q56 0 97.5 -15.5t70 -44t44.5 -69t22 -90.5q3 -28 -13.5 -44t-44.5 -16h-226q-27 0 -44.5 -16t-14.5 -43q7 -96 34.5 -141t67.5 -45q78 0 135.5 35t75.5 94zM346 262q28 0 44.5 18.5t14.5 46.5q-8 88 -36 138.5t-83 50.5q-44 0 -73.5 -46t-36.5 -147
q-2 -27 15 -44t44 -17h111z" />
    <glyph glyph-name="eacute" unicode="&#xe9;" horiz-adv-x="538" 
d="M288 600q-21 0 -32 15t-4 35l21 59q5 16 23 28.5t35 12.5h31q26 0 37.5 -20.5t-3.5 -42.5l-38 -59q-6 -10 -23 -19t-28 -9h-19zM490 134q2 6 10 3q7 -4 5 -10q-9 -31 -30 -56t-51 -43t-67 -27.5t-79 -9.5q-51 0 -93.5 16t-72.5 49t-46.5 83.5t-16.5 120.5t17 120.5
t48 83.5t75 49t97 16q56 0 97.5 -15.5t70 -44t44.5 -69t22 -90.5q3 -28 -13.5 -44t-44.5 -16h-226q-27 0 -44.5 -16t-14.5 -43q7 -96 34.5 -141t67.5 -45q78 0 135.5 35t75.5 94zM346 262q28 0 44.5 18.5t14.5 46.5q-8 88 -36 138.5t-83 50.5q-44 0 -73.5 -46t-36.5 -147
q-2 -27 15 -44t44 -17h111z" />
    <glyph glyph-name="ecircumflex" unicode="&#xea;" horiz-adv-x="538" 
d="M296 657q-7 4 -9 2.5t-7 -6.5l-40 -37q-5 -4 -20 -10t-22 -6h-28q-18 0 -25 14t3 28l63 83q6 9 22.5 17t26.5 8h54q10 0 26.5 -8t22.5 -17l63 -83q10 -14 3 -28t-24 -14h-22h-31q-10 13 -20 24q-9 11 -18.5 20t-17.5 13zM490 134q2 6 10 3q7 -4 5 -10q-9 -31 -30 -56
t-51 -43t-67 -27.5t-79 -9.5q-51 0 -93.5 16t-72.5 49t-46.5 83.5t-16.5 120.5t17 120.5t48 83.5t75 49t97 16q56 0 97.5 -15.5t70 -44t44.5 -69t22 -90.5q3 -28 -13.5 -44t-44.5 -16h-226q-27 0 -44.5 -16t-14.5 -43q7 -96 34.5 -141t67.5 -45q78 0 135.5 35t75.5 94z
M346 262q28 0 44.5 18.5t14.5 46.5q-8 88 -36 138.5t-83 50.5q-44 0 -73.5 -46t-36.5 -147q-2 -27 15 -44t44 -17h111z" />
    <glyph glyph-name="edieresis" unicode="&#xeb;" horiz-adv-x="538" 
d="M366 600q-25 0 -43 18t-18 43v3q0 25 18 43t43 18h3q25 0 43 -18t18 -43v-3q0 -25 -18 -43t-43 -18h-3zM205 600q-25 0 -43 18t-18 43v3q0 25 18 43t43 18h3q25 0 43 -18t18 -43v-3q0 -25 -18 -43t-43 -18h-3zM490 134q2 6 10 3q7 -4 5 -10q-9 -31 -30 -56t-51 -43
t-67 -27.5t-79 -9.5q-51 0 -93.5 16t-72.5 49t-46.5 83.5t-16.5 120.5t17 120.5t48 83.5t75 49t97 16q56 0 97.5 -15.5t70 -44t44.5 -69t22 -90.5q3 -28 -13.5 -44t-44.5 -16h-226q-27 0 -44.5 -16t-14.5 -43q7 -96 34.5 -141t67.5 -45q78 0 135.5 35t75.5 94zM346 262
q28 0 44.5 18.5t14.5 46.5q-8 88 -36 138.5t-83 50.5q-44 0 -73.5 -46t-36.5 -147q-2 -27 15 -44t44 -17h111z" />
    <glyph glyph-name="igrave" unicode="&#xec;" horiz-adv-x="295" 
d="M148 600q-11 0 -28 9t-23 19l-39 59q-14 22 -3 42.5t37 20.5h32q17 0 34.5 -12.5t22.5 -28.5l22 -59q6 -20 -4.5 -35t-30.5 -15h-20zM168 0q-24 0 -41 17t-17 41v405q0 23 17 40t41 17q23 0 40 -17t17 -40v-405q0 -24 -17 -41t-40 -17z" />
    <glyph glyph-name="iacute" unicode="&#xed;" horiz-adv-x="295" 
d="M168 600q-21 0 -32 15t-4 35l21 59q5 16 23 28.5t35 12.5h31q26 0 37.5 -20.5t-3.5 -42.5l-38 -59q-6 -10 -23 -19t-28 -9h-19zM168 0q-24 0 -41 17t-17 41v405q0 23 17 40t41 17q23 0 40 -17t17 -40v-405q0 -24 -17 -41t-40 -17z" />
    <glyph glyph-name="icircumflex" unicode="&#xee;" horiz-adv-x="295" 
d="M176 657q-7 4 -9 2.5t-7 -6.5l-40 -37q-5 -4 -20 -10t-22 -6h-28q-18 0 -25 14t3 28l63 83q6 9 22.5 17t26.5 8h54q10 0 26.5 -8t22.5 -17l63 -83q10 -14 3 -28t-24 -14h-22h-31q-10 13 -20 24q-9 11 -18.5 20t-17.5 13zM168 0q-24 0 -41 17t-17 41v405q0 23 17 40t41 17
q23 0 40 -17t17 -40v-405q0 -24 -17 -41t-40 -17z" />
    <glyph glyph-name="idieresis" unicode="&#xef;" horiz-adv-x="295" 
d="M276 600q-25 0 -43 18t-18 43v3q0 25 18 43t43 18h3q25 0 43 -18t18 -43v-3q0 -25 -18 -43t-43 -18h-3zM56 600q-25 0 -43 18t-18 43v3q0 25 18 43t43 18h3q25 0 43 -18t18 -43v-3q0 -25 -18 -43t-43 -18h-3zM168 0q-24 0 -41 17t-17 41v405q0 23 17 40t41 17
q23 0 40 -17t17 -40v-405q0 -24 -17 -41t-40 -17z" />
    <glyph glyph-name="ntilde" unicode="&#xf1;" 
d="M199 621q-1 -8 -7.5 -14.5t-13.5 -6.5l-22 1q-20 0 -31 10.5t-8 30.5q6 46 25 76.5t49 38.5q21 6 23 -19l1 -12v0q-1 14 -2 23.5t-2 9.5q19 0 41 -11.5t40 -26t31 -26.5t14 -14q4 -4 2.5 -2.5t3.5 4.5q11 8 14 46q1 8 7.5 14.5t14.5 6.5h22q20 0 31 -10.5t8 -30.5
q-5 -43 -22.5 -72t-43.5 -40q-16 -7 -23 -0.5t-9 23.5l-1 16l-4 45q2 -25 3 -45q2 -18 3 -31.5t2 -13.5q-20 0 -37.5 12t-33 27t-29 27t-26.5 12q-8 0 -13.5 -13t-6.5 -35zM486 59q0 -24 -17 -41t-40 -17q-24 -1 -41 16t-17 41v257q0 97 -8 145.5t-21 48.5q-35 0 -64 -13.5
t-49.5 -38.5t-31.5 -60t-11 -77v-262q0 -24 -17 -41t-40 -17q-24 0 -41 17t-17 41v405q0 23 17 40t41 17q23 0 40 -17t17 -40v-36q0 -4 6 -5t8 3q20 47 58 74t90 27q63 0 100.5 -52.5t37.5 -157.5v-257z" />
    <glyph glyph-name="ograve" unicode="&#xf2;" horiz-adv-x="590" 
d="M276 600q-11 0 -28 9t-23 19l-39 59q-14 22 -3 42.5t37 20.5h32q17 0 34.5 -12.5t22.5 -28.5l22 -59q6 -20 -4.5 -35t-30.5 -15h-20zM175 260q0 -58 7 -105t22 -80.5t37.5 -52t53.5 -18.5q54 0 87 61.5t33 194.5q0 58 -7 105t-22 80.5t-37.5 52t-53.5 18.5
q-54 0 -87 -61.5t-33 -194.5zM50 260q0 70 17.5 120.5t50 83.5t77.5 49t100 16q63 0 109.5 -19.5t76.5 -54.5t44.5 -85t14.5 -110q0 -70 -17.5 -120.5t-50 -83.5t-77.5 -49t-100 -16q-63 0 -109.5 19.5t-76.5 54.5t-44.5 85t-14.5 110z" />
    <glyph glyph-name="oacute" unicode="&#xf3;" horiz-adv-x="590" 
d="M296 600q-21 0 -32 15t-4 35l21 59q5 16 23 28.5t35 12.5h31q26 0 37.5 -20.5t-3.5 -42.5l-38 -59q-6 -10 -23 -19t-28 -9h-19zM175 260q0 -58 7 -105t22 -80.5t37.5 -52t53.5 -18.5q54 0 87 61.5t33 194.5q0 58 -7 105t-22 80.5t-37.5 52t-53.5 18.5q-54 0 -87 -61.5
t-33 -194.5zM50 260q0 70 17.5 120.5t50 83.5t77.5 49t100 16q63 0 109.5 -19.5t76.5 -54.5t44.5 -85t14.5 -110q0 -70 -17.5 -120.5t-50 -83.5t-77.5 -49t-100 -16q-63 0 -109.5 19.5t-76.5 54.5t-44.5 85t-14.5 110z" />
    <glyph glyph-name="ocircumflex" unicode="&#xf4;" horiz-adv-x="590" 
d="M304 657q-7 4 -9 2.5t-7 -6.5l-40 -37q-5 -4 -20 -10t-22 -6h-28q-18 0 -25 14t3 28l63 83q6 9 22.5 17t26.5 8h54q10 0 26.5 -8t22.5 -17l63 -83q10 -14 3 -28t-24 -14h-22h-31q-10 13 -20 24q-9 11 -18.5 20t-17.5 13zM175 260q0 -58 7 -105t22 -80.5t37.5 -52
t53.5 -18.5q54 0 87 61.5t33 194.5q0 58 -7 105t-22 80.5t-37.5 52t-53.5 18.5q-54 0 -87 -61.5t-33 -194.5zM50 260q0 70 17.5 120.5t50 83.5t77.5 49t100 16q63 0 109.5 -19.5t76.5 -54.5t44.5 -85t14.5 -110q0 -70 -17.5 -120.5t-50 -83.5t-77.5 -49t-100 -16
q-63 0 -109.5 19.5t-76.5 54.5t-44.5 85t-14.5 110z" />
    <glyph glyph-name="otilde" unicode="&#xf5;" horiz-adv-x="590" 
d="M216 621q-1 -8 -7.5 -14.5t-13.5 -6.5l-22 1q-20 0 -31 10.5t-8 30.5q6 46 25 76.5t49 38.5q21 6 23 -19l1 -12v0q-1 14 -2 23.5t-2 9.5q19 0 41 -11.5t40 -26t31 -26.5t14 -14q4 -4 2.5 -2.5t3.5 4.5q11 8 14 46q1 8 7.5 14.5t14.5 6.5h22q20 0 31 -10.5t8 -30.5
q-5 -43 -22.5 -72t-43.5 -40q-16 -7 -23 -0.5t-9 23.5l-1 16l-4 45q2 -25 3 -45q2 -18 3 -31.5t2 -13.5q-20 0 -37.5 12t-33 27t-29 27t-26.5 12q-8 0 -13.5 -13t-6.5 -35zM176 261q0 -58 7 -105t22 -80.5t37.5 -52t53.5 -18.5q54 0 87 61.5t33 194.5q0 58 -7 105t-22 80.5
t-37.5 52t-53.5 18.5q-54 0 -87 -61.5t-33 -194.5zM51 261q0 70 17.5 120.5t50 83.5t77.5 49t100 16q63 0 109.5 -19.5t76.5 -54.5t44.5 -85t14.5 -110q0 -70 -17.5 -120.5t-50 -83.5t-77.5 -49t-100 -16q-63 0 -109.5 19.5t-76.5 54.5t-44.5 85t-14.5 110z" />
    <glyph glyph-name="odieresis" unicode="&#xf6;" horiz-adv-x="590" 
d="M374 600q-25 0 -43 18t-18 43v3q0 25 18 43t43 18h3q25 0 43 -18t18 -43v-3q0 -25 -18 -43t-43 -18h-3zM213 600q-25 0 -43 18t-18 43v3q0 25 18 43t43 18h3q25 0 43 -18t18 -43v-3q0 -25 -18 -43t-43 -18h-3zM175 260q0 -58 7 -105t22 -80.5t37.5 -52t53.5 -18.5
q54 0 87 61.5t33 194.5q0 58 -7 105t-22 80.5t-37.5 52t-53.5 18.5q-54 0 -87 -61.5t-33 -194.5zM50 260q0 70 17.5 120.5t50 83.5t77.5 49t100 16q63 0 109.5 -19.5t76.5 -54.5t44.5 -85t14.5 -110q0 -70 -17.5 -120.5t-50 -83.5t-77.5 -49t-100 -16q-63 0 -109.5 19.5
t-76.5 54.5t-44.5 85t-14.5 110z" />
    <glyph glyph-name="oslash" unicode="&#xf8;" horiz-adv-x="590" 
d="M50 260q0 70 17.5 120.5t50 83.5t77.5 49t100 16q79 0 135 -32q8 -5 20 -4t17 8l7 9q5 6 19 12.5t22 6.5t11 -6.5t-2 -12.5l-24 -30q-7 -8 -6.5 -25t6.5 -26q20 -33 30 -76t10 -93q0 -70 -17.5 -120.5t-50 -83.5t-77.5 -49t-100 -16q-79 0 -135 32q-8 5 -20 4t-17 -8
l-7 -9q-5 -6 -19 -12.5t-22 -6.5t-11 6.5t2 12.5l24 30q7 8 6.5 25t-6.5 26q-20 33 -30 76t-10 93zM376 390q9 11 12 27t-2 29q-15 34 -37.5 52t-53.5 18q-54 0 -87 -61.5t-33 -194.5q0 -51 5 -90q0 -5 4.5 -6.5t7.5 2.5zM410 351q0 5 -4.5 6.5t-7.5 -2.5l-184 -225
q-9 -11 -12 -27t2 -29q15 -33 37.5 -51t53.5 -18q54 0 87 61.5t33 194.5q0 51 -5 90z" />
    <glyph glyph-name="ugrave" unicode="&#xf9;" 
d="M253 600q-11 0 -28 9t-23 19l-38 59q-15 22 -3.5 42.5t37.5 20.5h31q17 0 35 -12.5t23 -28.5l21 -59q7 -20 -4 -35t-31 -15h-20zM480 58q0 -24 -17 -41t-40 -17h-7q-21 0 -36 15t-15 36v16q0 3 -5 4t-7 -2q-17 -37 -49.5 -57.5t-76.5 -20.5q-47 0 -78.5 13.5t-50 39.5
t-26 65t-7.5 91v263q0 23 17 40t41 17q23 0 40 -17t17 -40v-263q0 -96 10.5 -144.5t41.5 -48.5q60 0 96.5 38.5t36.5 102.5v315q0 23 17 40t41 17q23 0 40 -17t17 -40v-405z" />
    <glyph glyph-name="uacute" unicode="&#xfa;" 
d="M273 600q-21 0 -31.5 15t-4.5 35l22 59q5 16 22.5 28.5t34.5 12.5h32q26 0 37 -20.5t-3 -42.5l-39 -59q-6 -10 -23 -19t-28 -9h-19zM480 58q0 -24 -17 -41t-40 -17h-7q-21 0 -36 15t-15 36v16q0 3 -5 4t-7 -2q-17 -37 -49.5 -57.5t-76.5 -20.5q-47 0 -78.5 13.5t-50 39.5
t-26 65t-7.5 91v263q0 23 17 40t41 17q23 0 40 -17t17 -40v-263q0 -96 10.5 -144.5t41.5 -48.5q60 0 96.5 38.5t36.5 102.5v315q0 23 17 40t41 17q23 0 40 -17t17 -40v-405z" />
    <glyph glyph-name="ucircumflex" unicode="&#xfb;" 
d="M282 657q-7 4 -9 2.5t-7 -6.5l-40 -37q-5 -4 -20 -10t-22 -6h-28q-18 0 -25 14t3 28l63 83q6 9 22.5 17t26.5 8h54q10 0 26.5 -8t22.5 -17l63 -83q10 -14 3 -28t-24 -14h-22h-31q-10 13 -20 24q-9 11 -18.5 20t-17.5 13zM480 58q0 -24 -17 -41t-40 -17h-7q-21 0 -36 15
t-15 36v16q0 3 -5 4t-7 -2q-17 -37 -49.5 -57.5t-76.5 -20.5q-47 0 -78.5 13.5t-50 39.5t-26 65t-7.5 91v263q0 23 17 40t41 17q23 0 40 -17t17 -40v-263q0 -96 10.5 -144.5t41.5 -48.5q60 0 96.5 38.5t36.5 102.5v315q0 23 17 40t41 17q23 0 40 -17t17 -40v-405z" />
    <glyph glyph-name="udieresis" unicode="&#xfc;" 
d="M351 600q-25 0 -43 18t-18 43v3q0 25 18 43t43 18h3q25 0 43 -18t18 -43v-3q0 -25 -18 -43t-43 -18h-3zM191 600q-25 0 -43 18t-18 43v3q0 25 18 43t43 18h3q25 0 43 -18t18 -43v-3q0 -25 -18 -43t-43 -18h-3zM480 58q0 -24 -17 -41t-40 -17h-7q-21 0 -36 15t-15 36v16
q0 3 -5 4t-7 -2q-17 -37 -49.5 -57.5t-76.5 -20.5q-47 0 -78.5 13.5t-50 39.5t-26 65t-7.5 91v263q0 23 17 40t41 17q23 0 40 -17t17 -40v-263q0 -96 10.5 -144.5t41.5 -48.5q60 0 96.5 38.5t36.5 102.5v315q0 23 17 40t41 17q23 0 40 -17t17 -40v-405z" />
    <glyph glyph-name="yacute" unicode="&#xfd;" horiz-adv-x="462" 
d="M232 600q-21 0 -32 15t-4 35l21 59q5 16 23 28.5t35 12.5h31q26 0 37.5 -20.5t-3.5 -42.5l-38 -59q-6 -10 -23 -19t-28 -9h-19zM243 -74q-13 -36 -26 -60.5t-30.5 -39t-39.5 -20.5t-53 -6h-42q-8 0 -8 7q0 8 8 8h42q27 0 47 5.5t35.5 19t28 36t24.5 56.5l3 7v8t-1 7
l-198 505q-9 24 3.5 42.5t37.5 18.5h52q5 0 10.5 -4t7.5 -8l5 -13l9 -24l75 -196q8 -21 24 -31t34 -10t34 11t23 32l68 198l13 36q3 9 13 9t7 -9l-146 -418l-59 -169z" />
    <glyph glyph-name="thorn" unicode="&#xfe;" horiz-adv-x="599" 
d="M128 750l29 -1q11 0 19.5 -9t8.5 -21v-308q0 -4 7 -6t8 2q23 63 64.5 92t98.5 29q42 0 76.5 -19.5t58.5 -54.5t37.5 -85t13.5 -110t-13.5 -110t-37.5 -85t-58.5 -54.5t-76.5 -19.5q-57 0 -98.5 29t-64.5 92q-1 4 -8 2t-7 -6v-300q0 -23 -17 -40t-40 -17q-24 0 -41 17
t-17 40v914q0 12 8.5 20.5t20.5 8.5h29zM185 258q0 -124 45.5 -181.5t120.5 -57.5q17 0 30 17t23 48.5t15 75.5t5 98q0 57 -5 104t-13.5 80.5t-21 52t-27.5 18.5q-77 0 -124.5 -61.5t-47.5 -193.5z" />
    <glyph glyph-name="ydieresis" unicode="&#xff;" horiz-adv-x="462" 
d="M310 600q-25 0 -43 18t-18 43v3q0 25 18 43t43 18h3q25 0 43 -18t18 -43v-3q0 -25 -18 -43t-43 -18h-3zM149 600q-25 0 -43 18t-18 43v3q0 25 18 43t43 18h3q25 0 43 -18t18 -43v-3q0 -25 -18 -43t-43 -18h-3zM243 -74q-13 -36 -26 -60.5t-30.5 -39t-39.5 -20.5t-53 -6
h-42q-8 0 -8 7q0 8 8 8h42q27 0 47 5.5t35.5 19t28 36t24.5 56.5l3 7v8t-1 7l-198 505q-9 24 3.5 42.5t37.5 18.5h52q5 0 10.5 -4t7.5 -8l5 -13l9 -24l75 -196q8 -21 24 -31t34 -10t34 11t23 32l68 198l13 36q3 9 13 9t7 -9l-146 -418l-59 -169z" />
    <glyph glyph-name="Amacron" unicode="&#x100;" horiz-adv-x="754" 
d="M294 830q-17 0 -28.5 11.5t-11.5 28.5t11.5 28.5t28.5 11.5h200q17 0 28.5 -11.5t11.5 -28.5t-11.5 -28.5t-28.5 -11.5h-200zM513 252q2 -7 -5 -7l-313 1q-17 0 -34.5 -12t-23.5 -28l-58 -155q-4 -10 -8 -20.5t-8 -20.5q-3 -9 -12 -9h-7h-5q1 3 2 7q1 3 3 7.5t4 10.5
q5 12 18 47.5t32 85.5t41.5 110t45.5 121t44.5 118t38.5 101.5t27.5 71.5t10.5 28l8 21q3 8 12.5 14.5t17.5 6.5h75q16 0 33.5 -12t23.5 -28l251 -663l9 -22q4 -11 6.5 -17.5t2.5 -7.5q1 -2 -1 -1t-4 1h-112q-8 0 -16 5.5t-11 12.5l-7 19l-5 12q-18 51 -37.5 101.5
t-38.5 101.5v-0.5v-0.5zM188 344q-12 -32 5.5 -57.5t52.5 -25.5h175q35 0 52.5 25.5t5.5 57.5l-88 234q-7 21 -23 31.5t-34 10.5t-34 -10.5t-24 -30.5z" />
    <glyph glyph-name="amacron" unicode="&#x101;" 
d="M176 600q-17 0 -28.5 11.5t-11.5 28.5t11.5 28.5t28.5 11.5h200q17 0 28.5 -11.5t11.5 -28.5t-11.5 -28.5t-28.5 -11.5h-200zM85 381q-8 2 -6 9q23 63 76.5 101t120.5 38q45 0 81.5 -10.5t62.5 -34t40.5 -60t14.5 -88.5v-226q0 -14 3 -19t19 -6q9 0 16 -6.5t7 -14.5v-21
q0 -18 -12 -30.5t-30 -12.5q-42 1 -66 4.5t-35.5 15t-14 33t-2.5 57.5v8h-0.5t-0.5 -1q-15 -72 -53.5 -99t-94.5 -27q-92 0 -131.5 29t-39.5 76q0 67 46.5 108t124.5 41q33 0 60.5 6.5t47 22.5t30.5 43t11 68q0 71 -23 100.5t-61 29.5q-61 0 -110 -36t-71 -95q-2 -6 -10 -3z
M360 282q0 4 -5.5 5.5t-7.5 -1.5q-19 -30 -51 -41t-74 -11q-30 0 -48.5 -36.5t-18.5 -96.5q0 -45 14 -71.5t47 -26.5q30 0 55 8t44 27.5t30.5 51.5t14.5 81v111z" />
    <glyph glyph-name="Abreve" unicode="&#x102;" horiz-adv-x="754" 
d="M248 923q-5 21 5 31.5t33 10.5h23q6 0 13 -6.5t8 -12.5q6 -21 22.5 -33t41.5 -12t41.5 12t22.5 33q1 6 8 12.5t13 6.5h24q22 0 32 -10.5t5 -31.5q-13 -47 -51 -74.5t-95 -27.5t-95 27.5t-51 74.5zM513 252q2 -7 -5 -7l-313 1q-17 0 -34.5 -12t-23.5 -28l-58 -155
q-4 -10 -8 -20.5t-8 -20.5q-3 -9 -12 -9h-7h-5q1 3 2 7q1 3 3 7.5t4 10.5q5 12 18 47.5t32 85.5t41.5 110t45.5 121t44.5 118t38.5 101.5t27.5 71.5t10.5 28l8 21q3 8 12.5 14.5t17.5 6.5h75q16 0 33.5 -12t23.5 -28l251 -663l9 -22q4 -11 6.5 -17.5t2.5 -7.5q1 -2 -1 -1
t-4 1h-112q-8 0 -16 5.5t-11 12.5l-7 19l-5 12q-18 51 -37.5 101.5t-38.5 101.5v-0.5v-0.5zM188 344q-12 -32 5.5 -57.5t52.5 -25.5h175q35 0 52.5 25.5t5.5 57.5l-88 234q-7 21 -23 31.5t-34 10.5t-34 -10.5t-24 -30.5z" />
    <glyph glyph-name="abreve" unicode="&#x103;" 
d="M130 693q-5 21 5 31.5t33 10.5h23q6 0 13 -6.5t8 -12.5q6 -21 22.5 -33t41.5 -12t41.5 12t22.5 33q1 6 8 12.5t13 6.5h24q22 0 32 -10.5t5 -31.5q-13 -47 -51 -74.5t-95 -27.5t-95 27.5t-51 74.5zM85 381q-8 2 -6 9q23 63 76.5 101t120.5 38q45 0 81.5 -10.5t62.5 -34
t40.5 -60t14.5 -88.5v-226q0 -14 3 -19t19 -6q9 0 16 -6.5t7 -14.5v-21q0 -18 -12 -30.5t-30 -12.5q-42 1 -66 4.5t-35.5 15t-14 33t-2.5 57.5v8h-0.5t-0.5 -1q-15 -72 -53.5 -99t-94.5 -27q-92 0 -131.5 29t-39.5 76q0 67 46.5 108t124.5 41q33 0 60.5 6.5t47 22.5t30.5 43
t11 68q0 71 -23 100.5t-61 29.5q-61 0 -110 -36t-71 -95q-2 -6 -10 -3zM360 282q0 4 -5.5 5.5t-7.5 -1.5q-19 -30 -51 -41t-74 -11q-30 0 -48.5 -36.5t-18.5 -96.5q0 -45 14 -71.5t47 -26.5q30 0 55 8t44 27.5t30.5 51.5t14.5 81v111z" />
    <glyph glyph-name="Aogonek" unicode="&#x104;" horiz-adv-x="754" 
d="M513 252q2 -7 -5 -7l-313 1q-17 0 -34.5 -12t-23.5 -28l-58 -155q-4 -10 -8 -20.5t-8 -20.5q-3 -9 -12 -9h-7h-5q1 3 2 7q1 3 3 7.5t4 10.5q5 12 18 47.5t32 85.5t41.5 110t45.5 121t44.5 118t38.5 101.5t27.5 71.5t10.5 28l8 21q3 8 12.5 14.5t17.5 6.5h75
q16 0 33.5 -12t23.5 -28l251 -663l9 -22q4 -11 6.5 -17.5t2.5 -7.5q0 -2 -1.5 -2t-2.5 -1q-7 -5 -15.5 -15t-16 -23t-13 -27t-5.5 -28q0 -44 20.5 -70t55.5 -26q21 0 40.5 8t31.5 21q3 3 4 -2q0 -4 -3 -7q-13 -14 -33 -22t-41 -8q-63 0 -101 26t-38 69q0 8 8.5 20t21.5 25
t28.5 26t29.5 23q4 3 3 8t-6 5h-84q-8 0 -16 5.5t-11 12.5l-7 19l-5 12q-18 51 -37.5 101.5t-38.5 101.5v-0.5v-0.5zM188 344q-12 -32 5.5 -57.5t52.5 -25.5h175q35 0 52.5 25.5t5.5 57.5l-88 234q-7 21 -23 31.5t-34 10.5t-34 -10.5t-24 -30.5z" />
    <glyph glyph-name="aogonek" unicode="&#x105;" 
d="M85 381q-9 2 -6 9q22 63 75.5 101t120.5 38q45 0 81.5 -10.5t62.5 -34t40.5 -60t14.5 -88.5v-226q0 -14 3 -19t19 -6q9 0 16 -6.5t7 -14.5v-55q0 -2 -2.5 -7.5t-4.5 -6.5q-7 -6 -15 -16t-15 -22.5t-12 -26t-5 -25.5q0 -44 20.5 -70.5t55.5 -26.5q21 0 40.5 8t31.5 21
q3 3 4 -2q0 -4 -3 -7q-13 -14 -33 -22t-41 -8q-63 0 -101 26t-38 69q0 8 8.5 19.5t21.5 24.5t29 26t31 24q4 3 4 8t-6 5q-46 0 -72 3.5t-38.5 15t-15.5 33t-3 58.5v8h-0.5t-0.5 -1q-15 -72 -53.5 -99t-94.5 -27q-92 0 -131.5 29t-39.5 76q0 67 46.5 108t124.5 41
q33 0 60.5 6.5t47 22.5t30.5 43t11 68q0 71 -23 100.5t-61 29.5q-61 0 -110 -36t-71 -95q-2 -6 -10 -3zM359 282q0 4 -5.5 5.5t-7.5 -1.5q-19 -30 -51 -41t-74 -11q-30 0 -48.5 -36.5t-18.5 -96.5q0 -45 14 -71.5t47 -26.5q30 0 55 8t44 27.5t30.5 51.5t14.5 81v111z" />
    <glyph glyph-name="Cacute" unicode="&#x106;" horiz-adv-x="695" 
d="M364 830q-21 0 -31.5 15t-4.5 35l22 59q5 16 22.5 28.5t34.5 12.5h32q26 0 37 -20.5t-3 -42.5l-39 -59q-6 -10 -23 -19t-28 -9h-19zM656 174q4 8 12 2q7 -6 3 -14q-18 -38 -45 -70t-59 -54t-68.5 -34.5t-73.5 -12.5q-84 0 -153 31t-117.5 83.5t-75.5 122t-27 147.5
t27 147.5t75.5 122t117.5 83.5t153 31q32 0 65.5 -12.5t66 -34.5t61.5 -54t52 -70q1 -2 2 -6t0 -5l-4 -3l-4 -3q-2 -1 -5 1t-4 4q-23 38 -50.5 68.5t-58 52.5t-61.5 34t-60 12q-53 0 -96.5 -29.5t-74.5 -80t-48 -117t-17 -141.5t17 -141.5t48 -117t74.5 -80t96.5 -29.5
q34 0 68 12t64 34t55.5 52.5t43.5 68.5z" />
    <glyph glyph-name="cacute" unicode="&#x107;" horiz-adv-x="532" 
d="M332 600q-21 0 -32 15t-4 35l21 59q5 16 23 28.5t35 12.5h31q26 0 37.5 -20.5t-3.5 -42.5l-38 -59q-6 -10 -23 -19t-28 -9h-19zM484 135q2 6 11 2q8 -4 6 -10q-25 -62 -70.5 -99t-98.5 -37q-63 0 -115 16t-89 49t-57 83.5t-20 120.5t20 120.5t57 83.5t89 49t115 16
q49 0 91 -41.5t76 -110.5q1 -2 1.5 -5t-1.5 -4l-3 -2l-5 -2q-2 -1 -4.5 1t-2.5 4q-34 66 -72 106.5t-81 40.5q-70 0 -113 -61.5t-43 -194.5q0 -132 43 -193.5t113 -61.5q46 0 87.5 35.5t65.5 94.5z" />
    <glyph glyph-name="Ccircumflex" unicode="&#x108;" horiz-adv-x="695" 
d="M373 887q-7 4 -9 2.5t-7 -6.5l-40 -37q-5 -4 -20 -10t-22 -6h-28q-18 0 -25 14t3 28l63 83q6 9 22.5 17t26.5 8h54q10 0 26.5 -8t22.5 -17l63 -83q10 -14 3 -28t-24 -14h-22h-31q-10 13 -20 24q-9 11 -18.5 20t-17.5 13zM656 174q4 8 12 2q7 -6 3 -14q-18 -38 -45 -70
t-59 -54t-68.5 -34.5t-73.5 -12.5q-84 0 -153 31t-117.5 83.5t-75.5 122t-27 147.5t27 147.5t75.5 122t117.5 83.5t153 31q32 0 65.5 -12.5t66 -34.5t61.5 -54t52 -70q1 -2 2 -6t0 -5l-4 -3l-4 -3q-2 -1 -5 1t-4 4q-23 38 -50.5 68.5t-58 52.5t-61.5 34t-60 12
q-53 0 -96.5 -29.5t-74.5 -80t-48 -117t-17 -141.5t17 -141.5t48 -117t74.5 -80t96.5 -29.5q34 0 68 12t64 34t55.5 52.5t43.5 68.5z" />
    <glyph glyph-name="Cdot" unicode="&#x10a;" horiz-adv-x="695" 
d="M362 830q-25 0 -43 18t-18 43v3q0 25 18 43t43 18h3q25 0 43 -18t18 -43v-3q0 -25 -18 -43t-43 -18h-3zM656 174q4 8 12 2q7 -6 3 -14q-18 -38 -45 -70t-59 -54t-68.5 -34.5t-73.5 -12.5q-84 0 -153 31t-117.5 83.5t-75.5 122t-27 147.5t27 147.5t75.5 122t117.5 83.5
t153 31q32 0 65.5 -12.5t66 -34.5t61.5 -54t52 -70q1 -2 2 -6t0 -5l-4 -3l-4 -3q-2 -1 -5 1t-4 4q-23 38 -50.5 68.5t-58 52.5t-61.5 34t-60 12q-53 0 -96.5 -29.5t-74.5 -80t-48 -117t-17 -141.5t17 -141.5t48 -117t74.5 -80t96.5 -29.5q34 0 68 12t64 34t55.5 52.5
t43.5 68.5z" />
    <glyph glyph-name="cdot" unicode="&#x10b;" horiz-adv-x="532" 
d="M330 600q-25 0 -43 18t-18 43v3q0 25 18 43t43 18h3q25 0 43 -18t18 -43v-3q0 -25 -18 -43t-43 -18h-3zM484 135q2 6 11 2q8 -4 6 -10q-25 -62 -70.5 -99t-98.5 -37q-63 0 -115 16t-89 49t-57 83.5t-20 120.5t20 120.5t57 83.5t89 49t115 16q49 0 91 -41.5t76 -110.5
q1 -2 1.5 -5t-1.5 -4l-3 -2l-5 -2q-2 -1 -4.5 1t-2.5 4q-34 66 -72 106.5t-81 40.5q-70 0 -113 -61.5t-43 -194.5q0 -132 43 -193.5t113 -61.5q46 0 87.5 35.5t65.5 94.5z" />
    <glyph glyph-name="Ccaron" unicode="&#x10c;" horiz-adv-x="695" 
d="M357 927q5 -5 7 -6.5t9 2.5q8 4 17.5 13t17.5 18.5t14 17t7 8.5q6 8 13.5 4t17.5 -4h22q17 0 24 -14t-3 -28l-63 -83q-6 -9 -22.5 -17t-26.5 -8h-54q-10 0 -26.5 8t-22.5 17l-63 83q-10 14 -3 28t25 14h28q7 0 22 -6t20 -10zM656 174q4 8 12 2q7 -6 3 -14
q-18 -38 -45 -70t-59 -54t-68.5 -34.5t-73.5 -12.5q-84 0 -153 31t-117.5 83.5t-75.5 122t-27 147.5t27 147.5t75.5 122t117.5 83.5t153 31q32 0 65.5 -12.5t66 -34.5t61.5 -54t52 -70q1 -2 2 -6t0 -5l-4 -3l-4 -3q-2 -1 -5 1t-4 4q-23 38 -50.5 68.5t-58 52.5t-61.5 34
t-60 12q-53 0 -96.5 -29.5t-74.5 -80t-48 -117t-17 -141.5t17 -141.5t48 -117t74.5 -80t96.5 -29.5q34 0 68 12t64 34t55.5 52.5t43.5 68.5z" />
    <glyph glyph-name="ccaron" unicode="&#x10d;" horiz-adv-x="532" 
d="M324 697q5 -5 7 -6.5t9 2.5q8 4 17.5 13t17.5 18.5t14 17t7 8.5q6 8 13.5 4t17.5 -4h22q17 0 24 -14t-3 -28l-63 -83q-6 -9 -22.5 -17t-26.5 -8h-54q-10 0 -26.5 8t-22.5 17l-63 83q-10 14 -3 28t25 14h28q7 0 22 -6t20 -10zM484 135q2 6 11 2q8 -4 6 -10
q-25 -62 -70.5 -99t-98.5 -37q-63 0 -115 16t-89 49t-57 83.5t-20 120.5t20 120.5t57 83.5t89 49t115 16q49 0 91 -41.5t76 -110.5q1 -2 1.5 -5t-1.5 -4l-3 -2l-5 -2q-2 -1 -4.5 1t-2.5 4q-34 66 -72 106.5t-81 40.5q-70 0 -113 -61.5t-43 -194.5q0 -132 43 -193.5
t113 -61.5q46 0 87.5 35.5t65.5 94.5z" />
    <glyph glyph-name="Dcaron" unicode="&#x10e;" horiz-adv-x="765" 
d="M323 927q5 -5 7 -6.5t9 2.5q8 4 17.5 13t17.5 18.5t14 17t7 8.5q6 8 13.5 4t17.5 -4h22q17 0 24 -14t-3 -28l-63 -83q-6 -9 -22.5 -17t-26.5 -8h-54q-10 0 -26.5 8t-22.5 17l-63 83q-10 14 -3 28t25 14h28q7 0 22 -6t20 -10zM350 0h-202q-25 0 -43 18t-18 43v628
q0 25 18 43t43 18h172q194 0 292 -94t98 -281q0 -192 -88 -283.5t-272 -91.5zM215 76q0 -25 18 -43t43 -18h73q115 0 169.5 88t54.5 272q0 180 -63.5 270t-188.5 90h-53q-22 0 -37.5 -15.5t-15.5 -37.5v-606z" />
    <glyph glyph-name="dcaron" unicode="&#x10f;" horiz-adv-x="632" 
d="M612 698q0 25 18 43t43 18h2q25 0 38.5 -18t7.5 -42l-13 -49q-4 -16 -20 -28.5t-33 -12.5q-18 0 -30.5 12.5t-12.5 30.5v46zM175 260q0 -57 6 -104t17 -80.5t26 -52t34 -18.5q42 0 77 18.5t60 52t38.5 80.5t13.5 104t-13.5 104t-38.5 80.5t-60 52t-77 18.5
q-19 0 -34 -18.5t-26 -52t-17 -80.5t-6 -104zM50 260q0 60 14.5 110t41 85t64 54.5t83.5 19.5q62 0 107.5 -34.5t70.5 -95.5q1 -4 8.5 -3.5t7.5 5.5v292q0 23 17 40t41 17q23 0 40 -17t17 -40v-636q0 -23 -17 -40t-40 -17q-24 0 -41 17t-17 40v62q0 5 -7.5 5.5t-8.5 -3.5
q-25 -61 -70.5 -95.5t-107.5 -34.5q-46 0 -83.5 19.5t-64 54.5t-41 85t-14.5 110z" />
    <glyph glyph-name="Dcroat" unicode="&#x110;" horiz-adv-x="765" 
d="M13 369q-6 0 -6 6t6 6h34q17 0 28.5 11.5t11.5 28.5v268q0 25 18 43t43 18h172q194 0 292 -94t98 -281q0 -192 -88 -283.5t-272 -91.5h-202q-25 0 -43 18t-18 43v268q0 17 -11.5 28.5t-28.5 11.5h-34zM215 76q0 -25 18 -43t43 -18h73q115 0 169.5 88t54.5 272
q0 180 -63.5 270t-188.5 90h-53q-22 0 -37.5 -15.5t-15.5 -37.5v-243q0 -24 17 -41t41 -17h51q6 0 6 -6t-6 -6h-51q-24 0 -41 -17t-17 -40v-236z" />
    <glyph glyph-name="dcroat" unicode="&#x111;" horiz-adv-x="632" 
d="M259 634q-6 0 -6 6t6 6h136q22 0 37 15t15 37t15 37t37 15h11q22 0 37 -15t15 -37t15 -37t37 -15h55q6 0 6 -6t-6 -6h-50q-24 0 -40.5 -16.5t-16.5 -39.5v-520q0 -24 -17 -41t-40 -17q-24 0 -41 17t-17 40v62q0 5 -7.5 5.5t-8.5 -3.5q-25 -61 -70.5 -95.5t-107.5 -34.5
q-46 0 -83.5 19.5t-64 54.5t-41 85t-14.5 110t14.5 110t41 85t64 54.5t83.5 19.5q62 0 107.5 -34.5t70.5 -95.5q1 -4 8.5 -3.5t7.5 5.5v172q0 25 -18 43t-43 18h-127zM175 260q0 -57 6 -104t17 -80.5t26 -52t34 -18.5q42 0 77 18.5t60 52t38.5 80.5t13.5 104t-13.5 104
t-38.5 80.5t-60 52t-77 18.5q-19 0 -34 -18.5t-26 -52t-17 -80.5t-6 -104z" />
    <glyph glyph-name="Emacron" unicode="&#x112;" horiz-adv-x="640" 
d="M231 830q-17 0 -28.5 11.5t-11.5 28.5t11.5 28.5t28.5 11.5h200q17 0 28.5 -11.5t11.5 -28.5t-11.5 -28.5t-28.5 -11.5h-200zM582 16q8 0 8 -8t-8 -8h-434q-25 0 -43 18t-18 43v628q0 25 18 43t43 18h419q8 0 8 -8t-8 -8h-291q-25 0 -43 -18t-18 -43v-218q0 -25 18 -43
t43 -18h272q7 0 7 -7t-7 -7h-272q-25 0 -43 -18t-18 -43v-242q0 -25 18 -43t43 -18h306z" />
    <glyph glyph-name="emacron" unicode="&#x113;" horiz-adv-x="538" 
d="M187 600q-17 0 -28.5 11.5t-11.5 28.5t11.5 28.5t28.5 11.5h200q17 0 28.5 -11.5t11.5 -28.5t-11.5 -28.5t-28.5 -11.5h-200zM490 134q2 6 10 3q7 -4 5 -10q-9 -31 -30 -56t-51 -43t-67 -27.5t-79 -9.5q-51 0 -93.5 16t-72.5 49t-46.5 83.5t-16.5 120.5t17 120.5t48 83.5
t75 49t97 16q56 0 97.5 -15.5t70 -44t44.5 -69t22 -90.5q3 -28 -13.5 -44t-44.5 -16h-226q-27 0 -44.5 -16t-14.5 -43q7 -96 34.5 -141t67.5 -45q78 0 135.5 35t75.5 94zM346 262q28 0 44.5 18.5t14.5 46.5q-8 88 -36 138.5t-83 50.5q-44 0 -73.5 -46t-36.5 -147
q-2 -27 15 -44t44 -17h111z" />
    <glyph glyph-name="Ebreve" unicode="&#x114;" horiz-adv-x="640" 
d="M185 923q-5 21 5 31.5t33 10.5h23q6 0 13 -6.5t8 -12.5q6 -21 22.5 -33t41.5 -12t41.5 12t22.5 33q1 6 8 12.5t13 6.5h24q22 0 32 -10.5t5 -31.5q-13 -47 -51 -74.5t-95 -27.5t-95 27.5t-51 74.5zM582 16q8 0 8 -8t-8 -8h-434q-25 0 -43 18t-18 43v628q0 25 18 43t43 18
h419q8 0 8 -8t-8 -8h-291q-25 0 -43 -18t-18 -43v-218q0 -25 18 -43t43 -18h272q7 0 7 -7t-7 -7h-272q-25 0 -43 -18t-18 -43v-242q0 -25 18 -43t43 -18h306z" />
    <glyph glyph-name="ebreve" unicode="&#x115;" horiz-adv-x="538" 
d="M141 693q-5 21 5 31.5t33 10.5h23q6 0 13 -6.5t8 -12.5q6 -21 22.5 -33t41.5 -12t41.5 12t22.5 33q1 6 8 12.5t13 6.5h24q22 0 32 -10.5t5 -31.5q-13 -47 -51 -74.5t-95 -27.5t-95 27.5t-51 74.5zM490 134q2 6 10 3q7 -4 5 -10q-9 -31 -30 -56t-51 -43t-67 -27.5
t-79 -9.5q-51 0 -93.5 16t-72.5 49t-46.5 83.5t-16.5 120.5t17 120.5t48 83.5t75 49t97 16q56 0 97.5 -15.5t70 -44t44.5 -69t22 -90.5q3 -28 -13.5 -44t-44.5 -16h-226q-27 0 -44.5 -16t-14.5 -43q7 -96 34.5 -141t67.5 -45q78 0 135.5 35t75.5 94zM346 262q28 0 44.5 18.5
t14.5 46.5q-8 88 -36 138.5t-83 50.5q-44 0 -73.5 -46t-36.5 -147q-2 -27 15 -44t44 -17h111z" />
    <glyph glyph-name="Edot" unicode="&#x116;" horiz-adv-x="640" 
d="M330 830q-25 0 -43 18t-18 43v3q0 25 18 43t43 18h3q25 0 43 -18t18 -43v-3q0 -25 -18 -43t-43 -18h-3zM582 16q8 0 8 -8t-8 -8h-434q-25 0 -43 18t-18 43v628q0 25 18 43t43 18h419q8 0 8 -8t-8 -8h-291q-25 0 -43 -18t-18 -43v-218q0 -25 18 -43t43 -18h272q7 0 7 -7
t-7 -7h-272q-25 0 -43 -18t-18 -43v-242q0 -25 18 -43t43 -18h306z" />
    <glyph glyph-name="edot" unicode="&#x117;" horiz-adv-x="538" 
d="M286 600q-25 0 -43 18t-18 43v3q0 25 18 43t43 18h3q25 0 43 -18t18 -43v-3q0 -25 -18 -43t-43 -18h-3zM490 134q2 6 10 3q7 -4 5 -10q-9 -31 -30 -56t-51 -43t-67 -27.5t-79 -9.5q-51 0 -93.5 16t-72.5 49t-46.5 83.5t-16.5 120.5t17 120.5t48 83.5t75 49t97 16
q56 0 97.5 -15.5t70 -44t44.5 -69t22 -90.5q3 -28 -13.5 -44t-44.5 -16h-226q-27 0 -44.5 -16t-14.5 -43q7 -96 34.5 -141t67.5 -45q78 0 135.5 35t75.5 94zM346 262q28 0 44.5 18.5t14.5 46.5q-8 88 -36 138.5t-83 50.5q-44 0 -73.5 -46t-36.5 -147q-2 -27 15 -44t44 -17
h111z" />
    <glyph glyph-name="Eogonek" unicode="&#x118;" horiz-adv-x="640" 
d="M582 16q8 0 8 -8q-1 -8 -9 -8h-218q-3 0 -8 -1.5t-8 -3.5q-7 -6 -15 -16t-15 -22.5t-12 -26t-5 -25.5q0 -44 20.5 -70.5t55.5 -26.5q21 0 40.5 8t31.5 21q3 3 4 -2q0 -4 -3 -7q-13 -14 -33 -22t-41 -8q-63 0 -101 26t-38 69q0 8 8.5 19.5t21.5 24.5t29 26t31 24
q4 3 2.5 8t-6.5 5h-174q-25 0 -43 18t-18 43v628q0 25 18 43t43 18h419q8 0 8 -8t-8 -8h-291q-25 0 -43 -18t-18 -43v-218q0 -25 18 -43t43 -18h272q7 0 7 -7t-7 -7h-272q-25 0 -43 -18t-18 -43v-242q0 -25 18 -43t43 -18h306z" />
    <glyph glyph-name="eogonek" unicode="&#x119;" horiz-adv-x="538" 
d="M490 134q2 6 10 3q7 -3 4 -12q-17 -51 -65 -86q0 -1 -4.5 -4.5t-4.5 -4.5q-14 -15 -28.5 -44.5t-14.5 -60.5q0 -53 20.5 -85t55.5 -32q21 0 40.5 8t31.5 21q3 3 4 -2q0 -4 -3 -7q-13 -14 -33 -22t-41 -8q-63 0 -101 31.5t-38 84.5q0 18 19 43t43 47q2 1 -0.5 3t-4.5 1
q-47 -17 -102 -17q-51 0 -93.5 16t-72.5 49t-46.5 83.5t-16.5 120.5t17 120.5t48 83.5t75 49t97 16q56 0 97.5 -15.5t70 -44t44.5 -69t22 -90.5q3 -28 -13.5 -44t-44.5 -16h-226q-27 0 -44.5 -16t-14.5 -43q7 -96 34.5 -141t67.5 -45q78 0 135.5 35t75.5 94zM346 263
q28 0 44.5 18.5t14.5 46.5q-8 88 -36 138.5t-83 50.5q-44 0 -73.5 -46t-36.5 -147q-2 -27 15 -44t44 -17h111z" />
    <glyph glyph-name="Ecaron" unicode="&#x11a;" horiz-adv-x="640" 
d="M324 927q5 -5 7 -6.5t9 2.5q8 4 17.5 13t17.5 18.5t14 17t7 8.5q6 8 13.5 4t17.5 -4h22q17 0 24 -14t-3 -28l-63 -83q-6 -9 -22.5 -17t-26.5 -8h-54q-10 0 -26.5 8t-22.5 17l-63 83q-10 14 -3 28t25 14h28q7 0 22 -6t20 -10zM582 16q8 0 8 -8t-8 -8h-434q-25 0 -43 18
t-18 43v628q0 25 18 43t43 18h419q8 0 8 -8t-8 -8h-291q-25 0 -43 -18t-18 -43v-218q0 -25 18 -43t43 -18h272q7 0 7 -7t-7 -7h-272q-25 0 -43 -18t-18 -43v-242q0 -25 18 -43t43 -18h306z" />
    <glyph glyph-name="ecaron" unicode="&#x11b;" horiz-adv-x="538" 
d="M280 697q5 -5 7 -6.5t9 2.5q8 4 17.5 13t17.5 18.5t14 17t7 8.5q6 8 13.5 4t17.5 -4h22q17 0 24 -14t-3 -28l-63 -83q-6 -9 -22.5 -17t-26.5 -8h-54q-10 0 -26.5 8t-22.5 17l-63 83q-10 14 -3 28t25 14h28q7 0 22 -6t20 -10zM490 134q2 6 10 3q7 -4 5 -10q-9 -31 -30 -56
t-51 -43t-67 -27.5t-79 -9.5q-51 0 -93.5 16t-72.5 49t-46.5 83.5t-16.5 120.5t17 120.5t48 83.5t75 49t97 16q56 0 97.5 -15.5t70 -44t44.5 -69t22 -90.5q3 -28 -13.5 -44t-44.5 -16h-226q-27 0 -44.5 -16t-14.5 -43q7 -96 34.5 -141t67.5 -45q78 0 135.5 35t75.5 94z
M346 262q28 0 44.5 18.5t14.5 46.5q-8 88 -36 138.5t-83 50.5q-44 0 -73.5 -46t-36.5 -147q-2 -27 15 -44t44 -17h111z" />
    <glyph glyph-name="Gcircumflex" unicode="&#x11c;" horiz-adv-x="746" 
d="M456 887q-7 4 -9 2.5t-7 -6.5l-40 -37q-5 -4 -20 -10t-22 -6h-28q-18 0 -25 14t3 28l63 83q6 9 22.5 17t26.5 8h54q10 0 26.5 -8t22.5 -17l63 -83q10 -14 3 -28t-24 -14h-22h-31q-10 13 -20 24q-9 11 -18.5 20t-17.5 13zM460 395q-8 0 -8 8t8 8h180q25 0 43 -18t18 -43
v-217q0 -10 -8.5 -26.5t-16.5 -22.5q-56 -43 -115.5 -68t-113.5 -25q-89 0 -162 27.5t-124.5 78t-80 121.5t-28.5 157t28.5 157t80 121.5t124.5 78t162 27.5q27 0 56.5 -12.5t58 -34.5t56 -54t50.5 -70q1 -2 2 -6t0 -5l-4 -3l-4 -3q-2 -1 -5 1t-4 4q-22 38 -48 68.5
t-53 52.5t-54 34t-51 12q-58 0 -105.5 -26.5t-81.5 -74.5t-52.5 -116t-18.5 -151t18.5 -151t52.5 -116t81.5 -74.5t105.5 -26.5q49 0 104 23.5t108 63.5q8 7 15.5 22.5t7.5 25.5v192q0 25 -18 43t-43 18h-161z" />
    <glyph glyph-name="Gbreve" unicode="&#x11e;" horiz-adv-x="746" 
d="M301 923q-5 21 5 31.5t33 10.5h23q6 0 13 -6.5t8 -12.5q6 -21 22.5 -33t41.5 -12t41.5 12t22.5 33q1 6 8 12.5t13 6.5h24q22 0 32 -10.5t5 -31.5q-13 -47 -51 -74.5t-95 -27.5t-95 27.5t-51 74.5zM460 395q-8 0 -8 8t8 8h180q25 0 43 -18t18 -43v-217q0 -10 -8.5 -26.5
t-16.5 -22.5q-56 -43 -115.5 -68t-113.5 -25q-89 0 -162 27.5t-124.5 78t-80 121.5t-28.5 157t28.5 157t80 121.5t124.5 78t162 27.5q27 0 56.5 -12.5t58 -34.5t56 -54t50.5 -70q1 -2 2 -6t0 -5l-4 -3l-4 -3q-2 -1 -5 1t-4 4q-22 38 -48 68.5t-53 52.5t-54 34t-51 12
q-58 0 -105.5 -26.5t-81.5 -74.5t-52.5 -116t-18.5 -151t18.5 -151t52.5 -116t81.5 -74.5t105.5 -26.5q49 0 104 23.5t108 63.5q8 7 15.5 22.5t7.5 25.5v192q0 25 -18 43t-43 18h-161z" />
    <glyph glyph-name="gbreve" unicode="&#x11f;" horiz-adv-x="622" 
d="M155 693q-5 21 5 31.5t33 10.5h23q6 0 13 -6.5t8 -12.5q6 -21 22.5 -33t41.5 -12t41.5 12t22.5 33q1 6 8 12.5t13 6.5h24q22 0 32 -10.5t5 -31.5q-13 -47 -51 -74.5t-95 -27.5t-95 27.5t-51 74.5zM77 -96q-2 8 9 8q2 0 6 -3.5t4 -5.5q9 -28 66.5 -39.5t148.5 -11.5
q69 0 97.5 40.5t28.5 107.5v122q0 4 -7.5 5t-8.5 -3q-24 -59 -68.5 -92t-104.5 -33q-45 0 -81.5 14.5t-62.5 45.5t-40 80.5t-14 119.5q0 73 14 124t40 83.5t62.5 47t81.5 14.5q60 0 104.5 -34t68.5 -95q1 -4 8.5 -3t7.5 6v61q0 23 17 40t41 17q23 0 40 -17t17 -40v-414
q0 -48 -13 -86.5t-42 -66.5t-74.5 -43t-110.5 -15q-101 0 -165 15.5t-70 50.5zM175 260q0 -133 21.5 -189.5t56.5 -56.5q41 0 75 17.5t58 50t37.5 78t13.5 100.5q0 57 -13.5 104t-37.5 80.5t-58 52t-75 18.5q-35 0 -56.5 -58.5t-21.5 -196.5z" />
    <glyph glyph-name="Gdot" unicode="&#x120;" horiz-adv-x="746" 
d="M446 830q-25 0 -43 18t-18 43v3q0 25 18 43t43 18h3q25 0 43 -18t18 -43v-3q0 -25 -18 -43t-43 -18h-3zM460 395q-8 0 -8 8t8 8h180q25 0 43 -18t18 -43v-217q0 -10 -8.5 -26.5t-16.5 -22.5q-56 -43 -115.5 -68t-113.5 -25q-89 0 -162 27.5t-124.5 78t-80 121.5
t-28.5 157t28.5 157t80 121.5t124.5 78t162 27.5q27 0 56.5 -12.5t58 -34.5t56 -54t50.5 -70q1 -2 2 -6t0 -5l-4 -3l-4 -3q-2 -1 -5 1t-4 4q-22 38 -48 68.5t-53 52.5t-54 34t-51 12q-58 0 -105.5 -26.5t-81.5 -74.5t-52.5 -116t-18.5 -151t18.5 -151t52.5 -116t81.5 -74.5
t105.5 -26.5q49 0 104 23.5t108 63.5q8 7 15.5 22.5t7.5 25.5v192q0 25 -18 43t-43 18h-161z" />
    <glyph glyph-name="gdot" unicode="&#x121;" horiz-adv-x="622" 
d="M300 600q-25 0 -43 18t-18 43v3q0 25 18 43t43 18h3q25 0 43 -18t18 -43v-3q0 -25 -18 -43t-43 -18h-3zM77 -96q-2 8 9 8q2 0 6 -3.5t4 -5.5q9 -28 66.5 -39.5t148.5 -11.5q69 0 97.5 40.5t28.5 107.5v122q0 4 -7.5 5t-8.5 -3q-24 -59 -68.5 -92t-104.5 -33
q-45 0 -81.5 14.5t-62.5 45.5t-40 80.5t-14 119.5q0 73 14 124t40 83.5t62.5 47t81.5 14.5q60 0 104.5 -34t68.5 -95q1 -4 8.5 -3t7.5 6v61q0 23 17 40t41 17q23 0 40 -17t17 -40v-414q0 -48 -13 -86.5t-42 -66.5t-74.5 -43t-110.5 -15q-101 0 -165 15.5t-70 50.5zM175 260
q0 -133 21.5 -189.5t56.5 -56.5q41 0 75 17.5t58 50t37.5 78t13.5 100.5q0 57 -13.5 104t-37.5 80.5t-58 52t-75 18.5q-35 0 -56.5 -58.5t-21.5 -196.5z" />
    <glyph glyph-name="Hcircumflex" unicode="&#x124;" horiz-adv-x="778" 
d="M399 887q-7 4 -9 2.5t-7 -6.5l-40 -37q-5 -4 -20 -10t-22 -6h-28q-18 0 -25 14t3 28l63 83q6 9 22.5 17t26.5 8h54q10 0 26.5 -8t22.5 -17l63 -83q10 -14 3 -28t-24 -14h-22h-31q-10 13 -20 24q-9 11 -18.5 20t-17.5 13zM693 61q0 -25 -18 -43t-43 -18h-6q-25 0 -43 18
t-18 43v265q0 25 -18 43t-43 18h-228q-25 0 -43 -18t-18 -43v-265q0 -25 -18 -43t-43 -18h-6q-25 0 -43 18t-18 43v628q0 25 18 43t43 18h6q25 0 43 -18t18 -43v-225q0 -25 18 -43t43 -18h228q25 0 43 18t18 43v225q0 25 18 43t43 18h6q25 0 43 -18t18 -43v-628z" />
    <glyph glyph-name="Itilde" unicode="&#x128;" horiz-adv-x="301" 
d="M73 851q-1 -8 -7.5 -14.5t-13.5 -6.5l-22 1q-20 0 -31 10.5t-8 30.5q6 46 25 76.5t49 38.5q21 6 23 -19l1 -12v0q-1 14 -2 23.5t-2 9.5q19 0 41 -11.5t40 -26t31 -26.5t14 -14q4 -4 2.5 -2.5t3.5 4.5q11 8 14 46q1 8 7.5 14.5t14.5 6.5h22q20 0 31 -10.5t8 -30.5
q-5 -43 -22.5 -72t-43.5 -40q-16 -7 -23 -0.5t-9 23.5l-1 16l-4 45q2 -25 3 -45q2 -18 3 -31.5t2 -13.5q-20 0 -37.5 12t-33 27t-29 27t-26.5 12q-8 0 -13.5 -13t-6.5 -35zM217 62q0 -25 -18 -43t-43 -18h-6q-25 0 -43 18t-18 43v628q0 25 18 43t43 18h6q25 0 43 -18t18 -43
v-628z" />
    <glyph glyph-name="itilde" unicode="&#x129;" horiz-adv-x="295" 
d="M88 621q-1 -8 -7.5 -14.5t-13.5 -6.5l-22 1q-20 0 -31 10.5t-8 30.5q6 46 25 76.5t49 38.5q21 6 23 -19l1 -12v0q-1 14 -2 23.5t-2 9.5q19 0 41 -11.5t40 -26t31 -26.5t14 -14q4 -4 2.5 -2.5t3.5 4.5q11 8 14 46q1 8 7.5 14.5t14.5 6.5h22q20 0 31 -10.5t8 -30.5
q-5 -43 -22.5 -72t-43.5 -40q-16 -7 -23 -0.5t-9 23.5l-1 16l-4 45q2 -25 3 -45q2 -18 3 -31.5t2 -13.5q-20 0 -37.5 12t-33 27t-29 27t-26.5 12q-8 0 -13.5 -13t-6.5 -35zM169 1q-24 0 -41 17t-17 41v405q0 23 17 40t41 17q23 0 40 -17t17 -40v-405q0 -24 -17 -41t-40 -17z
" />
    <glyph glyph-name="Imacron" unicode="&#x12a;" horiz-adv-x="301" 
d="M52 830q-17 0 -28.5 11.5t-11.5 28.5t11.5 28.5t28.5 11.5h200q17 0 28.5 -11.5t11.5 -28.5t-11.5 -28.5t-28.5 -11.5h-200zM216 61q0 -25 -18 -43t-43 -18h-6q-25 0 -43 18t-18 43v628q0 25 18 43t43 18h6q25 0 43 -18t18 -43v-628z" />
    <glyph glyph-name="imacron" unicode="&#x12b;" horiz-adv-x="295" 
d="M67 600q-17 0 -28.5 11.5t-11.5 28.5t11.5 28.5t28.5 11.5h200q17 0 28.5 -11.5t11.5 -28.5t-11.5 -28.5t-28.5 -11.5h-200zM168 0q-24 0 -41 17t-17 41v405q0 23 17 40t41 17q23 0 40 -17t17 -40v-405q0 -24 -17 -41t-40 -17z" />
    <glyph glyph-name="Ibreve" unicode="&#x12c;" horiz-adv-x="301" 
d="M6 923q-5 21 5 31.5t33 10.5h23q6 0 13 -6.5t8 -12.5q6 -21 22.5 -33t41.5 -12t41.5 12t22.5 33q1 6 8 12.5t13 6.5h24q22 0 32 -10.5t5 -31.5q-13 -47 -51 -74.5t-95 -27.5t-95 27.5t-51 74.5zM216 61q0 -25 -18 -43t-43 -18h-6q-25 0 -43 18t-18 43v628q0 25 18 43
t43 18h6q25 0 43 -18t18 -43v-628z" />
    <glyph glyph-name="ibreve" unicode="&#x12d;" horiz-adv-x="295" 
d="M21 693q-5 21 5 31.5t33 10.5h23q6 0 13 -6.5t8 -12.5q6 -21 22.5 -33t41.5 -12t41.5 12t22.5 33q1 6 8 12.5t13 6.5h24q22 0 32 -10.5t5 -31.5q-13 -47 -51 -74.5t-95 -27.5t-95 27.5t-51 74.5zM168 0q-24 0 -41 17t-17 41v405q0 23 17 40t41 17q23 0 40 -17t17 -40
v-405q0 -24 -17 -41t-40 -17z" />
    <glyph glyph-name="Idotaccent" unicode="&#x130;" horiz-adv-x="301" 
d="M151 830q-25 0 -43 18t-18 43v3q0 25 18 43t43 18h3q25 0 43 -18t18 -43v-3q0 -25 -18 -43t-43 -18h-3zM216 61q0 -25 -18 -43t-43 -18h-6q-25 0 -43 18t-18 43v628q0 25 18 43t43 18h6q25 0 43 -18t18 -43v-628z" />
    <glyph glyph-name="dotlessi" unicode="&#x131;" horiz-adv-x="295" 
d="M168 0q-24 0 -41 17t-17 41v405q0 23 17 40t41 17q23 0 40 -17t17 -40v-405q0 -24 -17 -41t-40 -17z" />
    <glyph glyph-name="Jcircumflex" unicode="&#x134;" horiz-adv-x="565" 
d="M425 887q-7 4 -9 2.5t-7 -6.5l-40 -37q-5 -4 -20 -10t-22 -6h-28q-18 0 -25 14t3 28l63 83q6 9 22.5 17t26.5 8h54q10 0 26.5 -8t22.5 -17l63 -83q10 -14 3 -28t-24 -14h-22h-31q-10 13 -20 24q-9 11 -18.5 20t-17.5 13zM49 248q0 12 9 23t22 14l72 13q10 1 17.5 -5
t7.5 -16v-25q0 -127 21 -185t67 -58q43 0 65 58t22 153v469q0 25 18 43t43 18h6q25 0 43 -18t18 -43v-469q0 -51 -13.5 -93.5t-40.5 -72.5t-67.5 -46.5t-93.5 -16.5q-112 0 -164 54t-52 171v32z" />
    <glyph glyph-name="Lacute" unicode="&#x139;" horiz-adv-x="571" 
d="M153 830q-21 0 -32 15t-4 35l21 59q5 16 23 28.5t35 12.5h31q26 0 37.5 -20.5t-3.5 -42.5l-38 -59q-6 -10 -23 -19t-28 -9h-19zM533 16q8 0 8 -8t-8 -8h-384q-25 0 -43 18t-18 43v628q0 25 18 43t43 18h6q25 0 43 -18t18 -43v-612q0 -25 18 -43t43 -18h256z" />
    <glyph glyph-name="lacute" unicode="&#x13a;" horiz-adv-x="255" 
d="M99 790q-21 0 -31.5 15t-4.5 35l22 59q5 16 22.5 28.5t34.5 12.5h32q26 0 37 -20.5t-3 -42.5l-39 -59q-6 -10 -23 -19t-28 -9h-19zM185 57q0 -23 -17 -40t-40 -17q-24 0 -41 17t-17 41v635q0 23 17 40t41 17q23 0 40 -17t17 -40v-636z" />
    <glyph glyph-name="Lcaron" unicode="&#x13d;" horiz-adv-x="571" 
d="M316 698q0 25 18 43t43 18h2q25 0 38.5 -18t7.5 -42l-13 -49q-4 -16 -20 -28.5t-33 -12.5q-18 0 -30.5 12.5t-12.5 30.5v46zM533 16q8 0 8 -8t-8 -8h-384q-25 0 -43 18t-18 43v628q0 25 18 43t43 18h6q25 0 43 -18t18 -43v-612q0 -25 18 -43t43 -18h256z" />
    <glyph glyph-name="lcaron" unicode="&#x13e;" horiz-adv-x="255" 
d="M235 698q0 25 18 43t43 18h2q25 0 38.5 -18t7.5 -42l-13 -49q-4 -16 -20 -28.5t-33 -12.5q-18 0 -30.5 12.5t-12.5 30.5v46zM185 57q0 -23 -17 -40t-40 -17q-24 0 -41 17t-17 41v635q0 23 17 40t41 17q23 0 40 -17t17 -40v-636z" />
    <glyph glyph-name="Lslash" unicode="&#x141;" horiz-adv-x="571" 
d="M533 16q8 0 8 -8t-8 -8h-384q-25 0 -43 18t-18 43v239q0 16 -12 25t-28 5l-34 -9q-6 -2 -6 4t6 8l34 9q16 4 28 20t12 32v295q0 25 18 43t43 18h6q25 0 43 -18t18 -43v-222q0 -32 23 -50t54 -9l80 21q6 2 6 -4t-6 -8l-112 -30q-18 -5 -31.5 -22.5t-13.5 -36.5v-251
q0 -25 18 -43t43 -18h256z" />
    <glyph glyph-name="lslash" unicode="&#x142;" horiz-adv-x="255" 
d="M-4 321q-6 -2 -6 4t6 8l34 13q16 5 28 22.5t12 34.5v290q0 23 17 40t41 17q23 0 40 -17t17 -40v-248q0 -17 12 -25.5t28 -2.5l34 12q6 2 6 -4t-6 -8l-34 -12q-16 -6 -28 -23.5t-12 -34.5v-289q0 -24 -17 -41t-40 -17q-24 0 -41 17t-17 41v247q0 17 -12 25.5t-28 3.5z" />
    <glyph glyph-name="Nacute" unicode="&#x143;" horiz-adv-x="668" 
d="M249 830q-21 0 -31.5 15t-4.5 35l22 59q5 16 22.5 28.5t34.5 12.5h32q26 0 37 -20.5t-3 -42.5l-39 -59q-6 -10 -23 -19t-28 -9h-19zM133 10q0 -10 -9 -10q-10 0 -10 10v679q0 25 18 43t43 18h41q16 0 33.5 -11.5t23.5 -26.5l173 -411q9 -22 29 -30.5t39.5 -4.5t34.5 19.5
t15 39.5v416q0 9 10 9q9 0 9 -9v-680q0 -25 -18 -43t-43 -18h-51q-16 0 -33.5 11.5t-23.5 26.5l-163 387q-9 22 -29 30.5t-39.5 4.5t-34.5 -19.5t-15 -39.5v-391z" />
    <glyph glyph-name="nacute" unicode="&#x144;" 
d="M278 600q-21 0 -31.5 15t-4.5 35l22 59q5 16 22.5 28.5t34.5 12.5h32q26 0 37 -20.5t-3 -42.5l-39 -59q-6 -10 -23 -19t-28 -9h-19zM485 58q0 -24 -17 -41t-40 -18q-24 0 -41 17t-17 41v257q0 97 -8 145.5t-21 48.5q-35 0 -64 -13.5t-49.5 -38.5t-31.5 -60t-11 -77v-262
q0 -24 -17 -41t-40 -17q-24 0 -41 17t-17 41v405q0 23 17 40t41 17q23 0 40 -17t17 -40v-36q0 -4 6 -5t8 3q20 47 58 74t90 27q63 0 100.5 -52.5t37.5 -157.5v-257z" />
    <glyph glyph-name="Ncaron" unicode="&#x147;" horiz-adv-x="668" 
d="M342 927q5 -5 7 -6.5t9 2.5q8 4 17.5 13t17.5 18.5t14 17t7 8.5q6 8 13.5 4t17.5 -4h22q17 0 24 -14t-3 -28l-63 -83q-6 -9 -22.5 -17t-26.5 -8h-54q-10 0 -26.5 8t-22.5 17l-63 83q-10 14 -3 28t25 14h28q7 0 22 -6t20 -10zM133 10q0 -10 -9 -10q-10 0 -10 10v679
q0 25 18 43t43 18h41q16 0 33.5 -11.5t23.5 -26.5l173 -411q9 -22 29 -30.5t39.5 -4.5t34.5 19.5t15 39.5v416q0 9 10 9q9 0 9 -9v-680q0 -25 -18 -43t-43 -18h-51q-16 0 -33.5 11.5t-23.5 26.5l-163 387q-9 22 -29 30.5t-39.5 4.5t-34.5 -19.5t-15 -39.5v-391z" />
    <glyph glyph-name="ncaron" unicode="&#x148;" 
d="M271 697q5 -5 7 -6.5t9 2.5q8 4 17.5 13t17.5 18.5t14 17t7 8.5q6 8 13.5 4t17.5 -4h22q17 0 24 -14t-3 -28l-63 -83q-6 -9 -22.5 -17t-26.5 -8h-54q-10 0 -26.5 8t-22.5 17l-63 83q-10 14 -3 28t25 14h28q7 0 22 -6t20 -10zM485 58q0 -24 -17 -41t-40 -18q-24 0 -41 17
t-17 41v257q0 97 -8 145.5t-21 48.5q-35 0 -64 -13.5t-49.5 -38.5t-31.5 -60t-11 -77v-262q0 -24 -17 -41t-40 -17q-24 0 -41 17t-17 41v405q0 23 17 40t41 17q23 0 40 -17t17 -40v-36q0 -4 6 -5t8 3q20 47 58 74t90 27q63 0 100.5 -52.5t37.5 -157.5v-257z" />
    <glyph glyph-name="Omacron" unicode="&#x14c;" horiz-adv-x="814" 
d="M308 830q-17 0 -28.5 11.5t-11.5 28.5t11.5 28.5t28.5 11.5h200q17 0 28.5 -11.5t11.5 -28.5t-11.5 -28.5t-28.5 -11.5h-200zM194 375q0 -83 15.5 -151t43.5 -116t67.5 -74.5t87.5 -26.5t87.5 26.5t67.5 74.5t43.5 116t15.5 151q0 79 -16.5 146t-45 116.5t-67.5 77.5
t-85 28t-85 -28t-67.5 -77.5t-45 -116.5t-16.5 -146zM57 375q0 82 26.5 152.5t74 122t111.5 80.5t139 29t139 -29t111.5 -80.5t74 -122t26.5 -152.5q0 -86 -25 -157t-71 -121.5t-111 -78t-144 -27.5t-144 27.5t-111 78t-71 121.5t-25 157z" />
    <glyph glyph-name="omacron" unicode="&#x14d;" horiz-adv-x="590" 
d="M195 600q-17 0 -28.5 11.5t-11.5 28.5t11.5 28.5t28.5 11.5h200q17 0 28.5 -11.5t11.5 -28.5t-11.5 -28.5t-28.5 -11.5h-200zM175 260q0 -58 7 -105t22 -80.5t37.5 -52t53.5 -18.5q54 0 87 61.5t33 194.5q0 58 -7 105t-22 80.5t-37.5 52t-53.5 18.5q-54 0 -87 -61.5
t-33 -194.5zM50 260q0 70 17.5 120.5t50 83.5t77.5 49t100 16q63 0 109.5 -19.5t76.5 -54.5t44.5 -85t14.5 -110q0 -70 -17.5 -120.5t-50 -83.5t-77.5 -49t-100 -16q-63 0 -109.5 19.5t-76.5 54.5t-44.5 85t-14.5 110z" />
    <glyph glyph-name="Obreve" unicode="&#x14e;" horiz-adv-x="814" 
d="M262 923q-5 21 5 31.5t33 10.5h23q6 0 13 -6.5t8 -12.5q6 -21 22.5 -33t41.5 -12t41.5 12t22.5 33q1 6 8 12.5t13 6.5h24q22 0 32 -10.5t5 -31.5q-13 -47 -51 -74.5t-95 -27.5t-95 27.5t-51 74.5zM194 375q0 -83 15.5 -151t43.5 -116t67.5 -74.5t87.5 -26.5t87.5 26.5
t67.5 74.5t43.5 116t15.5 151q0 79 -16.5 146t-45 116.5t-67.5 77.5t-85 28t-85 -28t-67.5 -77.5t-45 -116.5t-16.5 -146zM57 375q0 82 26.5 152.5t74 122t111.5 80.5t139 29t139 -29t111.5 -80.5t74 -122t26.5 -152.5q0 -86 -25 -157t-71 -121.5t-111 -78t-144 -27.5
t-144 27.5t-111 78t-71 121.5t-25 157z" />
    <glyph glyph-name="obreve" unicode="&#x14f;" horiz-adv-x="590" 
d="M149 693q-5 21 5 31.5t33 10.5h23q6 0 13 -6.5t8 -12.5q6 -21 22.5 -33t41.5 -12t41.5 12t22.5 33q1 6 8 12.5t13 6.5h24q22 0 32 -10.5t5 -31.5q-13 -47 -51 -74.5t-95 -27.5t-95 27.5t-51 74.5zM175 260q0 -58 7 -105t22 -80.5t37.5 -52t53.5 -18.5q54 0 87 61.5
t33 194.5q0 58 -7 105t-22 80.5t-37.5 52t-53.5 18.5q-54 0 -87 -61.5t-33 -194.5zM50 260q0 70 17.5 120.5t50 83.5t77.5 49t100 16q63 0 109.5 -19.5t76.5 -54.5t44.5 -85t14.5 -110q0 -70 -17.5 -120.5t-50 -83.5t-77.5 -49t-100 -16q-63 0 -109.5 19.5t-76.5 54.5
t-44.5 85t-14.5 110z" />
    <glyph glyph-name="Racute" unicode="&#x154;" horiz-adv-x="624" 
d="M339 830q-21 0 -32 15t-4 35l21 59q5 16 23 28.5t35 12.5h31q26 0 37.5 -20.5t-3.5 -42.5l-38 -59q-6 -10 -23 -19t-28 -9h-19zM590 50q3 -5 5 -10q3 -4 5.5 -9t5.5 -10l6 -10q2 -4 0 -7.5t-6 -3.5h-99q-13 0 -30 10t-24 21l-138 245q-13 23 -1 43.5t39 20.5h37
q13 0 30 -10t24 -21zM215 61q0 -25 -18 -43t-43 -18h-6q-25 0 -43 18t-18 43v628q0 25 18 43t43 18h178q263 0 263 -225q0 -183 -263 -183h-55q-24 0 -40 -16t-16 -39v-226zM215 413q0 -23 16.5 -39.5t39.5 -16.5h56q134 0 134 168q0 210 -136 210h-55q-23 0 -39 -16
t-16 -39v-267z" />
    <glyph glyph-name="racute" unicode="&#x155;" horiz-adv-x="370" 
d="M211 600q-21 0 -32 15t-4 35l21 59q5 16 23 28.5t35 12.5h31q26 0 37.5 -20.5t-3.5 -42.5l-38 -59q-6 -10 -23 -19t-28 -9h-19zM350 507q0 -6 -6 -6h-6q-41 0 -70 -19.5t-47.5 -55t-27 -85.5t-8.5 -111v-172q0 -24 -17 -41t-40 -17q-24 0 -41 17t-17 41v405q0 23 17 40
t41 17q23 0 40 -17t17 -40v-74q0 -3 5 -4t6 2q17 63 52 98t92 35h5q5 0 5 -5v-8z" />
    <glyph glyph-name="Rcaron" unicode="&#x158;" horiz-adv-x="624" 
d="M331 927q5 -5 7 -6.5t9 2.5q8 4 17.5 13t17.5 18.5t14 17t7 8.5q6 8 13.5 4t17.5 -4h22q17 0 24 -14t-3 -28l-63 -83q-6 -9 -22.5 -17t-26.5 -8h-54q-10 0 -26.5 8t-22.5 17l-63 83q-10 14 -3 28t25 14h28q7 0 22 -6t20 -10zM590 50q3 -5 5 -10q3 -4 5.5 -9t5.5 -10
l6 -10q2 -4 0 -7.5t-6 -3.5h-99q-13 0 -30 10t-24 21l-138 245q-13 23 -1 43.5t39 20.5h37q13 0 30 -10t24 -21zM215 61q0 -25 -18 -43t-43 -18h-6q-25 0 -43 18t-18 43v628q0 25 18 43t43 18h178q263 0 263 -225q0 -183 -263 -183h-55q-24 0 -40 -16t-16 -39v-226zM215 413
q0 -23 16.5 -39.5t39.5 -16.5h56q134 0 134 168q0 210 -136 210h-55q-23 0 -39 -16t-16 -39v-267z" />
    <glyph glyph-name="rcaron" unicode="&#x159;" horiz-adv-x="370" 
d="M203 697q5 -5 7 -6.5t9 2.5q8 4 17.5 13t17.5 18.5t14 17t7 8.5q6 8 13.5 4t17.5 -4h22q17 0 24 -14t-3 -28l-63 -83q-6 -9 -22.5 -17t-26.5 -8h-54q-10 0 -26.5 8t-22.5 17l-63 83q-10 14 -3 28t25 14h28q7 0 22 -6t20 -10zM350 507q0 -6 -6 -6h-6q-41 0 -70 -19.5
t-47.5 -55t-27 -85.5t-8.5 -111v-172q0 -24 -17 -41t-40 -17q-24 0 -41 17t-17 41v405q0 23 17 40t41 17q23 0 40 -17t17 -40v-74q0 -3 5 -4t6 2q17 63 52 98t92 35h5q5 0 5 -5v-8z" />
    <glyph glyph-name="Sacute" unicode="&#x15a;" horiz-adv-x="625" 
d="M304 830q-21 0 -32 15t-4 35l21 59q5 16 23 28.5t35 12.5h31q26 0 37.5 -20.5t-3.5 -42.5l-38 -59q-6 -10 -23 -19t-28 -9h-19zM543 608l-3 -2.5t-3 -3.5h-1q-2 -1 -5.5 0.5t-4.5 3.5q-63 67 -130 101.5t-126 34.5q-46 0 -74 -50t-28 -133q0 -81 160 -108
q130 -22 195.5 -82.5t65.5 -158.5q0 -49 -15.5 -89.5t-46 -69t-76.5 -44.5t-106 -16q-88 0 -163 44.5t-119 132.5q-4 9 4 15t12 -3q43 -85 113.5 -128.5t152.5 -43.5q58 0 87 54t29 144q0 86 -168 115q-257 44 -257 225q0 48 17 87.5t47.5 67t74 43t95.5 15.5q56 0 105 -22
t86 -49q43 -31 79 -71l3 -3q3 -3 0 -6z" />
    <glyph glyph-name="sacute" unicode="&#x15b;" horiz-adv-x="524" 
d="M260 600q-21 0 -32 15t-4 35l21 59q5 16 23 28.5t35 12.5h31q26 0 37.5 -20.5t-3.5 -42.5l-38 -59q-6 -10 -23 -19t-28 -9h-19zM53 126q-2 3 -3 6q-3 5 -3 6l5 3l3 1l3 1l1 1q2 0 4 -2t2 -3q25 -59 83 -94.5t130 -35.5q45 0 72 33.5t27 89.5q0 28 -30.5 48.5t-91.5 28.5
q-99 12 -148.5 57.5t-49.5 111.5q0 33 14.5 60t40.5 46.5t63 30t82 10.5q59 0 112 -36.5t84 -98.5l3 -5q3 -6 -3 -9h-1q-8 -4 -11 2q-28 61 -78 97.5t-104 36.5q-42 0 -66.5 -34t-24.5 -91q0 -28 29 -48.5t87 -27.5q105 -13 157.5 -58t52.5 -110q0 -33 -15.5 -60
t-43.5 -46.5t-67.5 -30t-87.5 -10.5q-76 0 -137 35.5t-89 94.5h-1z" />
    <glyph glyph-name="Scircumflex" unicode="&#x15c;" horiz-adv-x="625" 
d="M312 887q-7 4 -9 2.5t-7 -6.5l-40 -37q-5 -4 -20 -10t-22 -6h-28q-18 0 -25 14t3 28l63 83q6 9 22.5 17t26.5 8h54q10 0 26.5 -8t22.5 -17l63 -83q10 -14 3 -28t-24 -14h-22h-31q-10 13 -20 24q-9 11 -18.5 20t-17.5 13zM543 608l-3 -2.5t-3 -3.5h-1q-2 -1 -5.5 0.5
t-4.5 3.5q-63 67 -130 101.5t-126 34.5q-46 0 -74 -50t-28 -133q0 -81 160 -108q130 -22 195.5 -82.5t65.5 -158.5q0 -49 -15.5 -89.5t-46 -69t-76.5 -44.5t-106 -16q-88 0 -163 44.5t-119 132.5q-4 9 4 15t12 -3q43 -85 113.5 -128.5t152.5 -43.5q58 0 87 54t29 144
q0 86 -168 115q-257 44 -257 225q0 48 17 87.5t47.5 67t74 43t95.5 15.5q56 0 105 -22t86 -49q43 -31 79 -71l3 -3q3 -3 0 -6z" />
    <glyph glyph-name="Scedilla" unicode="&#x15e;" horiz-adv-x="625" 
d="M300 -106v-1v0v1zM335 -93q-25 0 -33 -12q-2 -3 -4 -2q-3 2 -2 5l21 44q7 17 -3 33.5t-28 19.5q-70 13 -128 56t-95 116q-4 9 4 15t12 -3q43 -85 113.5 -128.5t152.5 -43.5q58 0 87 54t29 144q0 86 -168 115q-257 44 -257 225q0 48 17 87.5t47.5 67t74 43t95.5 15.5
q56 0 105 -22t86 -49q43 -31 79 -71l3 -3q3 -3 0 -6l-3 -3l-3 -3q-2 -1 -2.5 -2.5t-1.5 -0.5q-64 71 -133 107t-129 36q-46 0 -74 -50t-28 -133q0 -81 160 -108q130 -22 195.5 -82.5t65.5 -158.5q0 -92 -53 -150.5t-158 -67.5q-13 -1 -29.5 -13t-21.5 -24l-22 -47q0 -1 1 -1
h1q11 9 28 9q45 0 72 -16.5t27 -42.5q0 -48 -27.5 -77.5t-72.5 -29.5q-23 0 -34.5 20.5t-8.5 54.5q0 3 3 6t3 -1q0 -11 9.5 -18t24.5 -7q17 0 27.5 14.5t10.5 37.5t-9.5 37t-25.5 14z" />
    <glyph glyph-name="scedilla" unicode="&#x15f;" horiz-adv-x="524" 
d="M234 -106v-1v0v1zM267 -93q-25 0 -34 -11q-2 -3 -4 -2q-3 2 -2 5l23 52q7 15 -3.5 31t-26.5 19q-58 12 -102.5 44.5t-66.5 80.5q0 2 -2 5.5t-3 5.5l5 3l3 1l3 1l1 1q2 0 4 -2t2 -3q25 -59 83 -94.5t130 -35.5q45 0 72 33.5t27 89.5q0 28 -30.5 48.5t-91.5 28.5
q-99 12 -148.5 57.5t-49.5 111.5q0 33 14.5 60t40.5 46.5t63 30t82 10.5q59 0 112 -36.5t84 -98.5l3 -5q3 -6 -3 -9h-1q-8 -4 -11 2q-28 61 -78 97.5t-104 36.5q-42 0 -66.5 -34t-24.5 -91q0 -28 29 -48.5t87 -27.5q105 -13 157.5 -58t52.5 -110q0 -60 -48 -98.5t-129 -46.5
q-13 -2 -30.5 -14.5t-22.5 -24.5l-23 -51q0 -1 1 -1h1q11 9 28 9q45 0 72 -16.5t27 -42.5q0 -48 -27.5 -77.5t-72.5 -29.5q-23 0 -34.5 20.5t-8.5 54.5q0 3 3 6t3 -1q0 -11 9.5 -18t24.5 -7q17 0 27.5 14.5t10.5 37.5t-9.5 37t-25.5 14h-2z" />
    <glyph glyph-name="Scaron" unicode="&#x160;" horiz-adv-x="625" 
d="M296 927q5 -5 7 -6.5t9 2.5q8 4 17.5 13t17.5 18.5t14 17t7 8.5q6 8 13.5 4t17.5 -4h22q17 0 24 -14t-3 -28l-63 -83q-6 -9 -22.5 -17t-26.5 -8h-54q-10 0 -26.5 8t-22.5 17l-63 83q-10 14 -3 28t25 14h28q7 0 22 -6t20 -10zM543 608l-3 -2.5t-3 -3.5h-1q-2 -1 -5.5 0.5
t-4.5 3.5q-63 67 -130 101.5t-126 34.5q-46 0 -74 -50t-28 -133q0 -81 160 -108q130 -22 195.5 -82.5t65.5 -158.5q0 -49 -15.5 -89.5t-46 -69t-76.5 -44.5t-106 -16q-88 0 -163 44.5t-119 132.5q-4 9 4 15t12 -3q43 -85 113.5 -128.5t152.5 -43.5q58 0 87 54t29 144
q0 86 -168 115q-257 44 -257 225q0 48 17 87.5t47.5 67t74 43t95.5 15.5q56 0 105 -22t86 -49q43 -31 79 -71l3 -3q3 -3 0 -6z" />
    <glyph glyph-name="scaron" unicode="&#x161;" horiz-adv-x="524" 
d="M252 697q5 -5 7 -6.5t9 2.5q8 4 17.5 13t17.5 18.5t14 17t7 8.5q6 8 13.5 4t17.5 -4h22q17 0 24 -14t-3 -28l-63 -83q-6 -9 -22.5 -17t-26.5 -8h-54q-10 0 -26.5 8t-22.5 17l-63 83q-10 14 -3 28t25 14h28q7 0 22 -6t20 -10zM53 126q-2 3 -3 6q-3 5 -3 6l5 3l3 1l3 1l1 1
q2 0 4 -2t2 -3q25 -59 83 -94.5t130 -35.5q45 0 72 33.5t27 89.5q0 28 -30.5 48.5t-91.5 28.5q-99 12 -148.5 57.5t-49.5 111.5q0 33 14.5 60t40.5 46.5t63 30t82 10.5q59 0 112 -36.5t84 -98.5l3 -5q3 -6 -3 -9h-1q-8 -4 -11 2q-28 61 -78 97.5t-104 36.5q-42 0 -66.5 -34
t-24.5 -91q0 -28 29 -48.5t87 -27.5q105 -13 157.5 -58t52.5 -110q0 -33 -15.5 -60t-43.5 -46.5t-67.5 -30t-87.5 -10.5q-76 0 -137 35.5t-89 94.5h-1z" />
    <glyph glyph-name="Tcaron" unicode="&#x164;" horiz-adv-x="595" 
d="M291 927q5 -5 7 -6.5t9 2.5q8 4 17.5 13t17.5 18.5t14 17t7 8.5q6 8 13.5 4t17.5 -4h22q17 0 24 -14t-3 -28l-63 -83q-6 -9 -22.5 -17t-26.5 -8h-54q-10 0 -26.5 8t-22.5 17l-63 83q-10 14 -3 28t25 14h28q7 0 22 -6t20 -10zM577 750q8 0 8 -8t-8 -8h-154q-25 0 -43 -18
t-18 -43v-612q0 -25 -18 -43t-43 -18h-7q-25 0 -43 18t-18 43v612q0 25 -18 43t-43 18h-154q-8 0 -8 8t8 8h559z" />
    <glyph glyph-name="tcaron" unicode="&#x165;" horiz-adv-x="345" 
d="M255 698q0 25 18 43t43 18h2q25 0 38.5 -18t7.5 -42l-13 -49q-4 -16 -20 -28.5t-33 -12.5q-18 0 -30.5 12.5t-12.5 30.5v46zM309 520q6 0 6 -6q0 -7 -6 -7h-49q-23 0 -39 -16t-16 -39v-307q0 -74 0.5 -102.5t4.5 -28.5h98q7 0 7 -7t-7 -7h-105q-40 0 -63 7.5t-34 24.5
t-13.5 44.5t-2.5 68.5v322q0 17 -11.5 28.5t-28.5 11.5h-33q-7 0 -7 7q0 6 7 6h33q17 0 28.5 11.5t11.5 28.5v66q0 9 7.5 25.5t14.5 21.5l36 30q9 8 19 9t18.5 -3t14 -12.5t5.5 -20.5v-101q0 -23 16 -39t39 -16h49z" />
    <glyph glyph-name="Utilde" unicode="&#x168;" horiz-adv-x="704" 
d="M273 842q-1 -8 -7.5 -14.5t-13.5 -6.5l-22 1q-20 0 -31 10.5t-8 30.5q6 46 25 76.5t49 38.5q21 6 23 -19l1 -12v0q-1 14 -2 23.5t-2 9.5q19 0 41 -11.5t40 -26t31 -26.5t14 -14q4 -4 2.5 -2.5t3.5 4.5q11 8 14 46q1 8 7.5 14.5t14.5 6.5h22q20 0 31 -10.5t8 -30.5
q-5 -43 -22.5 -72t-43.5 -40q-16 -7 -23 -0.5t-9 23.5l-1 16l-4 45q2 -25 3 -45q2 -18 3 -31.5t2 -13.5q-20 0 -37.5 12t-33 27t-29 27t-26.5 12q-8 0 -13.5 -13t-6.5 -35zM606 742q0 9 10 9q9 0 9 -9v-447q0 -151 -68 -227t-204 -76q-272 0 -272 298v400q0 25 18 43t43 18
h6q25 0 43 -18t18 -43v-377q0 -151 36 -227t108 -76q253 0 253 289v443z" />
    <glyph glyph-name="utilde" unicode="&#x169;" 
d="M194 621q-1 -8 -7.5 -14.5t-13.5 -6.5l-22 1q-20 0 -31 10.5t-8 30.5q6 46 25 76.5t49 38.5q21 6 23 -19l1 -12v0q-1 14 -2 23.5t-2 9.5q19 0 41 -11.5t40 -26t31 -26.5t14 -14q4 -4 2.5 -2.5t3.5 4.5q11 8 14 46q1 8 7.5 14.5t14.5 6.5h22q20 0 31 -10.5t8 -30.5
q-5 -43 -22.5 -72t-43.5 -40q-16 -7 -23 -0.5t-9 23.5l-1 16l-4 45q2 -25 3 -45q2 -18 3 -31.5t2 -13.5q-20 0 -37.5 12t-33 27t-29 27t-26.5 12q-8 0 -13.5 -13t-6.5 -35zM481 59q0 -24 -17 -41t-40 -17h-7q-21 0 -36 15t-15 36v16q0 3 -5 4t-7 -2q-17 -37 -49.5 -57.5
t-76.5 -20.5q-47 0 -78.5 13.5t-50 39.5t-26 65t-7.5 91v263q0 23 17 40t41 17q23 0 40 -17t17 -40v-263q0 -96 10.5 -144.5t41.5 -48.5q60 0 96.5 38.5t36.5 102.5v315q0 23 17 40t41 17q23 0 40 -17t17 -40v-405z" />
    <glyph glyph-name="Umacron" unicode="&#x16a;" horiz-adv-x="704" 
d="M252 821q-17 0 -28.5 11.5t-11.5 28.5t11.5 28.5t28.5 11.5h200q17 0 28.5 -11.5t11.5 -28.5t-11.5 -28.5t-28.5 -11.5h-200zM605 741q0 9 10 9q9 0 9 -9v-447q0 -151 -68 -227t-204 -76q-272 0 -272 298v400q0 25 18 43t43 18h6q25 0 43 -18t18 -43v-377q0 -151 36 -227
t108 -76q253 0 253 289v443z" />
    <glyph glyph-name="umacron" unicode="&#x16b;" 
d="M173 600q-17 0 -28.5 11.5t-11.5 28.5t11.5 28.5t28.5 11.5h200q17 0 28.5 -11.5t11.5 -28.5t-11.5 -28.5t-28.5 -11.5h-200zM480 58q0 -24 -17 -41t-40 -17h-7q-21 0 -36 15t-15 36v16q0 3 -5 4t-7 -2q-17 -37 -49.5 -57.5t-76.5 -20.5q-47 0 -78.5 13.5t-50 39.5
t-26 65t-7.5 91v263q0 23 17 40t41 17q23 0 40 -17t17 -40v-263q0 -96 10.5 -144.5t41.5 -48.5q60 0 96.5 38.5t36.5 102.5v315q0 23 17 40t41 17q23 0 40 -17t17 -40v-405z" />
    <glyph glyph-name="Ubreve" unicode="&#x16c;" horiz-adv-x="704" 
d="M206 914q-5 21 5 31.5t33 10.5h23q6 0 13 -6.5t8 -12.5q6 -21 22.5 -33t41.5 -12t41.5 12t22.5 33q1 6 8 12.5t13 6.5h24q22 0 32 -10.5t5 -31.5q-13 -47 -51 -74.5t-95 -27.5t-95 27.5t-51 74.5zM605 741q0 9 10 9q9 0 9 -9v-447q0 -151 -68 -227t-204 -76
q-272 0 -272 298v400q0 25 18 43t43 18h6q25 0 43 -18t18 -43v-377q0 -151 36 -227t108 -76q253 0 253 289v443z" />
    <glyph glyph-name="ubreve" unicode="&#x16d;" 
d="M126 693q-5 21 5 31.5t33 10.5h23q6 0 13 -6.5t8 -12.5q6 -21 23 -33t42 -12t41.5 12t22.5 33q1 6 8 12.5t13 6.5h24q22 0 32 -10.5t5 -31.5q-13 -47 -51 -74.5t-95 -27.5t-95.5 27.5t-51.5 74.5zM480 58q0 -24 -17 -41t-40 -17h-7q-21 0 -36 15t-15 36v16q0 3 -5 4
t-7 -2q-17 -37 -49.5 -57.5t-76.5 -20.5q-47 0 -78.5 13.5t-50 39.5t-26 65t-7.5 91v263q0 23 17 40t41 17q23 0 40 -17t17 -40v-263q0 -96 10.5 -144.5t41.5 -48.5q60 0 96.5 38.5t36.5 102.5v315q0 23 17 40t41 17q23 0 40 -17t17 -40v-405z" />
    <glyph glyph-name="Uring" unicode="&#x16e;" horiz-adv-x="704" 
d="M324 906q0 -32 28 -32q29 0 29 32q0 31 -29 31q-28 0 -28 -31zM267 906q0 40 22 62t63 22t63.5 -22t22.5 -62q0 -85 -86 -85q-85 0 -85 85zM605 741q0 9 10 9q9 0 9 -9v-447q0 -151 -68 -227t-204 -76q-272 0 -272 298v400q0 25 18 43t43 18h6q25 0 43 -18t18 -43v-377
q0 -151 36 -227t108 -76q253 0 253 289v443z" />
    <glyph glyph-name="uring" unicode="&#x16f;" 
d="M244 685q0 -32 29 -32q28 0 28 32q0 31 -28 31q-29 0 -29 -31zM187 685q0 40 22.5 62t63.5 22t63 -22t22 -62q0 -85 -85 -85q-86 0 -86 85zM480 58q0 -24 -17 -41t-40 -17h-7q-21 0 -36 15t-15 36v16q0 3 -5 4t-7 -2q-17 -37 -49.5 -57.5t-76.5 -20.5q-47 0 -78.5 13.5
t-50 39.5t-26 65t-7.5 91v263q0 23 17 40t41 17q23 0 40 -17t17 -40v-263q0 -96 10.5 -144.5t41.5 -48.5q60 0 96.5 38.5t36.5 102.5v315q0 23 17 40t41 17q23 0 40 -17t17 -40v-405z" />
    <glyph glyph-name="Wcircumflex" unicode="&#x174;" horiz-adv-x="793" 
d="M407 887q-7 4 -9 2.5t-7 -6.5l-40 -37q-5 -4 -20 -10t-22 -6h-28q-18 0 -25 14t3 28l63 83q6 9 22.5 17t26.5 8h54q10 0 26.5 -8t22.5 -17l63 -83q10 -14 3 -28t-24 -14h-22h-31q-10 13 -20 24q-9 11 -18.5 20t-17.5 13zM761 741q2 9 12 10h4h5q0 -3 -1 -7q0 -3 -1 -7.5
t-2 -10.5q-31 -168 -60 -335.5t-59 -336.5q-4 -20 -22 -37t-39 -17h-22q-21 0 -38.5 15t-21.5 35l-59 318q-4 25 -22 37t-38 12t-38 -12t-22 -37l-59 -318q-4 -20 -21.5 -35t-38.5 -15h-21q-21 0 -38.5 15t-21.5 36l-117 652l-4 22q-2 11 -3 17.5t-1 7.5q0 2 1.5 1t3.5 -1
h127h5q1 -3 1 -7q1 -3 1.5 -7.5t1.5 -10.5l54 -338q4 -23 20.5 -34.5t36.5 -12t37 11t21 34.5l57 314q4 20 21.5 35t38.5 15h22q21 0 38.5 -15t21.5 -35l60 -326q4 -24 21 -35.5t37 -11.5t37 12t21 35l57 326z" />
    <glyph glyph-name="Ycircumflex" unicode="&#x176;" horiz-adv-x="600" 
d="M313 887q-7 4 -9 2.5t-7 -6.5l-40 -37q-5 -4 -20 -10t-22 -6h-28q-18 0 -25 14t3 28l63 83q6 9 22.5 17t26.5 8h54q10 0 26.5 -8t22.5 -17l63 -83q10 -14 3 -28t-24 -14h-22h-31q-10 13 -20 24q-9 11 -18.5 20t-17.5 13zM133 750q5 0 10.5 -3.5t7.5 -7.5l8 -14t7 -13
q4 -7 7 -13l174 -315q4 -7 13 -7q8 1 12 8l179 328q4 7 11.5 21t8.5 16q2 3 4 1.5t6 -1.5q9 0 4 -8l-196 -357q-2 -3 -5 -15t-3 -15v-294q0 -25 -18 -43t-43 -18h-6q-25 0 -43 18t-18 43v253q0 3 -3 15t-5 15l-200 356l-4 8q-3 4 -5.5 9t-5.5 10l-6 12q-3 4 -1 7.5t7 3.5
h103z" />
    <glyph glyph-name="Ydieresis" unicode="&#x178;" horiz-adv-x="600" 
d="M382 830q-25 0 -43 18t-18 43v3q0 25 18 43t43 18h3q25 0 43 -18t18 -43v-3q0 -25 -18 -43t-43 -18h-3zM222 830q-25 0 -43 18t-18 43v3q0 25 18 43t43 18h3q25 0 43 -18t18 -43v-3q0 -25 -18 -43t-43 -18h-3zM133 750q5 0 10.5 -3.5t7.5 -7.5l8 -14t7 -13q4 -7 7 -13
l174 -315q4 -7 13 -7q8 1 12 8l179 328q4 7 11.5 21t8.5 16q2 3 4 1.5t6 -1.5q9 0 4 -8l-196 -357q-2 -3 -5 -15t-3 -15v-294q0 -25 -18 -43t-43 -18h-6q-25 0 -43 18t-18 43v253q0 3 -3 15t-5 15l-200 356l-4 8q-3 4 -5.5 9t-5.5 10l-6 12q-3 4 -1 7.5t7 3.5h103z" />
    <glyph glyph-name="Zacute" unicode="&#x179;" horiz-adv-x="655" 
d="M336 830q-21 0 -32 15t-4 35l21 59q5 16 23 28.5t35 12.5h31q26 0 37.5 -20.5t-3.5 -42.5l-38 -59q-6 -10 -23 -19t-28 -9h-19zM602 16q8 0 8 -8t-8 -8h-549q-8 0 -8 8q0 2 1.5 7.5t2.5 7.5l364 618q9 17 9.5 33.5t-7.5 29.5t-22 21.5t-33 8.5h-292q-8 0 -8 8t8 8h534
q8 0 8 -8q0 -2 -1.5 -7.5t-2.5 -7.5l-364 -618q-9 -17 -9.5 -33.5t7.5 -29.5t22 -21.5t33 -8.5h307z" />
    <glyph glyph-name="zacute" unicode="&#x17a;" horiz-adv-x="460" 
d="M243 600q-21 0 -31.5 15t-4.5 35l22 59q5 16 22.5 28.5t34.5 12.5h32q26 0 37 -20.5t-3 -42.5l-39 -59q-6 -10 -23 -19t-28 -9h-19zM390 163q0 3 4 3h43q3 0 3 -3q0 -4 -3 -4h-43q-4 0 -4 4zM52 507q-7 0 -7 7q0 6 7 6h367q5 0 5 -5t-7 -5q-133 -3 -272 -3h-93zM30 6
q0 1 1 5t2 5l237 455q6 11 22 21.5t29 11.5l34 2q24 1 35.5 -17.5t0.5 -40.5l-214 -400q-5 -8 -19.5 -18.5t-23.5 -12.5q-2 0 -0.5 -2t3.5 -2q73 1 147 1h148q8 0 8 -7t-7 -7h-397q-6 0 -6 6z" />
    <glyph glyph-name="Zdot" unicode="&#x17b;" horiz-adv-x="655" 
d="M334 830q-25 0 -43 18t-18 43v3q0 25 18 43t43 18h3q25 0 43 -18t18 -43v-3q0 -25 -18 -43t-43 -18h-3zM602 16q8 0 8 -8t-8 -8h-549q-8 0 -8 8q0 2 1.5 7.5t2.5 7.5l364 618q9 17 9.5 33.5t-7.5 29.5t-22 21.5t-33 8.5h-292q-8 0 -8 8t8 8h534q8 0 8 -8q0 -2 -1.5 -7.5
t-2.5 -7.5l-364 -618q-9 -17 -9.5 -33.5t7.5 -29.5t22 -21.5t33 -8.5h307z" />
    <glyph glyph-name="zdot" unicode="&#x17c;" horiz-adv-x="460" 
d="M241 600q-25 0 -43 18t-18 43v3q0 25 18 43t43 18h3q25 0 43 -18t18 -43v-3q0 -25 -18 -43t-43 -18h-3zM390 163q0 3 4 3h43q3 0 3 -3q0 -4 -3 -4h-43q-4 0 -4 4zM52 507q-7 0 -7 7q0 6 7 6h367q5 0 5 -5t-7 -5q-133 -3 -272 -3h-93zM30 6q0 1 1 5t2 5l237 455
q6 11 22 21.5t29 11.5l34 2q24 1 35.5 -17.5t0.5 -40.5l-214 -400q-5 -8 -19.5 -18.5t-23.5 -12.5q-2 0 -0.5 -2t3.5 -2q73 1 147 1h148q8 0 8 -7t-7 -7h-397q-6 0 -6 6z" />
    <glyph glyph-name="Zcaron" unicode="&#x17d;" horiz-adv-x="655" 
d="M328 927q5 -5 7 -6.5t9 2.5q8 4 17.5 13t17.5 18.5t14 17t7 8.5q6 8 13.5 4t17.5 -4h22q17 0 24 -14t-3 -28l-63 -83q-6 -9 -22.5 -17t-26.5 -8h-54q-10 0 -26.5 8t-22.5 17l-63 83q-10 14 -3 28t25 14h28q7 0 22 -6t20 -10zM602 16q8 0 8 -8t-8 -8h-549q-8 0 -8 8
q0 2 1.5 7.5t2.5 7.5l364 618q9 17 9.5 33.5t-7.5 29.5t-22 21.5t-33 8.5h-292q-8 0 -8 8t8 8h534q8 0 8 -8q0 -2 -1.5 -7.5t-2.5 -7.5l-364 -618q-9 -17 -9.5 -33.5t7.5 -29.5t22 -21.5t33 -8.5h307z" />
    <glyph glyph-name="zcaron" unicode="&#x17e;" horiz-adv-x="460" 
d="M236 697q5 -5 7 -6.5t9 2.5q8 4 17.5 13t17.5 18.5t14 17t7 8.5q6 8 13.5 4t17.5 -4h22q17 0 24 -14t-3 -28l-63 -83q-6 -9 -22.5 -17t-26.5 -8h-54q-10 0 -26.5 8t-22.5 17l-63 83q-10 14 -3 28t25 14h28q7 0 22 -6t20 -10zM390 163q0 3 4 3h43q3 0 3 -3q0 -4 -3 -4h-43
q-4 0 -4 4zM52 507q-7 0 -7 7q0 6 7 6h367q5 0 5 -5t-7 -5q-133 -3 -272 -3h-93zM30 6q0 1 1 5t2 5l237 455q6 11 22 21.5t29 11.5l34 2q24 1 35.5 -17.5t0.5 -40.5l-214 -400q-5 -8 -19.5 -18.5t-23.5 -12.5q-2 0 -0.5 -2t3.5 -2q73 1 147 1h148q8 0 8 -7t-7 -7h-397
q-6 0 -6 6z" />
    <glyph glyph-name="oogonek" unicode="&#x1eb;" horiz-adv-x="754" 
d="M184 299q0 -66 14 -120t39.5 -92.5t62 -59.5t80.5 -21q39 0 73 18q14 7 3 19l-48 53q-5 5 0 10q5 4 10 -1q12 -13 26.5 -25t29.5 -22q15 -11 27 2q35 38 54.5 98.5t19.5 139.5q0 63 -15 117t-41 93t-61.5 61.5t-77.5 22.5t-78 -22.5t-62 -61.5t-41 -93t-15 -117v1z
M60 300q0 66 24 122t67 97.5t101.5 65t126.5 23.5t126.5 -23.5t101.5 -64.5t67 -97.5t24 -122.5q0 -88 -36 -154.5t-100 -105.5q-9 -6 -10 -16t9 -15q31 -16 53 -24.5t24 -9.5q4 -2 3 -3.5t-5 -4t-9 -5t-8 -5.5l-33 -30l-17 -16q-8 9 -18 22q-9 11 -22 26t-30 35
q-4 4 -13.5 7t-15.5 1q-42 -10 -90 -10q-72 0 -131 22t-101 62.5t-65 97t-23 125.5v1z" />
    <glyph glyph-name="Adotabove" unicode="&#x226;" horiz-adv-x="754" 
d="M393 830q-25 0 -43 18t-18 43v3q0 25 18 43t43 18h3q25 0 43 -18t18 -43v-3q0 -25 -18 -43t-43 -18h-3zM513 252q2 -7 -5 -7l-313 1q-17 0 -34.5 -12t-23.5 -28l-58 -155q-4 -10 -8 -20.5t-8 -20.5q-3 -9 -12 -9h-7h-5q1 3 2 7q1 3 3 7.5t4 10.5q5 12 18 47.5t32 85.5
t41.5 110t45.5 121t44.5 118t38.5 101.5t27.5 71.5t10.5 28l8 21q3 8 12.5 14.5t17.5 6.5h75q16 0 33.5 -12t23.5 -28l251 -663l9 -22q4 -11 6.5 -17.5t2.5 -7.5q1 -2 -1 -1t-4 1h-112q-8 0 -16 5.5t-11 12.5l-7 19l-5 12q-18 51 -37.5 101.5t-38.5 101.5v-0.5v-0.5z
M188 344q-12 -32 5.5 -57.5t52.5 -25.5h175q35 0 52.5 25.5t5.5 57.5l-88 234q-7 21 -23 31.5t-34 10.5t-34 -10.5t-24 -30.5z" />
    <glyph glyph-name="G_sc" unicode="&#x262;" horiz-adv-x="688" 
d="M434 330q-7 0 -7 7q-1 7 6 7h148q25 0 43 -18t18 -43v-150q0 -10 -8.5 -26.5t-15.5 -22.5q-56 -43 -110 -68t-97 -25q-80 0 -146 22t-113 62.5t-72.5 97t-25.5 125.5t25.5 126t72.5 97.5t113 62.5t146 22q37 0 72.5 -26.5t63.5 -58.5q33 -38 62 -86l3 -4q3 -5 -1 -8
l-2 -2q-6 -5 -11 3q-22 38 -46.5 69t-49 53t-47.5 34t-43 12q-52 0 -95 -21t-74 -60t-47.5 -93t-16.5 -120t16.5 -120t47.5 -92.5t74 -59.5t95 -21q39 0 89 24t103 64q8 7 15.5 22.5t7.5 25.5v128q0 25 -18 43t-43 18h-132z" />
    <glyph glyph-name="I_sc" unicode="&#x26a;" horiz-adv-x="295" 
d="M210 58q0 -24 -17 -41t-41 -17t-41 17t-17 41v481q0 24 17 41t41 17t41 -17t17 -41v-481z" />
    <glyph glyph-name="N_sc" unicode="&#x274;" horiz-adv-x="586" 
d="M132 9q0 -9 -8 -9q-9 0 -9 9v527q0 25 18 43t43 18h20q16 0 33.5 -11.5t23.5 -25.5l117 -275q10 -22 28.5 -30t37.5 -4t33.5 18.5t14.5 38.5v281q0 8 9 8q8 0 8 -8v-528q0 -25 -18 -43t-43 -18h-29q-16 0 -33.5 11.5t-23.5 25.5l-113 264q-8 21 -26.5 28.5t-36.5 3.5
t-32 -18t-14 -36v-270z" />
    <glyph glyph-name="R_sc" unicode="&#x280;" horiz-adv-x="564" 
d="M522 50q6 -8 11 -16q4 -6 8.5 -12.5t6.5 -9.5l4 -6q4 -6 -3 -6h-94q-11 0 -27.5 9t-22.5 18l-133 194q-13 18 -3.5 36t32.5 18h34q11 0 27.5 -8.5t22.5 -18.5zM206 58q0 -24 -17 -41t-41 -17t-41 17t-17 41v478q0 25 18 43t43 18h127q251 0 251 -179q0 -141 -251 -141
h-36q-15 0 -25.5 -10.5t-10.5 -25.5v-183zM206 327q0 -16 10.5 -26t26.5 -10h36q134 0 134 127q0 165 -136 165h-35q-15 0 -25.5 -10.5t-10.5 -24.5v-221z" />
    <glyph glyph-name="Y_sc" unicode="&#x28f;" horiz-adv-x="540" 
d="M505 590q2 2 7 4.5t9 2.5l2 -1h7q-3 -3 -6 -7t-7 -8.5t-9 -10.5l-19 -23l-130 -154q-3 -4 -8.5 -18.5t-5.5 -20.5v-297q0 -24 -17 -41t-41 -17t-41 17t-17 41v251q0 5 -5 19t-8 19l-159 201q-13 16 -5 32.5t29 16.5h46q5 0 14 -4t12 -8l10 -13l14 -18l125 -158
q3 -4 9.5 -7t10.5 -3t11 3.5t9 6.5l127 152q3 4 7 8q3 4 6.5 8.5t8.5 9.5z" />
    <glyph glyph-name="B_sc" unicode="&#x299;" horiz-adv-x="632" 
d="M448 343q-3 -1 -2 -8t5 -7q68 -15 107 -55.5t39 -99.5q0 -46 -13.5 -79t-43 -53.5t-76 -30t-112.5 -9.5h-201q-25 0 -43 18t-18 43v475q0 25 18 43t43 18h164q66 0 112.5 -8.5t76 -27.5t43 -49t13.5 -72q0 -34 -29.5 -59.5t-82.5 -38.5zM206 398q0 -25 18 -43t43 -18h62
q51 0 81 26t30 68q0 82 -28.5 117t-95.5 35l-55 1q-23 0 -39 -16t-16 -39v-131zM206 74q0 -25 18 -43t43 -18h80q68 0 97 39.5t29 132.5q0 63 -28 101t-74 38h-104q-25 0 -43 -18t-18 -43v-189z" />
    <glyph glyph-name="H_sc" unicode="&#x29c;" horiz-adv-x="692" 
d="M607 58q0 -24 -17 -41t-40 -17q-24 0 -41 17t-17 41v177q0 25 -18 43t-43 18h-164q-25 0 -43 -18t-18 -43v-177q0 -24 -17 -41t-41 -17t-41 17t-17 41v481q0 24 17 41t41 17t41 -17t17 -41v-168q0 -25 18 -43t43 -18h164q25 0 43 18t18 43v169q0 23 17 40t41 17
q23 0 40 -17t17 -40v-482z" />
    <glyph glyph-name="L_sc" unicode="&#x29f;" horiz-adv-x="505" 
d="M468 14q7 0 7 -7t-7 -7h-313q-25 0 -43 18t-18 43v478q0 24 17 41t41 17t41 -17t17 -41v-464q0 -25 18 -43t43 -18h197z" />
    <glyph glyph-name="circumflex" unicode="&#x2c6;" horiz-adv-x="340" 
d="M179 657q-7 4 -9 2.5t-7 -6.5l-40 -37q-5 -4 -20 -10t-22 -6h-28q-18 0 -25 14t3 28l63 83q6 9 22.5 17t26.5 8h54q10 0 26.5 -8t22.5 -17l63 -83q10 -14 3 -28t-24 -14h-22h-31q-10 13 -20 24q-9 11 -18.5 20t-17.5 13z" />
    <glyph glyph-name="caron" unicode="&#x2c7;" horiz-adv-x="340" 
d="M163 697q5 -5 7 -6.5t9 2.5q8 4 17.5 13t17.5 18.5t14 17t7 8.5q6 8 13.5 4t17.5 -4h22q17 0 24 -14t-3 -28l-63 -83q-6 -9 -22.5 -17t-26.5 -8h-54q-10 0 -26.5 8t-22.5 17l-63 83q-10 14 -3 28t25 14h28q7 0 22 -6t20 -10z" />
    <glyph glyph-name="firsttonechinese" unicode="&#x2c9;" horiz-adv-x="340" 
d="M70 600q-17 0 -28.5 11.5t-11.5 28.5t11.5 28.5t28.5 11.5h200q17 0 28.5 -11.5t11.5 -28.5t-11.5 -28.5t-28.5 -11.5h-200z" />
    <glyph glyph-name="breve" unicode="&#x2d8;" horiz-adv-x="340" 
d="M24 693q-5 21 5 31.5t33 10.5h23q6 0 13 -6.5t8 -12.5q6 -21 22.5 -33t41.5 -12t41.5 12t22.5 33q1 6 8 12.5t13 6.5h24q22 0 32 -10.5t5 -31.5q-13 -47 -51 -74.5t-95 -27.5t-95 27.5t-51 74.5z" />
    <glyph glyph-name="dotaccent" unicode="&#x2d9;" horiz-adv-x="340" 
d="M169 600q-25 0 -43 18t-18 43v3q0 25 18 43t43 18h3q25 0 43 -18t18 -43v-3q0 -25 -18 -43t-43 -18h-3z" />
    <glyph glyph-name="ring" unicode="&#x2da;" horiz-adv-x="340" 
d="M142 685q0 -32 28 -32q29 0 29 32q0 31 -29 31q-28 0 -28 -31zM85 685q0 40 22 62t63 22t63.5 -22t22.5 -62q0 -85 -86 -85q-85 0 -85 85z" />
    <glyph glyph-name="A_sc" unicode="&#x1d00;" horiz-adv-x="691" 
d="M80 50q-6 -13 -11 -24q-4 -10 -7.5 -17.5t-3.5 -8.5h-8q-9 0 -6 8l232 539q6 13 11 24q4 10 7.5 17.5t3.5 8.5h84q15 0 32.5 -11.5t23.5 -25.5l235 -539q4 -9 6.5 -14.5t2.5 -6.5q1 -1 -1 -0.5t-3 0.5h-89q-10 0 -22 7.5t-16 17.5l-11 25l-46 107q-6 14 -23.5 25.5
t-32.5 11.5h-257q-15 0 -32.5 -11.5t-23.5 -25.5l-46 -107h1zM185 293q-7 -17 -5.5 -32t9 -27t21.5 -19.5t31 -7.5h140q17 0 31 7.5t21.5 19.5t9 27t-5.5 32l-70 161q-8 20 -23.5 30t-32.5 10t-32.5 -10t-23.5 -30z" />
    <glyph glyph-name="C_sc" unicode="&#x1d04;" horiz-adv-x="637" 
d="M600 173q4 8 10 3q6 -6 2 -14q-18 -38 -43 -70t-54 -54t-60.5 -34.5t-63.5 -12.5q-76 0 -138 24.5t-106 66.5t-68.5 98t-24.5 118t24.5 118t68.5 98t106 67t138 25q45 0 85 -26.5t70 -58.5q35 -38 65 -86l4 -6q2 -3 -1 -5l-3 -3l-3 -2q-2 -2 -2.5 -3.5t-1.5 0.5
q-23 40 -49.5 72.5t-54.5 55.5t-55.5 35.5t-52.5 12.5q-48 0 -87.5 -23.5t-67 -64t-43 -93.5t-15.5 -113q0 -59 15.5 -112.5t43 -93.5t67 -63.5t87.5 -23.5q29 0 58.5 12t57 34t51.5 53t41 69z" />
    <glyph glyph-name="D_sc" unicode="&#x1d05;" horiz-adv-x="705" 
d="M320 0h-169q-25 0 -43 18t-18 43v475q0 25 18 43t43 18h139q180 0 270 -75t90 -224q0 -152 -80.5 -225t-249.5 -73zM206 70q0 -24 16.5 -40.5t40.5 -16.5h56q106 0 156.5 69.5t50.5 215.5q0 142 -59 213.5t-176 71.5q-16 0 -35 0.5t-37 0.5q-13 0 -13 -13v-501z" />
    <glyph glyph-name="E_sc" unicode="&#x1d07;" horiz-adv-x="571" 
d="M514 14q7 0 7 -7t-7 -7h-363q-25 0 -43 18t-18 43v475q0 25 18 43t43 18h348q7 0 7 -7t-7 -7h-232q-25 0 -43 -18t-18 -43v-146q0 -25 18 -43t43 -18h212q7 0 7 -7t-7 -7h-212q-25 0 -43 -18t-18 -43v-165q0 -25 18 -43t43 -18h247z" />
    <glyph glyph-name="J_sc" unicode="&#x1d0a;" horiz-adv-x="493" 
d="M52 249q0 12 9 23t22 13l60 11q10 1 17.5 -5t7.5 -16l-1 -25q0 -127 15.5 -185t47.5 -58q31 0 46.5 46t15.5 122v364q0 24 17 41t41 17t41 -17t17 -41v-364q0 -83 -45 -133.5t-133 -50.5q-93 0 -135.5 54t-42.5 172v32z" />
    <glyph glyph-name="K_sc" unicode="&#x1d0b;" horiz-adv-x="609" 
d="M565 50l25 -37l5 -6q4 -7 -4 -7h-93q-10 0 -26 8t-22 16l-18 24l-148 201q-13 17 -11.5 40t15.5 38l8 8q17 18 40 16.5t37 -22.5zM496 548q-69 -74 -137.5 -145.5t-137.5 -144.5q-5 -5 -10 -19.5t-5 -21.5v-158q0 -24 -17 -41t-41 -17t-41 17t-17 41v481q0 24 17 41
t41 17t41 -17t17 -41v-124q0 -21 11 -36.5t27 -22t34.5 -3t33.5 19.5l169 179q2 2 8.5 9t14 14.5t13 13.5t6.5 7q2 2 4.5 1t5.5 -1t4 -2.5t-1 -4.5l-31 -33l-9 -10v1z" />
    <glyph glyph-name="M_sc" unicode="&#x1d0d;" horiz-adv-x="761" 
d="M132 9q0 -9 -8 -9q-9 0 -9 9v530q0 24 17 41t42 17h11q19 0 37 -13.5t23 -31.5l89 -317q6 -23 23 -34t36 -11t36 11t23 34l90 317q5 18 23 31.5t36 13.5h15q25 0 42.5 -17.5t17.5 -42.5v-481q0 -24 -16 -40t-39 -16q-24 0 -40 16t-16 40v232q0 16 -10.5 26t-24.5 12
t-27 -4.5t-17 -22.5l-73 -254q-5 -18 -23 -31.5t-36 -13.5h-11q-18 0 -36 13.5t-23 31.5l-73 254q-4 16 -17 22.5t-27 4.5t-24.5 -12t-10.5 -26v-279z" />
    <glyph glyph-name="O_sc" unicode="&#x1d0f;" horiz-adv-x="754" 
d="M184 298q0 -66 14 -120t39.5 -92.5t62 -59.5t80.5 -21t80 21t61.5 59.5t39.5 92.5t14 120q0 63 -15 117t-41 93t-61.5 61.5t-77.5 22.5t-78 -22.5t-62 -61.5t-41 -93t-15 -117zM60 298q0 66 24.5 122.5t67.5 97.5t101.5 64.5t126.5 23.5t126.5 -23.5t101.5 -64.5
t67 -97.5t24 -122.5q0 -69 -23 -125.5t-65 -97t-100.5 -62.5t-130.5 -22t-131 22t-101 62.5t-65 97t-23 125.5z" />
    <glyph glyph-name="P_sc" unicode="&#x1d18;" horiz-adv-x="564" 
d="M206 58q0 -24 -17 -41t-41 -17t-41 17t-17 41v478q0 25 18 43t43 18h127q251 0 251 -179q0 -157 -251 -157h-36q-15 0 -25.5 -10.5t-10.5 -25.5v-167zM206 311q0 -16 10.5 -26.5t26.5 -10.5h36q134 0 134 144q0 165 -136 165h-35q-15 0 -25.5 -10.5t-10.5 -24.5v-237z
" />
    <glyph glyph-name="T_sc" unicode="&#x1d1b;" horiz-adv-x="535" 
d="M518 597q7 0 7 -7t-7 -7h-132q-25 0 -43 -18t-18 -43v-464q0 -24 -17 -41t-40 -17q-24 0 -41 17t-17 41v464q0 25 -18 43t-43 18h-132q-7 0 -7 7t7 7h501z" />
    <glyph glyph-name="U_sc" unicode="&#x1d1c;" horiz-adv-x="634" 
d="M537 589q0 8 9 8q8 0 8 -8v-355q0 -121 -59 -182t-176 -61q-236 0 -236 239v309q0 24 17 41t41 17t41 -17t17 -41v-289q0 -121 30 -182t90 -61q218 0 218 230v352z" />
    <glyph glyph-name="V_sc" unicode="&#x1d20;" horiz-adv-x="533" 
d="M501 588q3 9 13 10h9q-4 -11 -7 -21q-3 -8 -5 -15t-3 -9l-171 -510q-5 -17 -23 -29.5t-35 -12.5h-19q-17 0 -35 12.5t-23 29.5l-171 508q-1 1 -3.5 8.5t-5 15.5t-5 15t-2.5 8q-3 8 5.5 4t17.5 -4h96q5 0 6 -4q3 -8 7 -20t5 -19l2 -6l104 -340q7 -23 23.5 -34t35 -11
t35 10.5t23.5 32.5z" />
    <glyph glyph-name="W_sc" unicode="&#x1d21;" horiz-adv-x="723" 
d="M685 547l2 12q1 5 1.5 8.5t0.5 4.5l3 16q2 9 12 9q9 0 7 -9l-8 -41q-26 -124 -51 -246.5t-50 -245.5q-4 -20 -22.5 -37.5t-38.5 -17.5h-11q-20 0 -38 14.5t-22 34.5l-48 231q-5 23 -22 34.5t-36.5 11.5t-36.5 -11.5t-21 -34.5l-49 -231q-4 -20 -22 -34.5t-38 -14.5h-11
q-20 0 -38 14.5t-22 34.5l-101 498q-1 0 -3 11.5t-2 13.5l-2 13q-3 12 10 12h98q13 0 16 -12l2 -13q2 -10 3 -16t1 -8l46 -255q4 -19 18 -29t30.5 -10.5t31.5 9.5t19 29l53 256q4 20 22 34.5t38 14.5h11q20 0 38 -14.5t22 -34.5l53 -256q5 -21 20 -31t32 -10t32 10t20 31
l50 255h1z" />
    <glyph glyph-name="Z_sc" unicode="&#x1d22;" horiz-adv-x="595" 
d="M543 14q7 0 7 -7t-7 -7h-491q-7 0 -7 7q0 2 1.5 6.5t2.5 6.5l314 467q11 17 11.5 34t-6.5 30.5t-21.5 22.5t-34.5 9h-245q-7 0 -7 7t7 7h476q7 0 7 -7q0 -2 -1.5 -6.5t-2.5 -6.5l-314 -467q-11 -17 -11.5 -34t6.5 -30.5t21.5 -22.5t34.5 -9h260z" />
    <glyph glyph-name="Wgrave" unicode="&#x1e80;" horiz-adv-x="793" 
d="M378 830q-11 0 -28 9t-23 19l-38 59q-15 22 -3.5 42.5t37.5 20.5h31q17 0 35 -12.5t23 -28.5l21 -59q7 -20 -4 -35t-31 -15h-20zM761 741q2 9 12 10h4h5q0 -3 -1 -7q0 -3 -1 -7.5t-2 -10.5q-31 -168 -60 -335.5t-59 -336.5q-4 -20 -22 -37t-39 -17h-22q-21 0 -38.5 15
t-21.5 35l-59 318q-4 25 -22 37t-38 12t-38 -12t-22 -37l-59 -318q-4 -20 -21.5 -35t-38.5 -15h-21q-21 0 -38.5 15t-21.5 36l-117 652l-4 22q-2 11 -3 17.5t-1 7.5q0 2 1.5 1t3.5 -1h127h5q1 -3 1 -7q1 -3 1.5 -7.5t1.5 -10.5l54 -338q4 -23 20.5 -34.5t36.5 -12t37 11
t21 34.5l57 314q4 20 21.5 35t38.5 15h22q21 0 38.5 -15t21.5 -35l60 -326q4 -24 21 -35.5t37 -11.5t37 12t21 35l57 326z" />
    <glyph glyph-name="Wacute" unicode="&#x1e82;" horiz-adv-x="793" 
d="M398 830q-21 0 -31.5 15t-4.5 35l22 59q5 16 22.5 28.5t34.5 12.5h32q26 0 37 -20.5t-3 -42.5l-39 -59q-6 -10 -23 -19t-28 -9h-19zM761 741q2 9 12 10h4h5q0 -3 -1 -7q0 -3 -1 -7.5t-2 -10.5q-31 -168 -60 -335.5t-59 -336.5q-4 -20 -22 -37t-39 -17h-22q-21 0 -38.5 15
t-21.5 35l-59 318q-4 25 -22 37t-38 12t-38 -12t-22 -37l-59 -318q-4 -20 -21.5 -35t-38.5 -15h-21q-21 0 -38.5 15t-21.5 36l-117 652l-4 22q-2 11 -3 17.5t-1 7.5q0 2 1.5 1t3.5 -1h127h5q1 -3 1 -7q1 -3 1.5 -7.5t1.5 -10.5l54 -338q4 -23 20.5 -34.5t36.5 -12t37 11
t21 34.5l57 314q4 20 21.5 35t38.5 15h22q21 0 38.5 -15t21.5 -35l60 -326q4 -24 21 -35.5t37 -11.5t37 12t21 35l57 326z" />
    <glyph glyph-name="Wdieresis" unicode="&#x1e84;" horiz-adv-x="793" 
d="M476 830q-25 0 -43 18t-18 43v3q0 25 18 43t43 18h3q25 0 43 -18t18 -43v-3q0 -25 -18 -43t-43 -18h-3zM316 830q-25 0 -43 18t-18 43v3q0 25 18 43t43 18h3q25 0 43 -18t18 -43v-3q0 -25 -18 -43t-43 -18h-3zM761 741q2 9 12 10h4h5q0 -3 -1 -7q0 -3 -1 -7.5t-2 -10.5
q-31 -168 -60 -335.5t-59 -336.5q-4 -20 -22 -37t-39 -17h-22q-21 0 -38.5 15t-21.5 35l-59 318q-4 25 -22 37t-38 12t-38 -12t-22 -37l-59 -318q-4 -20 -21.5 -35t-38.5 -15h-21q-21 0 -38.5 15t-21.5 36l-117 652l-4 22q-2 11 -3 17.5t-1 7.5q0 2 1.5 1t3.5 -1h127h5
q1 -3 1 -7q1 -3 1.5 -7.5t1.5 -10.5l54 -338q4 -23 20.5 -34.5t36.5 -12t37 11t21 34.5l57 314q4 20 21.5 35t38.5 15h22q21 0 38.5 -15t21.5 -35l60 -326q4 -24 21 -35.5t37 -11.5t37 12t21 35l57 326z" />
    <glyph glyph-name="Etilde" unicode="&#x1ebc;" horiz-adv-x="640" 
d="M252 851q-1 -8 -7.5 -14.5t-13.5 -6.5l-22 1q-20 0 -31 10.5t-8 30.5q6 46 25 76.5t49 38.5q21 6 23 -19l1 -12v0q-1 14 -2 23.5t-2 9.5q19 0 41 -11.5t40 -26t31 -26.5t14 -14q4 -4 2.5 -2.5t3.5 4.5q11 8 14 46q1 8 7.5 14.5t14.5 6.5h22q20 0 31 -10.5t8 -30.5
q-5 -43 -22.5 -72t-43.5 -40q-16 -7 -23 -0.5t-9 23.5l-1 16l-4 45q2 -25 3 -45q2 -18 3 -31.5t2 -13.5q-20 0 -37.5 12t-33 27t-29 27t-26.5 12q-8 0 -13.5 -13t-6.5 -35zM583 17q8 0 8 -8t-8 -8h-434q-25 0 -43 18t-18 43v628q0 25 18 43t43 18h419q8 0 8 -8t-8 -8h-291
q-25 0 -43 -18t-18 -43v-218q0 -25 18 -43t43 -18h272q7 0 7 -7t-7 -7h-272q-25 0 -43 -18t-18 -43v-242q0 -25 18 -43t43 -18h306z" />
    <glyph glyph-name="Ygrave" unicode="&#x1ef2;" horiz-adv-x="600" 
d="M284 830q-11 0 -28 9t-23 19l-38 59q-15 22 -3.5 42.5t37.5 20.5h31q17 0 35 -12.5t23 -28.5l21 -59q7 -20 -4 -35t-31 -15h-20zM133 750q5 0 10.5 -3.5t7.5 -7.5l8 -14t7 -13q4 -7 7 -13l174 -315q4 -7 13 -7q8 1 12 8l179 328q4 7 11.5 21t8.5 16q2 3 4 1.5t6 -1.5
q9 0 4 -8l-196 -357q-2 -3 -5 -15t-3 -15v-294q0 -25 -18 -43t-43 -18h-6q-25 0 -43 18t-18 43v253q0 3 -3 15t-5 15l-200 356l-4 8q-3 4 -5.5 9t-5.5 10l-6 12q-3 4 -1 7.5t7 3.5h103z" />
    <glyph glyph-name="endash" unicode="&#x2013;" horiz-adv-x="410" 
d="M53 216q-20 0 -34 14t-14 34q0 19 14 33t34 14h305q19 0 33 -14t14 -33q0 -20 -14 -34t-33 -14h-305z" />
    <glyph glyph-name="emdash" unicode="&#x2014;" horiz-adv-x="700" 
d="M98 216q-20 0 -34 14t-14 34q0 19 14 33t34 14h505q19 0 33 -14t14 -33q0 -20 -14 -34t-33 -14h-505z" />
    <glyph glyph-name="quoteleft" unicode="&#x2018;" horiz-adv-x="225" 
d="M144 757q14 2 22.5 -6t8.5 -22v-12q0 -5 -6 -12t-11 -8q-26 -8 -32 -40q-3 -18 17 -18h7q10 0 17.5 -7.5t7.5 -17.5v-39q0 -25 -18 -43t-43 -18h-3q-25 0 -43 18t-18 43v64q0 48 21.5 79t72.5 39z" />
    <glyph glyph-name="quoteright" unicode="&#x2019;" horiz-adv-x="225" 
d="M113 698q0 25 18 43t43 18h3q25 0 43 -18t18 -43v-64q0 -57 -21.5 -85t-72.5 -33q-14 -2 -22.5 6t-8.5 22v12q0 6 5.5 12t11.5 8q27 5 32 38q3 20 -20 20h-4q-10 0 -17.5 7.5t-7.5 17.5v39z" />
    <glyph glyph-name="quotedblleft" unicode="&#x201c;" horiz-adv-x="475" 
d="M394 757q14 2 22.5 -6t8.5 -22v-12q0 -5 -6 -12t-11 -8q-26 -8 -32 -40q-3 -18 17 -18h7q10 0 17.5 -7.5t7.5 -17.5v-39q0 -25 -18 -43t-43 -18h-3q-25 0 -43 18t-18 43v64q0 48 21.5 79t72.5 39zM207 757q14 2 22.5 -6t8.5 -22v-12q0 -5 -6 -12t-11 -8q-26 -8 -32 -40
q-3 -18 17 -18h7q10 0 17.5 -7.5t7.5 -17.5v-39q0 -25 -18 -43t-43 -18h-3q-25 0 -43 18t-18 43v64q0 48 21.5 79t72.5 39z" />
    <glyph glyph-name="quotedblright" unicode="&#x201d;" horiz-adv-x="475" 
d="M300 698q0 25 18 43t43 18h3q25 0 43 -18t18 -43v-64q0 -57 -21.5 -85t-72.5 -33q-14 -2 -22.5 6t-8.5 22v12q0 6 5.5 12t11.5 8q27 5 32 38q3 20 -20 20h-4q-10 0 -17.5 7.5t-7.5 17.5v39zM113 698q0 25 18 43t43 18h3q25 0 43 -18t18 -43v-64q0 -57 -21.5 -85
t-72.5 -33q-14 -2 -22.5 6t-8.5 22v12q0 6 5.5 12t11.5 8q27 5 32 38q3 20 -20 20h-4q-10 0 -17.5 7.5t-7.5 17.5v39z" />
    <glyph glyph-name="dagger" unicode="&#x2020;" horiz-adv-x="575" 
d="M465 580q21 0 35.5 -14.5t14.5 -35.5t-14.5 -35.5t-35.5 -14.5h-59q-25 0 -43 -18t-18 -43v-411q0 -24 -17 -41t-40 -17q-24 0 -41 17t-17 41v411q0 25 -18 43t-43 18h-59q-21 0 -35.5 14.5t-14.5 35.5t14.5 35.5t35.5 14.5h59q25 0 43 18t18 43v52q0 23 17 40t41 17
q23 0 40 -17t17 -40v-52q0 -25 18 -43t43 -18h59z" />
    <glyph glyph-name="daggerdbl" unicode="&#x2021;" horiz-adv-x="575" 
d="M110 120q-21 0 -35.5 14.5t-14.5 35.5t14.5 35.5t35.5 14.5h59q25 0 43 18t18 43v138q0 25 -18 43t-43 18h-59q-21 0 -35.5 14.5t-14.5 35.5t14.5 35.5t35.5 14.5h59q25 0 43 18t18 43v52q0 23 17 40t41 17q23 0 40 -17t17 -40v-52q0 -25 18 -43t43 -18h59
q21 0 35.5 -14.5t14.5 -35.5t-14.5 -35.5t-35.5 -14.5h-59q-25 0 -43 -18t-18 -43v-138q0 -25 18 -43t43 -18h59q21 0 35.5 -14.5t14.5 -35.5t-14.5 -35.5t-35.5 -14.5h-59q-25 0 -43 -18t-18 -43v-51q0 -24 -17 -41t-40 -17q-24 0 -41 17t-17 41v51q0 25 -18 43t-43 18h-59
z" />
    <glyph glyph-name="bullet" unicode="&#x2022;" horiz-adv-x="225" 
d="M111 198q-25 0 -43 18t-18 43v3q0 25 18 43t43 18h3q25 0 43 -18t18 -43v-3q0 -25 -18 -43t-43 -18h-3z" />
    <glyph glyph-name="ellipsis" unicode="&#x2026;" horiz-adv-x="625" 
d="M511 0q-25 0 -43 18t-18 43v3q0 25 18 43t43 18h3q25 0 43 -18t18 -43v-3q0 -25 -18 -43t-43 -18h-3zM311 0q-25 0 -43 18t-18 43v3q0 25 18 43t43 18h3q25 0 43 -18t18 -43v-3q0 -25 -18 -43t-43 -18h-3zM111 0q-25 0 -43 18t-18 43v3q0 25 18 43t43 18h3q25 0 43 -18
t18 -43v-3q0 -25 -18 -43t-43 -18h-3z" />
    <glyph glyph-name="perthousand" unicode="&#x2030;" horiz-adv-x="780" 
d="M879 0q31 0 46.5 38.5t15.5 102.5t-15.5 102.5t-46.5 38.5q-30 0 -45.5 -38.5t-15.5 -102.5t15.5 -102.5t45.5 -38.5zM879 -9q-63 0 -94.5 41t-31.5 109t31.5 109t94.5 41t95 -41t32 -109t-32 -109t-95 -41zM594 0q31 0 46.5 38.5t15.5 102.5t-15.5 102.5t-46.5 38.5
q-30 0 -45.5 -38.5t-15.5 -102.5t15.5 -102.5t45.5 -38.5zM594 -9q-63 0 -94.5 41t-31.5 109t31.5 109t94.5 41t95 -41t32 -109t-32 -109t-95 -41zM186 468q30 0 45.5 38.5t15.5 102.5t-15.5 102.5t-45.5 38.5q-31 0 -46.5 -38.5t-15.5 -102.5t15.5 -102.5t46.5 -38.5z
M186 459q-63 0 -95 41t-32 109t32 109t95 41t94.5 -41t31.5 -109t-31.5 -109t-94.5 -41zM180 0q-7 0 -10.5 5.5t0.5 11.5l400 716q4 6 13.5 11.5t16.5 5.5t10.5 -5.5t-0.5 -11.5l-400 -716q-4 -6 -13.5 -11.5t-16.5 -5.5z" />
    <glyph glyph-name="guilsinglleft" unicode="&#x2039;" horiz-adv-x="265" 
d="M172 443q6 9 22.5 18t28.5 9h17q17 0 24.5 -13.5t-2.5 -28.5l-89 -134q-9 -13 -9 -34t9 -34l89 -134q10 -15 2.5 -28.5t-24.5 -13.5h-17q-12 0 -28.5 9t-22.5 18l-99 149q-9 13 -9 34t9 34z" />
    <glyph glyph-name="guilsinglright" unicode="&#x203a;" horiz-adv-x="265" 
d="M78 428q-10 15 -2.5 28.5t24.5 13.5h17q12 0 28.5 -9t22.5 -18l99 -149q9 -13 9 -34t-9 -34l-99 -149q-6 -9 -22.5 -18t-28.5 -9h-17q-17 0 -24.5 13.5t2.5 28.5l89 134q9 13 9 34t-9 34z" />
    <glyph glyph-name="fraction" unicode="&#x2044;" horiz-adv-x="580" 
d="M80 0q-7 0 -10.5 5.5t0.5 11.5l400 716q4 6 13.5 11.5t16.5 5.5t10.5 -5.5t-0.5 -11.5l-400 -716q-4 -6 -13.5 -11.5t-16.5 -5.5z" />
    <glyph glyph-name="Euro" unicode="&#x20ac;" horiz-adv-x="695" 
d="M25 281q-13 0 -21 9.5t-7 22.5l1 7q2 10 10.5 17.5t19.5 7.5h15q10 0 10 9q-1 21 0 42q0 9 -10 9h-15q-11 0 -17.5 7.5t-4.5 17.5l1 13q2 11 10.5 18.5t19.5 7.5q10 0 20 7.5t12 16.5q17 57 50 106t78.5 84.5t103.5 55.5t125 20q32 0 65.5 -12.5t66 -34.5t61.5 -54
t52 -70q5 -8 -2 -14q-8 -6 -13 2q-23 38 -50.5 68.5t-58 52.5t-61.5 34t-60 12q-38 0 -71 -15.5t-60.5 -43t-48 -65.5t-34.5 -83q-9 -31 7.5 -49t49.5 -18h181q13 0 21 -9.5t7 -22.5q-2 -13 -13 -22.5t-24 -9.5h-240q-10 0 -10 -9q-1 -21 0 -42q0 -9 10 -9h240q13 0 21 -9.5
t7 -22.5q-2 -13 -13 -22.5t-24 -9.5h-163q-33 0 -49.5 -18t-7.5 -49q14 -45 34.5 -83t48 -65.5t60.5 -43t71 -15.5q34 0 68 12t64 34t55.5 52.5t43.5 68.5q4 8 12 2q7 -6 3 -14q-18 -38 -45 -70t-59 -54t-68.5 -34.5t-73.5 -12.5q-66 0 -122.5 19t-101.5 53t-78 80.5
t-51 101.5q-4 12 -18 24t-27 12h-3z" />
    <glyph glyph-name="minus" unicode="&#x2212;" horiz-adv-x="615" 
d="M85 228q-15 0 -25 10t-10 25t10 25t25 10h445q15 0 25 -10t10 -25t-10 -25t-25 -10h-445z" />
    <glyph glyph-name="divisionslash" unicode="&#x2215;" horiz-adv-x="460" 
d="M20 0q-7 0 -10.5 5.5t0.5 11.5l400 716q4 6 13.5 11.5t16.5 5.5t10.5 -5.5t-0.5 -11.5l-400 -716q-4 -6 -13.5 -11.5t-16.5 -5.5z" />
    <glyph glyph-name="bulletoperator" unicode="&#x2219;" horiz-adv-x="225" 
d="M111 198q-25 0 -43 18t-18 43v3q0 25 18 43t43 18h3q25 0 43 -18t18 -43v-3q0 -25 -18 -43t-43 -18h-3z" />
    <glyph glyph-name="F_sc" unicode="&#xa730;" horiz-adv-x="536" 
d="M469 315q7 0 7 -7t-7 -7h-202q-25 0 -43 -18t-18 -43v-182q0 -24 -17 -41t-41 -17t-41 17t-17 41v478q0 25 18 43t43 18h348q7 0 7 -7t-7 -7h-232q-25 0 -43 -18t-18 -43v-146q0 -25 18 -43t43 -18h202z" />
    <glyph glyph-name="S_sc" unicode="&#xa731;" horiz-adv-x="552" 
d="M466 464q3 -2 3.5 -6t-1.5 -6q-3 -3 -6.5 -2t-5.5 3q-64 68 -120 102.5t-96 34.5q-36 0 -58 -39t-22 -104q0 -64 132 -82q226 -32 226 -198q0 -80 -52.5 -128t-157.5 -48q-71 0 -135 44.5t-108 132.5q-1 2 -1.5 6.5t1.5 5.5l4 3l3 3q1 1 1.5 2t1.5 0q42 -91 104 -136.5
t128 -45.5q47 0 70.5 43t23.5 114q0 66 -141 86q-220 30 -220 185q0 39 14.5 70.5t40.5 54t62.5 35t81.5 12.5q44 0 103 -35.5t124 -106.5z" />
    <glyph glyph-name="X_sc" unicode="&#xf078;" horiz-adv-x="590" 
d="M89 50q41 47 81 94t81 95q11 13 13 35t-8 37l-147 236l-4 6l-13 22q-5 7 -1.5 14t12.5 7h90h6q2 -3 5 -7l5 -7.5t6 -10.5q28 -45 56 -89.5t56 -89.5q9 -14 25 -16.5t27 10.5l140 163q1 1 7.5 8.5t13.5 15.5t13 15t7 8q2 2 4.5 1t5.5 -1t4.5 -2.5t-0.5 -5.5l-36 -41
l-148 -173q-11 -13 -13 -35t8 -37l158 -253l6 -10l13 -20q4 -7 0.5 -13.5t-12.5 -6.5h-92h-6q-2 3 -5 7l-5 7.5t-6 10.5q-30 49 -60 97t-60 97q-9 15 -26 17.5t-29 -11.5l-151 -175q-1 -1 -7 -8.5t-13.5 -16t-14 -16t-7.5 -8.5q-2 -2 -4.5 -1t-5.5 1q-4 0 -5 2.5t1 5.5
l35 41v1z" />
  </font>
</defs>
</svg>
