<?xml version="1.0"?>
<!--Icons from directory ""-->
<svg xmlns="http://www.w3.org/2000/svg" width="20" height="114" viewBox="0 0 20 114"><svg width="12" height="21" fill="none" id="facebook" y="0"><path d="M10.648 12.234h-2.93v8.75H3.814v-8.75H.647V8.6h3.164V5.867c0-1.042.196-1.927.586-2.657.391-.729.938-1.276 1.641-1.64.73-.39 1.563-.586 2.5-.586.417 0 .86.026 1.328.078.469.026.833.065 1.094.117l.39.04v3.085H9.79c-.73 0-1.263.196-1.601.586-.313.365-.47.82-.47 1.367v2.344h3.477l-.547 3.633z" fill="#fff"/></svg><svg width="12" height="21" fill="none" id="facebook_gold" y="21"><path d="M10.648 12.234h-2.93v8.75H3.814v-8.75H.647V8.6h3.164V5.867c0-1.042.196-1.927.586-2.657.391-.729.938-1.276 1.641-1.64.73-.39 1.563-.586 2.5-.586.417 0 .86.026 1.328.078.469.026.833.065 1.094.117l.39.04v3.085H9.79c-.73 0-1.263.196-1.601.586-.313.365-.47.82-.47 1.367v2.344h3.477l-.547 3.633z" fill="#E8C300"/></svg><svg width="18" height="18" fill="none" id="inst" y="42"><path d="M9 4.492c-.807 0-1.563.208-2.266.625a4.505 4.505 0 00-1.64 1.64 4.377 4.377 0 00-.586 2.227c0 .807.195 1.562.586 2.265a4.94 4.94 0 001.64 1.641A4.59 4.59 0 009 13.476c.807 0 1.55-.195 2.227-.586a4.504 4.504 0 001.64-1.64 4.368 4.368 0 00.625-2.266c0-.807-.208-1.55-.625-2.227a4.143 4.143 0 00-1.64-1.64A4.167 4.167 0 009 4.492zm0 7.422a2.822 2.822 0 01-2.07-.86 2.822 2.822 0 01-.86-2.07c0-.807.287-1.498.86-2.07A2.822 2.822 0 019 6.054c.807 0 1.497.287 2.07.86.573.572.86 1.263.86 2.07 0 .807-.287 1.497-.86 2.07a2.822 2.822 0 01-2.07.86zm5.742-7.618a1.171 1.171 0 01-.351.743.892.892 0 01-.704.312c-.286 0-.533-.104-.742-.312a1.014 1.014 0 01-.312-.743c0-.286.104-.533.312-.742.209-.208.456-.312.742-.312.287 0 .534.104.743.312.208.209.312.456.312.742zm2.969 1.055c-.052-.755-.17-1.406-.352-1.953a4.275 4.275 0 00-1.093-1.68 4.274 4.274 0 00-1.68-1.093c-.547-.183-1.198-.287-1.953-.313C11.903.26 10.693.234 9 .234S6.083.26 5.328.312C4.6.338 3.961.442 3.414.625a4.614 4.614 0 00-1.719 1.093 4.493 4.493 0 00-1.054 1.68c-.183.547-.3 1.198-.352 1.953-.026.73-.039 1.94-.039 3.633s.013 2.917.04 3.672c.051.729.168 1.367.35 1.914a4.868 4.868 0 001.055 1.719 4.432 4.432 0 001.72 1.015c.546.209 1.184.326 1.913.352.755.052 1.98.078 3.672.078 1.693 0 2.904-.026 3.633-.078.755-.026 1.406-.13 1.953-.313a4.493 4.493 0 001.68-1.054 4.614 4.614 0 001.093-1.72c.183-.546.287-1.184.313-1.913.052-.755.078-1.98.078-3.672 0-1.693-.013-2.904-.04-3.633zm-1.875 8.79c-.313.78-.873 1.34-1.68 1.679-.416.156-1.12.26-2.11.312-.546.026-1.353.04-2.421.04h-1.25a56.88 56.88 0 01-2.422-.04c-.963-.052-1.667-.156-2.11-.312-.78-.313-1.34-.873-1.679-1.68-.156-.443-.26-1.146-.312-2.11-.026-.572-.04-1.38-.04-2.421v-1.25c0-1.042.014-1.85.04-2.422.052-.99.156-1.693.312-2.11a2.82 2.82 0 011.68-1.68c.442-.155 1.146-.26 2.11-.312.572-.026 1.38-.039 2.421-.039h1.25c1.042 0 1.849.013 2.422.04.99.052 1.693.156 2.11.312a2.82 2.82 0 011.679 1.68c.156.416.26 1.12.312 2.109.026.547.04 1.354.04 2.422v1.25c0 1.042-.014 1.849-.04 2.422-.052.963-.156 1.666-.312 2.11z" fill="#fff"/></svg><svg width="18" height="18" fill="none" id="inst_gold" y="60"><path d="M5.836 5.82c.885-.886 1.953-1.328 3.203-1.328 1.25 0 2.305.442 3.164 1.328.886.86 1.328 1.914 1.328 3.164 0 1.25-.443 2.318-1.328 3.203-.86.86-1.914 1.29-3.164 1.29-1.25 0-2.318-.43-3.203-1.29-.86-.885-1.29-1.953-1.29-3.203 0-1.25.43-2.305 1.29-3.164zm1.133 5.234c.573.573 1.263.86 2.07.86.807 0 1.498-.287 2.07-.86.573-.573.86-1.263.86-2.07 0-.807-.287-1.498-.86-2.07a2.822 2.822 0 00-2.07-.86c-.807 0-1.497.287-2.07.86a2.822 2.822 0 00-.86 2.07c0 .807.287 1.497.86 2.07zm7.46-7.46a.892.892 0 01.313.702c0 .287-.104.534-.312.743a.892.892 0 01-.703.312c-.287 0-.534-.104-.743-.312a1.014 1.014 0 01-.312-.743c0-.286.104-.52.312-.703.209-.208.456-.312.743-.312.286 0 .52.104.703.312zM17.75 5.39c.026.703.04 1.901.04 3.594 0 1.693-.014 2.89-.04 3.594-.078 1.588-.56 2.825-1.445 3.71-.86.86-2.084 1.316-3.672 1.368-.703.052-1.901.078-3.594.078-1.693 0-2.89-.026-3.594-.078-1.588-.078-2.812-.547-3.672-1.406a3.77 3.77 0 01-.82-1.094 6.416 6.416 0 01-.469-1.211 7.04 7.04 0 01-.117-1.367C.315 11.874.29 10.677.29 8.984.29 7.29.315 6.08.367 5.35.445 3.79.914 2.578 1.773 1.718 2.633.833 3.857.351 5.445.273 6.148.247 7.346.233 9.04.233c1.693 0 2.89.014 3.594.04 1.588.078 2.812.56 3.672 1.445.885.86 1.367 2.084 1.445 3.672zm-1.875 8.75c.078-.208.143-.469.195-.781.052-.339.091-.73.117-1.172.026-.469.04-.846.04-1.133v-1.21-.86-.86-1.21c0-.287-.014-.651-.04-1.094-.026-.469-.065-.86-.117-1.172a4.236 4.236 0 00-.195-.82 2.82 2.82 0 00-1.68-1.68 4.232 4.232 0 00-.82-.195 11.05 11.05 0 00-1.172-.118c-.443-.026-.807-.039-1.094-.039H6.97c-.287 0-.664.013-1.133.04-.443.025-.833.065-1.172.117a4.254 4.254 0 00-.781.195 2.82 2.82 0 00-1.68 1.68 4.234 4.234 0 00-.195.82c-.052.312-.091.703-.117 1.172-.026.443-.04.807-.04 1.094V11.6c.027.39.053.73.079 1.016a10.348 10.348 0 00.273 1.523c.339.807.899 1.367 1.68 1.68.208.078.469.143.781.195.339.052.73.091 1.172.117.469.026.833.04 1.094.04h4.179c.287 0 .651-.014 1.094-.04.469-.026.86-.065 1.172-.117.338-.052.612-.117.82-.195.808-.339 1.367-.899 1.68-1.68z" fill="#E8C300"/></svg><svg width="20" height="18" fill="none" id="twitter" y="78"><path d="M17.93 4.921c.026.105.039.274.039.508 0 1.875-.456 3.685-1.367 5.43-.938 1.849-2.253 3.32-3.946 4.414-1.849 1.224-3.971 1.836-6.367 1.836-2.292 0-4.388-.612-6.289-1.836.286.026.612.039.977.039 1.9 0 3.606-.586 5.117-1.758-.912 0-1.719-.26-2.422-.781a4.236 4.236 0 01-1.406-2.031c.26.026.507.039.742.039.364 0 .729-.04 1.094-.117a4.133 4.133 0 01-2.344-1.446A3.932 3.932 0 01.82 6.64v-.078c.573.339 1.185.52 1.836.547a4.55 4.55 0 01-1.328-1.484A3.903 3.903 0 01.82 3.67c0-.729.196-1.419.586-2.07a11.372 11.372 0 008.438 4.297 5.694 5.694 0 01-.078-.938c0-.729.182-1.406.546-2.03a3.975 3.975 0 011.485-1.524 3.962 3.962 0 012.031-.547c.6 0 1.146.117 1.64.351.522.235.977.547 1.368.938a8.345 8.345 0 002.617-.977c-.312.964-.911 1.72-1.797 2.266A8.81 8.81 0 0020 2.773a9.016 9.016 0 01-2.07 2.148z" fill="#fff"/></svg><svg width="20" height="18" fill="none" id="twitter_gold" y="96"><path d="M17.93 4.921c.026.105.039.274.039.508 0 1.38-.26 2.76-.782 4.14a13.106 13.106 0 01-2.226 3.75c-.938 1.12-2.162 2.032-3.672 2.735-1.51.703-3.177 1.055-5 1.055-2.292 0-4.388-.612-6.289-1.836.286.026.612.039.977.039 1.9 0 3.606-.586 5.117-1.758-.912 0-1.719-.26-2.422-.781a4.236 4.236 0 01-1.406-2.031c.26.026.507.039.742.039.364 0 .729-.04 1.094-.117a3.985 3.985 0 01-1.68-.782A4.343 4.343 0 011.25 8.476 4.05 4.05 0 01.82 6.64v-.078c.573.339 1.185.52 1.836.547C1.432 6.276.82 5.129.82 3.67c0-.729.196-1.419.586-2.07a11.372 11.372 0 008.438 4.297 5.694 5.694 0 01-.078-.938c0-1.12.39-2.083 1.171-2.89.808-.807 1.771-1.211 2.891-1.211 1.198 0 2.2.43 3.008 1.289a8.345 8.345 0 002.617-.977c-.312.964-.911 1.72-1.797 2.266A8.81 8.81 0 0020 2.773a9.016 9.016 0 01-2.07 2.148z" fill="#E8C300"/></svg></svg>
